%TF.GenerationSoftware,KiCad,Pcbnew,8.0.9*%
%TF.CreationDate,2025-05-08T22:04:55-05:00*%
%TF.ProjectId,SPD_Demon,5350445f-4465-46d6-9f6e-2e6b69636164,rev?*%
%TF.SameCoordinates,Original*%
%TF.FileFunction,Drillmap*%
%TF.FilePolarity,Positive*%
%FSLAX45Y45*%
G04 Gerber Fmt 4.5, Leading zero omitted, Abs format (unit mm)*
G04 Created by KiCad (PCBNEW 8.0.9) date 2025-05-08 22:04:55*
%MOMM*%
%LPD*%
G01*
G04 APERTURE LIST*
%ADD10C,0.050000*%
%ADD11C,0.200000*%
%ADD12C,0.218440*%
%ADD13C,0.254000*%
G04 APERTURE END LIST*
D10*
X4762500Y-4546600D02*
G75*
G02*
X5283200Y-4025900I520700J0D01*
G01*
X6847349Y-4203700D02*
G75*
G02*
X7165789Y-4546600I-25399J-342900D01*
G01*
X5283200Y-4025900D02*
X5664200Y-4025900D01*
X4762500Y-4546600D02*
X2540000Y-4546600D01*
X17145000Y-2438400D02*
X17145000Y-4546600D01*
X2540000Y-4546600D02*
X2540000Y-2438400D01*
X6056850Y-4203700D02*
X6847349Y-4203700D01*
X17145000Y-4546600D02*
X7165788Y-4546600D01*
X17145000Y-2438400D02*
X2540000Y-2438400D01*
X5664200Y-4025299D02*
G75*
G02*
X6056850Y-4203700I0J-521301D01*
G01*
D11*
D12*
X3637280Y-3375530D02*
X3855720Y-3593970D01*
X3855720Y-3375530D02*
X3637280Y-3593970D01*
D13*
X9969500Y-3484750D02*
G75*
G02*
X9715500Y-3484750I-127000J0D01*
G01*
X9715500Y-3484750D02*
G75*
G02*
X9969500Y-3484750I127000J0D01*
G01*
X16065500Y-3484750D02*
G75*
G02*
X15811500Y-3484750I-127000J0D01*
G01*
X15811500Y-3484750D02*
G75*
G02*
X16065500Y-3484750I127000J0D01*
G01*
D11*
X2798277Y-4860584D02*
X2798277Y-4660584D01*
X2798277Y-4660584D02*
X2845896Y-4660584D01*
X2845896Y-4660584D02*
X2874467Y-4670108D01*
X2874467Y-4670108D02*
X2893515Y-4689155D01*
X2893515Y-4689155D02*
X2903039Y-4708203D01*
X2903039Y-4708203D02*
X2912562Y-4746298D01*
X2912562Y-4746298D02*
X2912562Y-4774870D01*
X2912562Y-4774870D02*
X2903039Y-4812965D01*
X2903039Y-4812965D02*
X2893515Y-4832012D01*
X2893515Y-4832012D02*
X2874467Y-4851060D01*
X2874467Y-4851060D02*
X2845896Y-4860584D01*
X2845896Y-4860584D02*
X2798277Y-4860584D01*
X2998277Y-4860584D02*
X2998277Y-4727250D01*
X2998277Y-4765346D02*
X3007801Y-4746298D01*
X3007801Y-4746298D02*
X3017324Y-4736774D01*
X3017324Y-4736774D02*
X3036372Y-4727250D01*
X3036372Y-4727250D02*
X3055420Y-4727250D01*
X3122086Y-4860584D02*
X3122086Y-4727250D01*
X3122086Y-4660584D02*
X3112562Y-4670108D01*
X3112562Y-4670108D02*
X3122086Y-4679631D01*
X3122086Y-4679631D02*
X3131610Y-4670108D01*
X3131610Y-4670108D02*
X3122086Y-4660584D01*
X3122086Y-4660584D02*
X3122086Y-4679631D01*
X3245896Y-4860584D02*
X3226848Y-4851060D01*
X3226848Y-4851060D02*
X3217324Y-4832012D01*
X3217324Y-4832012D02*
X3217324Y-4660584D01*
X3350658Y-4860584D02*
X3331610Y-4851060D01*
X3331610Y-4851060D02*
X3322086Y-4832012D01*
X3322086Y-4832012D02*
X3322086Y-4660584D01*
X3579229Y-4860584D02*
X3579229Y-4660584D01*
X3579229Y-4660584D02*
X3645896Y-4803441D01*
X3645896Y-4803441D02*
X3712562Y-4660584D01*
X3712562Y-4660584D02*
X3712562Y-4860584D01*
X3893515Y-4860584D02*
X3893515Y-4755822D01*
X3893515Y-4755822D02*
X3883991Y-4736774D01*
X3883991Y-4736774D02*
X3864943Y-4727250D01*
X3864943Y-4727250D02*
X3826848Y-4727250D01*
X3826848Y-4727250D02*
X3807801Y-4736774D01*
X3893515Y-4851060D02*
X3874467Y-4860584D01*
X3874467Y-4860584D02*
X3826848Y-4860584D01*
X3826848Y-4860584D02*
X3807801Y-4851060D01*
X3807801Y-4851060D02*
X3798277Y-4832012D01*
X3798277Y-4832012D02*
X3798277Y-4812965D01*
X3798277Y-4812965D02*
X3807801Y-4793917D01*
X3807801Y-4793917D02*
X3826848Y-4784393D01*
X3826848Y-4784393D02*
X3874467Y-4784393D01*
X3874467Y-4784393D02*
X3893515Y-4774870D01*
X3988753Y-4727250D02*
X3988753Y-4927250D01*
X3988753Y-4736774D02*
X4007801Y-4727250D01*
X4007801Y-4727250D02*
X4045896Y-4727250D01*
X4045896Y-4727250D02*
X4064943Y-4736774D01*
X4064943Y-4736774D02*
X4074467Y-4746298D01*
X4074467Y-4746298D02*
X4083991Y-4765346D01*
X4083991Y-4765346D02*
X4083991Y-4822489D01*
X4083991Y-4822489D02*
X4074467Y-4841536D01*
X4074467Y-4841536D02*
X4064943Y-4851060D01*
X4064943Y-4851060D02*
X4045896Y-4860584D01*
X4045896Y-4860584D02*
X4007801Y-4860584D01*
X4007801Y-4860584D02*
X3988753Y-4851060D01*
X4169705Y-4841536D02*
X4179229Y-4851060D01*
X4179229Y-4851060D02*
X4169705Y-4860584D01*
X4169705Y-4860584D02*
X4160182Y-4851060D01*
X4160182Y-4851060D02*
X4169705Y-4841536D01*
X4169705Y-4841536D02*
X4169705Y-4860584D01*
X4169705Y-4736774D02*
X4179229Y-4746298D01*
X4179229Y-4746298D02*
X4169705Y-4755822D01*
X4169705Y-4755822D02*
X4160182Y-4746298D01*
X4160182Y-4746298D02*
X4169705Y-4736774D01*
X4169705Y-4736774D02*
X4169705Y-4755822D01*
X2337500Y-5089100D02*
X2537500Y-5289100D01*
X2537500Y-5089100D02*
X2337500Y-5289100D01*
X2788753Y-5099631D02*
X2798277Y-5090108D01*
X2798277Y-5090108D02*
X2817324Y-5080584D01*
X2817324Y-5080584D02*
X2864943Y-5080584D01*
X2864943Y-5080584D02*
X2883991Y-5090108D01*
X2883991Y-5090108D02*
X2893515Y-5099631D01*
X2893515Y-5099631D02*
X2903039Y-5118679D01*
X2903039Y-5118679D02*
X2903039Y-5137727D01*
X2903039Y-5137727D02*
X2893515Y-5166298D01*
X2893515Y-5166298D02*
X2779229Y-5280584D01*
X2779229Y-5280584D02*
X2903039Y-5280584D01*
X2988753Y-5261536D02*
X2998277Y-5271060D01*
X2998277Y-5271060D02*
X2988753Y-5280584D01*
X2988753Y-5280584D02*
X2979229Y-5271060D01*
X2979229Y-5271060D02*
X2988753Y-5261536D01*
X2988753Y-5261536D02*
X2988753Y-5280584D01*
X3188753Y-5280584D02*
X3074467Y-5280584D01*
X3131610Y-5280584D02*
X3131610Y-5080584D01*
X3131610Y-5080584D02*
X3112562Y-5109155D01*
X3112562Y-5109155D02*
X3093515Y-5128203D01*
X3093515Y-5128203D02*
X3074467Y-5137727D01*
X3303039Y-5166298D02*
X3283991Y-5156774D01*
X3283991Y-5156774D02*
X3274467Y-5147250D01*
X3274467Y-5147250D02*
X3264943Y-5128203D01*
X3264943Y-5128203D02*
X3264943Y-5118679D01*
X3264943Y-5118679D02*
X3274467Y-5099631D01*
X3274467Y-5099631D02*
X3283991Y-5090108D01*
X3283991Y-5090108D02*
X3303039Y-5080584D01*
X3303039Y-5080584D02*
X3341134Y-5080584D01*
X3341134Y-5080584D02*
X3360182Y-5090108D01*
X3360182Y-5090108D02*
X3369705Y-5099631D01*
X3369705Y-5099631D02*
X3379229Y-5118679D01*
X3379229Y-5118679D02*
X3379229Y-5128203D01*
X3379229Y-5128203D02*
X3369705Y-5147250D01*
X3369705Y-5147250D02*
X3360182Y-5156774D01*
X3360182Y-5156774D02*
X3341134Y-5166298D01*
X3341134Y-5166298D02*
X3303039Y-5166298D01*
X3303039Y-5166298D02*
X3283991Y-5175822D01*
X3283991Y-5175822D02*
X3274467Y-5185346D01*
X3274467Y-5185346D02*
X3264943Y-5204393D01*
X3264943Y-5204393D02*
X3264943Y-5242489D01*
X3264943Y-5242489D02*
X3274467Y-5261536D01*
X3274467Y-5261536D02*
X3283991Y-5271060D01*
X3283991Y-5271060D02*
X3303039Y-5280584D01*
X3303039Y-5280584D02*
X3341134Y-5280584D01*
X3341134Y-5280584D02*
X3360182Y-5271060D01*
X3360182Y-5271060D02*
X3369705Y-5261536D01*
X3369705Y-5261536D02*
X3379229Y-5242489D01*
X3379229Y-5242489D02*
X3379229Y-5204393D01*
X3379229Y-5204393D02*
X3369705Y-5185346D01*
X3369705Y-5185346D02*
X3360182Y-5175822D01*
X3360182Y-5175822D02*
X3341134Y-5166298D01*
X3550658Y-5147250D02*
X3550658Y-5280584D01*
X3503039Y-5071060D02*
X3455420Y-5213917D01*
X3455420Y-5213917D02*
X3579229Y-5213917D01*
X3655420Y-5280584D02*
X3655420Y-5147250D01*
X3655420Y-5166298D02*
X3664943Y-5156774D01*
X3664943Y-5156774D02*
X3683991Y-5147250D01*
X3683991Y-5147250D02*
X3712563Y-5147250D01*
X3712563Y-5147250D02*
X3731610Y-5156774D01*
X3731610Y-5156774D02*
X3741134Y-5175822D01*
X3741134Y-5175822D02*
X3741134Y-5280584D01*
X3741134Y-5175822D02*
X3750658Y-5156774D01*
X3750658Y-5156774D02*
X3769705Y-5147250D01*
X3769705Y-5147250D02*
X3798277Y-5147250D01*
X3798277Y-5147250D02*
X3817324Y-5156774D01*
X3817324Y-5156774D02*
X3826848Y-5175822D01*
X3826848Y-5175822D02*
X3826848Y-5280584D01*
X3922086Y-5280584D02*
X3922086Y-5147250D01*
X3922086Y-5166298D02*
X3931610Y-5156774D01*
X3931610Y-5156774D02*
X3950658Y-5147250D01*
X3950658Y-5147250D02*
X3979229Y-5147250D01*
X3979229Y-5147250D02*
X3998277Y-5156774D01*
X3998277Y-5156774D02*
X4007801Y-5175822D01*
X4007801Y-5175822D02*
X4007801Y-5280584D01*
X4007801Y-5175822D02*
X4017324Y-5156774D01*
X4017324Y-5156774D02*
X4036372Y-5147250D01*
X4036372Y-5147250D02*
X4064943Y-5147250D01*
X4064943Y-5147250D02*
X4083991Y-5156774D01*
X4083991Y-5156774D02*
X4093515Y-5175822D01*
X4093515Y-5175822D02*
X4093515Y-5280584D01*
X4483991Y-5071060D02*
X4312563Y-5328203D01*
X4741134Y-5080584D02*
X4760182Y-5080584D01*
X4760182Y-5080584D02*
X4779229Y-5090108D01*
X4779229Y-5090108D02*
X4788753Y-5099631D01*
X4788753Y-5099631D02*
X4798277Y-5118679D01*
X4798277Y-5118679D02*
X4807801Y-5156774D01*
X4807801Y-5156774D02*
X4807801Y-5204393D01*
X4807801Y-5204393D02*
X4798277Y-5242489D01*
X4798277Y-5242489D02*
X4788753Y-5261536D01*
X4788753Y-5261536D02*
X4779229Y-5271060D01*
X4779229Y-5271060D02*
X4760182Y-5280584D01*
X4760182Y-5280584D02*
X4741134Y-5280584D01*
X4741134Y-5280584D02*
X4722087Y-5271060D01*
X4722087Y-5271060D02*
X4712563Y-5261536D01*
X4712563Y-5261536D02*
X4703039Y-5242489D01*
X4703039Y-5242489D02*
X4693515Y-5204393D01*
X4693515Y-5204393D02*
X4693515Y-5156774D01*
X4693515Y-5156774D02*
X4703039Y-5118679D01*
X4703039Y-5118679D02*
X4712563Y-5099631D01*
X4712563Y-5099631D02*
X4722087Y-5090108D01*
X4722087Y-5090108D02*
X4741134Y-5080584D01*
X4893515Y-5261536D02*
X4903039Y-5271060D01*
X4903039Y-5271060D02*
X4893515Y-5280584D01*
X4893515Y-5280584D02*
X4883991Y-5271060D01*
X4883991Y-5271060D02*
X4893515Y-5261536D01*
X4893515Y-5261536D02*
X4893515Y-5280584D01*
X5026848Y-5080584D02*
X5045896Y-5080584D01*
X5045896Y-5080584D02*
X5064944Y-5090108D01*
X5064944Y-5090108D02*
X5074468Y-5099631D01*
X5074468Y-5099631D02*
X5083991Y-5118679D01*
X5083991Y-5118679D02*
X5093515Y-5156774D01*
X5093515Y-5156774D02*
X5093515Y-5204393D01*
X5093515Y-5204393D02*
X5083991Y-5242489D01*
X5083991Y-5242489D02*
X5074468Y-5261536D01*
X5074468Y-5261536D02*
X5064944Y-5271060D01*
X5064944Y-5271060D02*
X5045896Y-5280584D01*
X5045896Y-5280584D02*
X5026848Y-5280584D01*
X5026848Y-5280584D02*
X5007801Y-5271060D01*
X5007801Y-5271060D02*
X4998277Y-5261536D01*
X4998277Y-5261536D02*
X4988753Y-5242489D01*
X4988753Y-5242489D02*
X4979229Y-5204393D01*
X4979229Y-5204393D02*
X4979229Y-5156774D01*
X4979229Y-5156774D02*
X4988753Y-5118679D01*
X4988753Y-5118679D02*
X4998277Y-5099631D01*
X4998277Y-5099631D02*
X5007801Y-5090108D01*
X5007801Y-5090108D02*
X5026848Y-5080584D01*
X5207801Y-5166298D02*
X5188753Y-5156774D01*
X5188753Y-5156774D02*
X5179229Y-5147250D01*
X5179229Y-5147250D02*
X5169706Y-5128203D01*
X5169706Y-5128203D02*
X5169706Y-5118679D01*
X5169706Y-5118679D02*
X5179229Y-5099631D01*
X5179229Y-5099631D02*
X5188753Y-5090108D01*
X5188753Y-5090108D02*
X5207801Y-5080584D01*
X5207801Y-5080584D02*
X5245896Y-5080584D01*
X5245896Y-5080584D02*
X5264944Y-5090108D01*
X5264944Y-5090108D02*
X5274468Y-5099631D01*
X5274468Y-5099631D02*
X5283991Y-5118679D01*
X5283991Y-5118679D02*
X5283991Y-5128203D01*
X5283991Y-5128203D02*
X5274468Y-5147250D01*
X5274468Y-5147250D02*
X5264944Y-5156774D01*
X5264944Y-5156774D02*
X5245896Y-5166298D01*
X5245896Y-5166298D02*
X5207801Y-5166298D01*
X5207801Y-5166298D02*
X5188753Y-5175822D01*
X5188753Y-5175822D02*
X5179229Y-5185346D01*
X5179229Y-5185346D02*
X5169706Y-5204393D01*
X5169706Y-5204393D02*
X5169706Y-5242489D01*
X5169706Y-5242489D02*
X5179229Y-5261536D01*
X5179229Y-5261536D02*
X5188753Y-5271060D01*
X5188753Y-5271060D02*
X5207801Y-5280584D01*
X5207801Y-5280584D02*
X5245896Y-5280584D01*
X5245896Y-5280584D02*
X5264944Y-5271060D01*
X5264944Y-5271060D02*
X5274468Y-5261536D01*
X5274468Y-5261536D02*
X5283991Y-5242489D01*
X5283991Y-5242489D02*
X5283991Y-5204393D01*
X5283991Y-5204393D02*
X5274468Y-5185346D01*
X5274468Y-5185346D02*
X5264944Y-5175822D01*
X5264944Y-5175822D02*
X5245896Y-5166298D01*
X5455420Y-5080584D02*
X5417325Y-5080584D01*
X5417325Y-5080584D02*
X5398277Y-5090108D01*
X5398277Y-5090108D02*
X5388753Y-5099631D01*
X5388753Y-5099631D02*
X5369706Y-5128203D01*
X5369706Y-5128203D02*
X5360182Y-5166298D01*
X5360182Y-5166298D02*
X5360182Y-5242489D01*
X5360182Y-5242489D02*
X5369706Y-5261536D01*
X5369706Y-5261536D02*
X5379229Y-5271060D01*
X5379229Y-5271060D02*
X5398277Y-5280584D01*
X5398277Y-5280584D02*
X5436372Y-5280584D01*
X5436372Y-5280584D02*
X5455420Y-5271060D01*
X5455420Y-5271060D02*
X5464944Y-5261536D01*
X5464944Y-5261536D02*
X5474468Y-5242489D01*
X5474468Y-5242489D02*
X5474468Y-5194870D01*
X5474468Y-5194870D02*
X5464944Y-5175822D01*
X5464944Y-5175822D02*
X5455420Y-5166298D01*
X5455420Y-5166298D02*
X5436372Y-5156774D01*
X5436372Y-5156774D02*
X5398277Y-5156774D01*
X5398277Y-5156774D02*
X5379229Y-5166298D01*
X5379229Y-5166298D02*
X5369706Y-5175822D01*
X5369706Y-5175822D02*
X5360182Y-5194870D01*
X5598277Y-5080584D02*
X5617325Y-5080584D01*
X5617325Y-5080584D02*
X5636372Y-5090108D01*
X5636372Y-5090108D02*
X5645896Y-5099631D01*
X5645896Y-5099631D02*
X5655420Y-5118679D01*
X5655420Y-5118679D02*
X5664944Y-5156774D01*
X5664944Y-5156774D02*
X5664944Y-5204393D01*
X5664944Y-5204393D02*
X5655420Y-5242489D01*
X5655420Y-5242489D02*
X5645896Y-5261536D01*
X5645896Y-5261536D02*
X5636372Y-5271060D01*
X5636372Y-5271060D02*
X5617325Y-5280584D01*
X5617325Y-5280584D02*
X5598277Y-5280584D01*
X5598277Y-5280584D02*
X5579229Y-5271060D01*
X5579229Y-5271060D02*
X5569706Y-5261536D01*
X5569706Y-5261536D02*
X5560182Y-5242489D01*
X5560182Y-5242489D02*
X5550658Y-5204393D01*
X5550658Y-5204393D02*
X5550658Y-5156774D01*
X5550658Y-5156774D02*
X5560182Y-5118679D01*
X5560182Y-5118679D02*
X5569706Y-5099631D01*
X5569706Y-5099631D02*
X5579229Y-5090108D01*
X5579229Y-5090108D02*
X5598277Y-5080584D01*
X5741134Y-5080584D02*
X5741134Y-5118679D01*
X5817325Y-5080584D02*
X5817325Y-5118679D01*
X6112563Y-5356774D02*
X6103039Y-5347250D01*
X6103039Y-5347250D02*
X6083991Y-5318679D01*
X6083991Y-5318679D02*
X6074468Y-5299631D01*
X6074468Y-5299631D02*
X6064944Y-5271060D01*
X6064944Y-5271060D02*
X6055420Y-5223441D01*
X6055420Y-5223441D02*
X6055420Y-5185346D01*
X6055420Y-5185346D02*
X6064944Y-5137727D01*
X6064944Y-5137727D02*
X6074468Y-5109155D01*
X6074468Y-5109155D02*
X6083991Y-5090108D01*
X6083991Y-5090108D02*
X6103039Y-5061536D01*
X6103039Y-5061536D02*
X6112563Y-5052012D01*
X6293515Y-5280584D02*
X6179229Y-5280584D01*
X6236372Y-5280584D02*
X6236372Y-5080584D01*
X6236372Y-5080584D02*
X6217325Y-5109155D01*
X6217325Y-5109155D02*
X6198277Y-5128203D01*
X6198277Y-5128203D02*
X6179229Y-5137727D01*
X6531610Y-5280584D02*
X6531610Y-5080584D01*
X6617325Y-5280584D02*
X6617325Y-5175822D01*
X6617325Y-5175822D02*
X6607801Y-5156774D01*
X6607801Y-5156774D02*
X6588753Y-5147250D01*
X6588753Y-5147250D02*
X6560182Y-5147250D01*
X6560182Y-5147250D02*
X6541134Y-5156774D01*
X6541134Y-5156774D02*
X6531610Y-5166298D01*
X6741134Y-5280584D02*
X6722087Y-5271060D01*
X6722087Y-5271060D02*
X6712563Y-5261536D01*
X6712563Y-5261536D02*
X6703039Y-5242489D01*
X6703039Y-5242489D02*
X6703039Y-5185346D01*
X6703039Y-5185346D02*
X6712563Y-5166298D01*
X6712563Y-5166298D02*
X6722087Y-5156774D01*
X6722087Y-5156774D02*
X6741134Y-5147250D01*
X6741134Y-5147250D02*
X6769706Y-5147250D01*
X6769706Y-5147250D02*
X6788753Y-5156774D01*
X6788753Y-5156774D02*
X6798277Y-5166298D01*
X6798277Y-5166298D02*
X6807801Y-5185346D01*
X6807801Y-5185346D02*
X6807801Y-5242489D01*
X6807801Y-5242489D02*
X6798277Y-5261536D01*
X6798277Y-5261536D02*
X6788753Y-5271060D01*
X6788753Y-5271060D02*
X6769706Y-5280584D01*
X6769706Y-5280584D02*
X6741134Y-5280584D01*
X6922087Y-5280584D02*
X6903039Y-5271060D01*
X6903039Y-5271060D02*
X6893515Y-5252012D01*
X6893515Y-5252012D02*
X6893515Y-5080584D01*
X7074468Y-5271060D02*
X7055420Y-5280584D01*
X7055420Y-5280584D02*
X7017325Y-5280584D01*
X7017325Y-5280584D02*
X6998277Y-5271060D01*
X6998277Y-5271060D02*
X6988753Y-5252012D01*
X6988753Y-5252012D02*
X6988753Y-5175822D01*
X6988753Y-5175822D02*
X6998277Y-5156774D01*
X6998277Y-5156774D02*
X7017325Y-5147250D01*
X7017325Y-5147250D02*
X7055420Y-5147250D01*
X7055420Y-5147250D02*
X7074468Y-5156774D01*
X7074468Y-5156774D02*
X7083991Y-5175822D01*
X7083991Y-5175822D02*
X7083991Y-5194870D01*
X7083991Y-5194870D02*
X6988753Y-5213917D01*
X7150658Y-5356774D02*
X7160182Y-5347250D01*
X7160182Y-5347250D02*
X7179230Y-5318679D01*
X7179230Y-5318679D02*
X7188753Y-5299631D01*
X7188753Y-5299631D02*
X7198277Y-5271060D01*
X7198277Y-5271060D02*
X7207801Y-5223441D01*
X7207801Y-5223441D02*
X7207801Y-5185346D01*
X7207801Y-5185346D02*
X7198277Y-5137727D01*
X7198277Y-5137727D02*
X7188753Y-5109155D01*
X7188753Y-5109155D02*
X7179230Y-5090108D01*
X7179230Y-5090108D02*
X7160182Y-5061536D01*
X7160182Y-5061536D02*
X7150658Y-5052012D01*
X7512563Y-5356774D02*
X7503039Y-5347250D01*
X7503039Y-5347250D02*
X7483991Y-5318679D01*
X7483991Y-5318679D02*
X7474468Y-5299631D01*
X7474468Y-5299631D02*
X7464944Y-5271060D01*
X7464944Y-5271060D02*
X7455420Y-5223441D01*
X7455420Y-5223441D02*
X7455420Y-5185346D01*
X7455420Y-5185346D02*
X7464944Y-5137727D01*
X7464944Y-5137727D02*
X7474468Y-5109155D01*
X7474468Y-5109155D02*
X7483991Y-5090108D01*
X7483991Y-5090108D02*
X7503039Y-5061536D01*
X7503039Y-5061536D02*
X7512563Y-5052012D01*
X7588753Y-5147250D02*
X7588753Y-5280584D01*
X7588753Y-5166298D02*
X7598277Y-5156774D01*
X7598277Y-5156774D02*
X7617325Y-5147250D01*
X7617325Y-5147250D02*
X7645896Y-5147250D01*
X7645896Y-5147250D02*
X7664944Y-5156774D01*
X7664944Y-5156774D02*
X7674468Y-5175822D01*
X7674468Y-5175822D02*
X7674468Y-5280584D01*
X7798277Y-5280584D02*
X7779230Y-5271060D01*
X7779230Y-5271060D02*
X7769706Y-5261536D01*
X7769706Y-5261536D02*
X7760182Y-5242489D01*
X7760182Y-5242489D02*
X7760182Y-5185346D01*
X7760182Y-5185346D02*
X7769706Y-5166298D01*
X7769706Y-5166298D02*
X7779230Y-5156774D01*
X7779230Y-5156774D02*
X7798277Y-5147250D01*
X7798277Y-5147250D02*
X7826849Y-5147250D01*
X7826849Y-5147250D02*
X7845896Y-5156774D01*
X7845896Y-5156774D02*
X7855420Y-5166298D01*
X7855420Y-5166298D02*
X7864944Y-5185346D01*
X7864944Y-5185346D02*
X7864944Y-5242489D01*
X7864944Y-5242489D02*
X7855420Y-5261536D01*
X7855420Y-5261536D02*
X7845896Y-5271060D01*
X7845896Y-5271060D02*
X7826849Y-5280584D01*
X7826849Y-5280584D02*
X7798277Y-5280584D01*
X7922087Y-5147250D02*
X7998277Y-5147250D01*
X7950658Y-5080584D02*
X7950658Y-5252012D01*
X7950658Y-5252012D02*
X7960182Y-5271060D01*
X7960182Y-5271060D02*
X7979230Y-5280584D01*
X7979230Y-5280584D02*
X7998277Y-5280584D01*
X8217325Y-5147250D02*
X8217325Y-5347250D01*
X8217325Y-5156774D02*
X8236372Y-5147250D01*
X8236372Y-5147250D02*
X8274468Y-5147250D01*
X8274468Y-5147250D02*
X8293515Y-5156774D01*
X8293515Y-5156774D02*
X8303039Y-5166298D01*
X8303039Y-5166298D02*
X8312563Y-5185346D01*
X8312563Y-5185346D02*
X8312563Y-5242489D01*
X8312563Y-5242489D02*
X8303039Y-5261536D01*
X8303039Y-5261536D02*
X8293515Y-5271060D01*
X8293515Y-5271060D02*
X8274468Y-5280584D01*
X8274468Y-5280584D02*
X8236372Y-5280584D01*
X8236372Y-5280584D02*
X8217325Y-5271060D01*
X8426849Y-5280584D02*
X8407801Y-5271060D01*
X8407801Y-5271060D02*
X8398277Y-5252012D01*
X8398277Y-5252012D02*
X8398277Y-5080584D01*
X8588754Y-5280584D02*
X8588754Y-5175822D01*
X8588754Y-5175822D02*
X8579230Y-5156774D01*
X8579230Y-5156774D02*
X8560182Y-5147250D01*
X8560182Y-5147250D02*
X8522087Y-5147250D01*
X8522087Y-5147250D02*
X8503039Y-5156774D01*
X8588754Y-5271060D02*
X8569706Y-5280584D01*
X8569706Y-5280584D02*
X8522087Y-5280584D01*
X8522087Y-5280584D02*
X8503039Y-5271060D01*
X8503039Y-5271060D02*
X8493515Y-5252012D01*
X8493515Y-5252012D02*
X8493515Y-5232965D01*
X8493515Y-5232965D02*
X8503039Y-5213917D01*
X8503039Y-5213917D02*
X8522087Y-5204393D01*
X8522087Y-5204393D02*
X8569706Y-5204393D01*
X8569706Y-5204393D02*
X8588754Y-5194870D01*
X8655420Y-5147250D02*
X8731611Y-5147250D01*
X8683992Y-5080584D02*
X8683992Y-5252012D01*
X8683992Y-5252012D02*
X8693515Y-5271060D01*
X8693515Y-5271060D02*
X8712563Y-5280584D01*
X8712563Y-5280584D02*
X8731611Y-5280584D01*
X8874468Y-5271060D02*
X8855420Y-5280584D01*
X8855420Y-5280584D02*
X8817325Y-5280584D01*
X8817325Y-5280584D02*
X8798277Y-5271060D01*
X8798277Y-5271060D02*
X8788754Y-5252012D01*
X8788754Y-5252012D02*
X8788754Y-5175822D01*
X8788754Y-5175822D02*
X8798277Y-5156774D01*
X8798277Y-5156774D02*
X8817325Y-5147250D01*
X8817325Y-5147250D02*
X8855420Y-5147250D01*
X8855420Y-5147250D02*
X8874468Y-5156774D01*
X8874468Y-5156774D02*
X8883992Y-5175822D01*
X8883992Y-5175822D02*
X8883992Y-5194870D01*
X8883992Y-5194870D02*
X8788754Y-5213917D01*
X9055420Y-5280584D02*
X9055420Y-5080584D01*
X9055420Y-5271060D02*
X9036373Y-5280584D01*
X9036373Y-5280584D02*
X8998277Y-5280584D01*
X8998277Y-5280584D02*
X8979230Y-5271060D01*
X8979230Y-5271060D02*
X8969706Y-5261536D01*
X8969706Y-5261536D02*
X8960182Y-5242489D01*
X8960182Y-5242489D02*
X8960182Y-5185346D01*
X8960182Y-5185346D02*
X8969706Y-5166298D01*
X8969706Y-5166298D02*
X8979230Y-5156774D01*
X8979230Y-5156774D02*
X8998277Y-5147250D01*
X8998277Y-5147250D02*
X9036373Y-5147250D01*
X9036373Y-5147250D02*
X9055420Y-5156774D01*
X9131611Y-5356774D02*
X9141135Y-5347250D01*
X9141135Y-5347250D02*
X9160182Y-5318679D01*
X9160182Y-5318679D02*
X9169706Y-5299631D01*
X9169706Y-5299631D02*
X9179230Y-5271060D01*
X9179230Y-5271060D02*
X9188754Y-5223441D01*
X9188754Y-5223441D02*
X9188754Y-5185346D01*
X9188754Y-5185346D02*
X9179230Y-5137727D01*
X9179230Y-5137727D02*
X9169706Y-5109155D01*
X9169706Y-5109155D02*
X9160182Y-5090108D01*
X9160182Y-5090108D02*
X9141135Y-5061536D01*
X9141135Y-5061536D02*
X9131611Y-5052012D01*
X2537500Y-5509100D02*
G75*
G02*
X2337500Y-5509100I-100000J0D01*
G01*
X2337500Y-5509100D02*
G75*
G02*
X2537500Y-5509100I100000J0D01*
G01*
X2788753Y-5419631D02*
X2798277Y-5410108D01*
X2798277Y-5410108D02*
X2817324Y-5400584D01*
X2817324Y-5400584D02*
X2864943Y-5400584D01*
X2864943Y-5400584D02*
X2883991Y-5410108D01*
X2883991Y-5410108D02*
X2893515Y-5419631D01*
X2893515Y-5419631D02*
X2903039Y-5438679D01*
X2903039Y-5438679D02*
X2903039Y-5457727D01*
X2903039Y-5457727D02*
X2893515Y-5486298D01*
X2893515Y-5486298D02*
X2779229Y-5600584D01*
X2779229Y-5600584D02*
X2903039Y-5600584D01*
X2988753Y-5581536D02*
X2998277Y-5591060D01*
X2998277Y-5591060D02*
X2988753Y-5600584D01*
X2988753Y-5600584D02*
X2979229Y-5591060D01*
X2979229Y-5591060D02*
X2988753Y-5581536D01*
X2988753Y-5581536D02*
X2988753Y-5600584D01*
X3179229Y-5400584D02*
X3083991Y-5400584D01*
X3083991Y-5400584D02*
X3074467Y-5495822D01*
X3074467Y-5495822D02*
X3083991Y-5486298D01*
X3083991Y-5486298D02*
X3103039Y-5476774D01*
X3103039Y-5476774D02*
X3150658Y-5476774D01*
X3150658Y-5476774D02*
X3169705Y-5486298D01*
X3169705Y-5486298D02*
X3179229Y-5495822D01*
X3179229Y-5495822D02*
X3188753Y-5514870D01*
X3188753Y-5514870D02*
X3188753Y-5562489D01*
X3188753Y-5562489D02*
X3179229Y-5581536D01*
X3179229Y-5581536D02*
X3169705Y-5591060D01*
X3169705Y-5591060D02*
X3150658Y-5600584D01*
X3150658Y-5600584D02*
X3103039Y-5600584D01*
X3103039Y-5600584D02*
X3083991Y-5591060D01*
X3083991Y-5591060D02*
X3074467Y-5581536D01*
X3360182Y-5467250D02*
X3360182Y-5600584D01*
X3312562Y-5391060D02*
X3264943Y-5533917D01*
X3264943Y-5533917D02*
X3388753Y-5533917D01*
X3503039Y-5400584D02*
X3522086Y-5400584D01*
X3522086Y-5400584D02*
X3541134Y-5410108D01*
X3541134Y-5410108D02*
X3550658Y-5419631D01*
X3550658Y-5419631D02*
X3560182Y-5438679D01*
X3560182Y-5438679D02*
X3569705Y-5476774D01*
X3569705Y-5476774D02*
X3569705Y-5524393D01*
X3569705Y-5524393D02*
X3560182Y-5562489D01*
X3560182Y-5562489D02*
X3550658Y-5581536D01*
X3550658Y-5581536D02*
X3541134Y-5591060D01*
X3541134Y-5591060D02*
X3522086Y-5600584D01*
X3522086Y-5600584D02*
X3503039Y-5600584D01*
X3503039Y-5600584D02*
X3483991Y-5591060D01*
X3483991Y-5591060D02*
X3474467Y-5581536D01*
X3474467Y-5581536D02*
X3464943Y-5562489D01*
X3464943Y-5562489D02*
X3455420Y-5524393D01*
X3455420Y-5524393D02*
X3455420Y-5476774D01*
X3455420Y-5476774D02*
X3464943Y-5438679D01*
X3464943Y-5438679D02*
X3474467Y-5419631D01*
X3474467Y-5419631D02*
X3483991Y-5410108D01*
X3483991Y-5410108D02*
X3503039Y-5400584D01*
X3655420Y-5600584D02*
X3655420Y-5467250D01*
X3655420Y-5486298D02*
X3664943Y-5476774D01*
X3664943Y-5476774D02*
X3683991Y-5467250D01*
X3683991Y-5467250D02*
X3712563Y-5467250D01*
X3712563Y-5467250D02*
X3731610Y-5476774D01*
X3731610Y-5476774D02*
X3741134Y-5495822D01*
X3741134Y-5495822D02*
X3741134Y-5600584D01*
X3741134Y-5495822D02*
X3750658Y-5476774D01*
X3750658Y-5476774D02*
X3769705Y-5467250D01*
X3769705Y-5467250D02*
X3798277Y-5467250D01*
X3798277Y-5467250D02*
X3817324Y-5476774D01*
X3817324Y-5476774D02*
X3826848Y-5495822D01*
X3826848Y-5495822D02*
X3826848Y-5600584D01*
X3922086Y-5600584D02*
X3922086Y-5467250D01*
X3922086Y-5486298D02*
X3931610Y-5476774D01*
X3931610Y-5476774D02*
X3950658Y-5467250D01*
X3950658Y-5467250D02*
X3979229Y-5467250D01*
X3979229Y-5467250D02*
X3998277Y-5476774D01*
X3998277Y-5476774D02*
X4007801Y-5495822D01*
X4007801Y-5495822D02*
X4007801Y-5600584D01*
X4007801Y-5495822D02*
X4017324Y-5476774D01*
X4017324Y-5476774D02*
X4036372Y-5467250D01*
X4036372Y-5467250D02*
X4064943Y-5467250D01*
X4064943Y-5467250D02*
X4083991Y-5476774D01*
X4083991Y-5476774D02*
X4093515Y-5495822D01*
X4093515Y-5495822D02*
X4093515Y-5600584D01*
X4483991Y-5391060D02*
X4312563Y-5648203D01*
X4741134Y-5400584D02*
X4760182Y-5400584D01*
X4760182Y-5400584D02*
X4779229Y-5410108D01*
X4779229Y-5410108D02*
X4788753Y-5419631D01*
X4788753Y-5419631D02*
X4798277Y-5438679D01*
X4798277Y-5438679D02*
X4807801Y-5476774D01*
X4807801Y-5476774D02*
X4807801Y-5524393D01*
X4807801Y-5524393D02*
X4798277Y-5562489D01*
X4798277Y-5562489D02*
X4788753Y-5581536D01*
X4788753Y-5581536D02*
X4779229Y-5591060D01*
X4779229Y-5591060D02*
X4760182Y-5600584D01*
X4760182Y-5600584D02*
X4741134Y-5600584D01*
X4741134Y-5600584D02*
X4722087Y-5591060D01*
X4722087Y-5591060D02*
X4712563Y-5581536D01*
X4712563Y-5581536D02*
X4703039Y-5562489D01*
X4703039Y-5562489D02*
X4693515Y-5524393D01*
X4693515Y-5524393D02*
X4693515Y-5476774D01*
X4693515Y-5476774D02*
X4703039Y-5438679D01*
X4703039Y-5438679D02*
X4712563Y-5419631D01*
X4712563Y-5419631D02*
X4722087Y-5410108D01*
X4722087Y-5410108D02*
X4741134Y-5400584D01*
X4893515Y-5581536D02*
X4903039Y-5591060D01*
X4903039Y-5591060D02*
X4893515Y-5600584D01*
X4893515Y-5600584D02*
X4883991Y-5591060D01*
X4883991Y-5591060D02*
X4893515Y-5581536D01*
X4893515Y-5581536D02*
X4893515Y-5600584D01*
X5093515Y-5600584D02*
X4979229Y-5600584D01*
X5036372Y-5600584D02*
X5036372Y-5400584D01*
X5036372Y-5400584D02*
X5017325Y-5429155D01*
X5017325Y-5429155D02*
X4998277Y-5448203D01*
X4998277Y-5448203D02*
X4979229Y-5457727D01*
X5217325Y-5400584D02*
X5236372Y-5400584D01*
X5236372Y-5400584D02*
X5255420Y-5410108D01*
X5255420Y-5410108D02*
X5264944Y-5419631D01*
X5264944Y-5419631D02*
X5274468Y-5438679D01*
X5274468Y-5438679D02*
X5283991Y-5476774D01*
X5283991Y-5476774D02*
X5283991Y-5524393D01*
X5283991Y-5524393D02*
X5274468Y-5562489D01*
X5274468Y-5562489D02*
X5264944Y-5581536D01*
X5264944Y-5581536D02*
X5255420Y-5591060D01*
X5255420Y-5591060D02*
X5236372Y-5600584D01*
X5236372Y-5600584D02*
X5217325Y-5600584D01*
X5217325Y-5600584D02*
X5198277Y-5591060D01*
X5198277Y-5591060D02*
X5188753Y-5581536D01*
X5188753Y-5581536D02*
X5179229Y-5562489D01*
X5179229Y-5562489D02*
X5169706Y-5524393D01*
X5169706Y-5524393D02*
X5169706Y-5476774D01*
X5169706Y-5476774D02*
X5179229Y-5438679D01*
X5179229Y-5438679D02*
X5188753Y-5419631D01*
X5188753Y-5419631D02*
X5198277Y-5410108D01*
X5198277Y-5410108D02*
X5217325Y-5400584D01*
X5407801Y-5400584D02*
X5426849Y-5400584D01*
X5426849Y-5400584D02*
X5445896Y-5410108D01*
X5445896Y-5410108D02*
X5455420Y-5419631D01*
X5455420Y-5419631D02*
X5464944Y-5438679D01*
X5464944Y-5438679D02*
X5474468Y-5476774D01*
X5474468Y-5476774D02*
X5474468Y-5524393D01*
X5474468Y-5524393D02*
X5464944Y-5562489D01*
X5464944Y-5562489D02*
X5455420Y-5581536D01*
X5455420Y-5581536D02*
X5445896Y-5591060D01*
X5445896Y-5591060D02*
X5426849Y-5600584D01*
X5426849Y-5600584D02*
X5407801Y-5600584D01*
X5407801Y-5600584D02*
X5388753Y-5591060D01*
X5388753Y-5591060D02*
X5379229Y-5581536D01*
X5379229Y-5581536D02*
X5369706Y-5562489D01*
X5369706Y-5562489D02*
X5360182Y-5524393D01*
X5360182Y-5524393D02*
X5360182Y-5476774D01*
X5360182Y-5476774D02*
X5369706Y-5438679D01*
X5369706Y-5438679D02*
X5379229Y-5419631D01*
X5379229Y-5419631D02*
X5388753Y-5410108D01*
X5388753Y-5410108D02*
X5407801Y-5400584D01*
X5598277Y-5400584D02*
X5617325Y-5400584D01*
X5617325Y-5400584D02*
X5636372Y-5410108D01*
X5636372Y-5410108D02*
X5645896Y-5419631D01*
X5645896Y-5419631D02*
X5655420Y-5438679D01*
X5655420Y-5438679D02*
X5664944Y-5476774D01*
X5664944Y-5476774D02*
X5664944Y-5524393D01*
X5664944Y-5524393D02*
X5655420Y-5562489D01*
X5655420Y-5562489D02*
X5645896Y-5581536D01*
X5645896Y-5581536D02*
X5636372Y-5591060D01*
X5636372Y-5591060D02*
X5617325Y-5600584D01*
X5617325Y-5600584D02*
X5598277Y-5600584D01*
X5598277Y-5600584D02*
X5579229Y-5591060D01*
X5579229Y-5591060D02*
X5569706Y-5581536D01*
X5569706Y-5581536D02*
X5560182Y-5562489D01*
X5560182Y-5562489D02*
X5550658Y-5524393D01*
X5550658Y-5524393D02*
X5550658Y-5476774D01*
X5550658Y-5476774D02*
X5560182Y-5438679D01*
X5560182Y-5438679D02*
X5569706Y-5419631D01*
X5569706Y-5419631D02*
X5579229Y-5410108D01*
X5579229Y-5410108D02*
X5598277Y-5400584D01*
X5741134Y-5400584D02*
X5741134Y-5438679D01*
X5817325Y-5400584D02*
X5817325Y-5438679D01*
X6112563Y-5676774D02*
X6103039Y-5667250D01*
X6103039Y-5667250D02*
X6083991Y-5638679D01*
X6083991Y-5638679D02*
X6074468Y-5619631D01*
X6074468Y-5619631D02*
X6064944Y-5591060D01*
X6064944Y-5591060D02*
X6055420Y-5543441D01*
X6055420Y-5543441D02*
X6055420Y-5505346D01*
X6055420Y-5505346D02*
X6064944Y-5457727D01*
X6064944Y-5457727D02*
X6074468Y-5429155D01*
X6074468Y-5429155D02*
X6083991Y-5410108D01*
X6083991Y-5410108D02*
X6103039Y-5381536D01*
X6103039Y-5381536D02*
X6112563Y-5372012D01*
X6179229Y-5419631D02*
X6188753Y-5410108D01*
X6188753Y-5410108D02*
X6207801Y-5400584D01*
X6207801Y-5400584D02*
X6255420Y-5400584D01*
X6255420Y-5400584D02*
X6274468Y-5410108D01*
X6274468Y-5410108D02*
X6283991Y-5419631D01*
X6283991Y-5419631D02*
X6293515Y-5438679D01*
X6293515Y-5438679D02*
X6293515Y-5457727D01*
X6293515Y-5457727D02*
X6283991Y-5486298D01*
X6283991Y-5486298D02*
X6169706Y-5600584D01*
X6169706Y-5600584D02*
X6293515Y-5600584D01*
X6531610Y-5600584D02*
X6531610Y-5400584D01*
X6617325Y-5600584D02*
X6617325Y-5495822D01*
X6617325Y-5495822D02*
X6607801Y-5476774D01*
X6607801Y-5476774D02*
X6588753Y-5467250D01*
X6588753Y-5467250D02*
X6560182Y-5467250D01*
X6560182Y-5467250D02*
X6541134Y-5476774D01*
X6541134Y-5476774D02*
X6531610Y-5486298D01*
X6741134Y-5600584D02*
X6722087Y-5591060D01*
X6722087Y-5591060D02*
X6712563Y-5581536D01*
X6712563Y-5581536D02*
X6703039Y-5562489D01*
X6703039Y-5562489D02*
X6703039Y-5505346D01*
X6703039Y-5505346D02*
X6712563Y-5486298D01*
X6712563Y-5486298D02*
X6722087Y-5476774D01*
X6722087Y-5476774D02*
X6741134Y-5467250D01*
X6741134Y-5467250D02*
X6769706Y-5467250D01*
X6769706Y-5467250D02*
X6788753Y-5476774D01*
X6788753Y-5476774D02*
X6798277Y-5486298D01*
X6798277Y-5486298D02*
X6807801Y-5505346D01*
X6807801Y-5505346D02*
X6807801Y-5562489D01*
X6807801Y-5562489D02*
X6798277Y-5581536D01*
X6798277Y-5581536D02*
X6788753Y-5591060D01*
X6788753Y-5591060D02*
X6769706Y-5600584D01*
X6769706Y-5600584D02*
X6741134Y-5600584D01*
X6922087Y-5600584D02*
X6903039Y-5591060D01*
X6903039Y-5591060D02*
X6893515Y-5572012D01*
X6893515Y-5572012D02*
X6893515Y-5400584D01*
X7074468Y-5591060D02*
X7055420Y-5600584D01*
X7055420Y-5600584D02*
X7017325Y-5600584D01*
X7017325Y-5600584D02*
X6998277Y-5591060D01*
X6998277Y-5591060D02*
X6988753Y-5572012D01*
X6988753Y-5572012D02*
X6988753Y-5495822D01*
X6988753Y-5495822D02*
X6998277Y-5476774D01*
X6998277Y-5476774D02*
X7017325Y-5467250D01*
X7017325Y-5467250D02*
X7055420Y-5467250D01*
X7055420Y-5467250D02*
X7074468Y-5476774D01*
X7074468Y-5476774D02*
X7083991Y-5495822D01*
X7083991Y-5495822D02*
X7083991Y-5514870D01*
X7083991Y-5514870D02*
X6988753Y-5533917D01*
X7160182Y-5591060D02*
X7179230Y-5600584D01*
X7179230Y-5600584D02*
X7217325Y-5600584D01*
X7217325Y-5600584D02*
X7236372Y-5591060D01*
X7236372Y-5591060D02*
X7245896Y-5572012D01*
X7245896Y-5572012D02*
X7245896Y-5562489D01*
X7245896Y-5562489D02*
X7236372Y-5543441D01*
X7236372Y-5543441D02*
X7217325Y-5533917D01*
X7217325Y-5533917D02*
X7188753Y-5533917D01*
X7188753Y-5533917D02*
X7169706Y-5524393D01*
X7169706Y-5524393D02*
X7160182Y-5505346D01*
X7160182Y-5505346D02*
X7160182Y-5495822D01*
X7160182Y-5495822D02*
X7169706Y-5476774D01*
X7169706Y-5476774D02*
X7188753Y-5467250D01*
X7188753Y-5467250D02*
X7217325Y-5467250D01*
X7217325Y-5467250D02*
X7236372Y-5476774D01*
X7312563Y-5676774D02*
X7322087Y-5667250D01*
X7322087Y-5667250D02*
X7341134Y-5638679D01*
X7341134Y-5638679D02*
X7350658Y-5619631D01*
X7350658Y-5619631D02*
X7360182Y-5591060D01*
X7360182Y-5591060D02*
X7369706Y-5543441D01*
X7369706Y-5543441D02*
X7369706Y-5505346D01*
X7369706Y-5505346D02*
X7360182Y-5457727D01*
X7360182Y-5457727D02*
X7350658Y-5429155D01*
X7350658Y-5429155D02*
X7341134Y-5410108D01*
X7341134Y-5410108D02*
X7322087Y-5381536D01*
X7322087Y-5381536D02*
X7312563Y-5372012D01*
X7674468Y-5676774D02*
X7664944Y-5667250D01*
X7664944Y-5667250D02*
X7645896Y-5638679D01*
X7645896Y-5638679D02*
X7636372Y-5619631D01*
X7636372Y-5619631D02*
X7626849Y-5591060D01*
X7626849Y-5591060D02*
X7617325Y-5543441D01*
X7617325Y-5543441D02*
X7617325Y-5505346D01*
X7617325Y-5505346D02*
X7626849Y-5457727D01*
X7626849Y-5457727D02*
X7636372Y-5429155D01*
X7636372Y-5429155D02*
X7645896Y-5410108D01*
X7645896Y-5410108D02*
X7664944Y-5381536D01*
X7664944Y-5381536D02*
X7674468Y-5372012D01*
X7750658Y-5467250D02*
X7750658Y-5600584D01*
X7750658Y-5486298D02*
X7760182Y-5476774D01*
X7760182Y-5476774D02*
X7779230Y-5467250D01*
X7779230Y-5467250D02*
X7807801Y-5467250D01*
X7807801Y-5467250D02*
X7826849Y-5476774D01*
X7826849Y-5476774D02*
X7836372Y-5495822D01*
X7836372Y-5495822D02*
X7836372Y-5600584D01*
X7960182Y-5600584D02*
X7941134Y-5591060D01*
X7941134Y-5591060D02*
X7931611Y-5581536D01*
X7931611Y-5581536D02*
X7922087Y-5562489D01*
X7922087Y-5562489D02*
X7922087Y-5505346D01*
X7922087Y-5505346D02*
X7931611Y-5486298D01*
X7931611Y-5486298D02*
X7941134Y-5476774D01*
X7941134Y-5476774D02*
X7960182Y-5467250D01*
X7960182Y-5467250D02*
X7988753Y-5467250D01*
X7988753Y-5467250D02*
X8007801Y-5476774D01*
X8007801Y-5476774D02*
X8017325Y-5486298D01*
X8017325Y-5486298D02*
X8026849Y-5505346D01*
X8026849Y-5505346D02*
X8026849Y-5562489D01*
X8026849Y-5562489D02*
X8017325Y-5581536D01*
X8017325Y-5581536D02*
X8007801Y-5591060D01*
X8007801Y-5591060D02*
X7988753Y-5600584D01*
X7988753Y-5600584D02*
X7960182Y-5600584D01*
X8083992Y-5467250D02*
X8160182Y-5467250D01*
X8112563Y-5400584D02*
X8112563Y-5572012D01*
X8112563Y-5572012D02*
X8122087Y-5591060D01*
X8122087Y-5591060D02*
X8141134Y-5600584D01*
X8141134Y-5600584D02*
X8160182Y-5600584D01*
X8379230Y-5467250D02*
X8379230Y-5667250D01*
X8379230Y-5476774D02*
X8398277Y-5467250D01*
X8398277Y-5467250D02*
X8436373Y-5467250D01*
X8436373Y-5467250D02*
X8455420Y-5476774D01*
X8455420Y-5476774D02*
X8464944Y-5486298D01*
X8464944Y-5486298D02*
X8474468Y-5505346D01*
X8474468Y-5505346D02*
X8474468Y-5562489D01*
X8474468Y-5562489D02*
X8464944Y-5581536D01*
X8464944Y-5581536D02*
X8455420Y-5591060D01*
X8455420Y-5591060D02*
X8436373Y-5600584D01*
X8436373Y-5600584D02*
X8398277Y-5600584D01*
X8398277Y-5600584D02*
X8379230Y-5591060D01*
X8588754Y-5600584D02*
X8569706Y-5591060D01*
X8569706Y-5591060D02*
X8560182Y-5572012D01*
X8560182Y-5572012D02*
X8560182Y-5400584D01*
X8750658Y-5600584D02*
X8750658Y-5495822D01*
X8750658Y-5495822D02*
X8741135Y-5476774D01*
X8741135Y-5476774D02*
X8722087Y-5467250D01*
X8722087Y-5467250D02*
X8683992Y-5467250D01*
X8683992Y-5467250D02*
X8664944Y-5476774D01*
X8750658Y-5591060D02*
X8731611Y-5600584D01*
X8731611Y-5600584D02*
X8683992Y-5600584D01*
X8683992Y-5600584D02*
X8664944Y-5591060D01*
X8664944Y-5591060D02*
X8655420Y-5572012D01*
X8655420Y-5572012D02*
X8655420Y-5552965D01*
X8655420Y-5552965D02*
X8664944Y-5533917D01*
X8664944Y-5533917D02*
X8683992Y-5524393D01*
X8683992Y-5524393D02*
X8731611Y-5524393D01*
X8731611Y-5524393D02*
X8750658Y-5514870D01*
X8817325Y-5467250D02*
X8893515Y-5467250D01*
X8845896Y-5400584D02*
X8845896Y-5572012D01*
X8845896Y-5572012D02*
X8855420Y-5591060D01*
X8855420Y-5591060D02*
X8874468Y-5600584D01*
X8874468Y-5600584D02*
X8893515Y-5600584D01*
X9036373Y-5591060D02*
X9017325Y-5600584D01*
X9017325Y-5600584D02*
X8979230Y-5600584D01*
X8979230Y-5600584D02*
X8960182Y-5591060D01*
X8960182Y-5591060D02*
X8950658Y-5572012D01*
X8950658Y-5572012D02*
X8950658Y-5495822D01*
X8950658Y-5495822D02*
X8960182Y-5476774D01*
X8960182Y-5476774D02*
X8979230Y-5467250D01*
X8979230Y-5467250D02*
X9017325Y-5467250D01*
X9017325Y-5467250D02*
X9036373Y-5476774D01*
X9036373Y-5476774D02*
X9045896Y-5495822D01*
X9045896Y-5495822D02*
X9045896Y-5514870D01*
X9045896Y-5514870D02*
X8950658Y-5533917D01*
X9217325Y-5600584D02*
X9217325Y-5400584D01*
X9217325Y-5591060D02*
X9198277Y-5600584D01*
X9198277Y-5600584D02*
X9160182Y-5600584D01*
X9160182Y-5600584D02*
X9141135Y-5591060D01*
X9141135Y-5591060D02*
X9131611Y-5581536D01*
X9131611Y-5581536D02*
X9122087Y-5562489D01*
X9122087Y-5562489D02*
X9122087Y-5505346D01*
X9122087Y-5505346D02*
X9131611Y-5486298D01*
X9131611Y-5486298D02*
X9141135Y-5476774D01*
X9141135Y-5476774D02*
X9160182Y-5467250D01*
X9160182Y-5467250D02*
X9198277Y-5467250D01*
X9198277Y-5467250D02*
X9217325Y-5476774D01*
X9293516Y-5676774D02*
X9303039Y-5667250D01*
X9303039Y-5667250D02*
X9322087Y-5638679D01*
X9322087Y-5638679D02*
X9331611Y-5619631D01*
X9331611Y-5619631D02*
X9341135Y-5591060D01*
X9341135Y-5591060D02*
X9350658Y-5543441D01*
X9350658Y-5543441D02*
X9350658Y-5505346D01*
X9350658Y-5505346D02*
X9341135Y-5457727D01*
X9341135Y-5457727D02*
X9331611Y-5429155D01*
X9331611Y-5429155D02*
X9322087Y-5410108D01*
X9322087Y-5410108D02*
X9303039Y-5381536D01*
X9303039Y-5381536D02*
X9293516Y-5372012D01*
M02*
