%TF.GenerationSoftware,KiCad,Pcbnew,8.0.9*%
%TF.CreationDate,2025-05-08T22:04:52-05:00*%
%TF.ProjectId,SPD_Demon,5350445f-4465-46d6-9f6e-2e6b69636164,rev?*%
%TF.SameCoordinates,Original*%
%TF.FileFunction,Legend,Bot*%
%TF.FilePolarity,Positive*%
%FSLAX46Y46*%
G04 Gerber Fmt 4.6, Leading zero omitted, Abs format (unit mm)*
G04 Created by KiCad (PCBNEW 8.0.9) date 2025-05-08 22:04:52*
%MOMM*%
%LPD*%
G01*
G04 APERTURE LIST*
%ADD10C,0.200000*%
%ADD11C,0.000000*%
G04 APERTURE END LIST*
D10*
X169175422Y-27000028D02*
X169175422Y-28214314D01*
X169175422Y-28214314D02*
X169246850Y-28357171D01*
X169246850Y-28357171D02*
X169318279Y-28428600D01*
X169318279Y-28428600D02*
X169461136Y-28500028D01*
X169461136Y-28500028D02*
X169675422Y-28500028D01*
X169675422Y-28500028D02*
X169818279Y-28428600D01*
X169175422Y-27928600D02*
X169318279Y-28000028D01*
X169318279Y-28000028D02*
X169603993Y-28000028D01*
X169603993Y-28000028D02*
X169746850Y-27928600D01*
X169746850Y-27928600D02*
X169818279Y-27857171D01*
X169818279Y-27857171D02*
X169889707Y-27714314D01*
X169889707Y-27714314D02*
X169889707Y-27285742D01*
X169889707Y-27285742D02*
X169818279Y-27142885D01*
X169818279Y-27142885D02*
X169746850Y-27071457D01*
X169746850Y-27071457D02*
X169603993Y-27000028D01*
X169603993Y-27000028D02*
X169318279Y-27000028D01*
X169318279Y-27000028D02*
X169175422Y-27071457D01*
X168461136Y-28000028D02*
X168461136Y-27000028D01*
X168461136Y-26500028D02*
X168532564Y-26571457D01*
X168532564Y-26571457D02*
X168461136Y-26642885D01*
X168461136Y-26642885D02*
X168389707Y-26571457D01*
X168389707Y-26571457D02*
X168461136Y-26500028D01*
X168461136Y-26500028D02*
X168461136Y-26642885D01*
X167961135Y-27000028D02*
X167389707Y-27000028D01*
X167746850Y-26500028D02*
X167746850Y-27785742D01*
X167746850Y-27785742D02*
X167675421Y-27928600D01*
X167675421Y-27928600D02*
X167532564Y-28000028D01*
X167532564Y-28000028D02*
X167389707Y-28000028D01*
X166889707Y-28000028D02*
X166889707Y-26500028D01*
X166246850Y-28000028D02*
X166246850Y-27214314D01*
X166246850Y-27214314D02*
X166318278Y-27071457D01*
X166318278Y-27071457D02*
X166461135Y-27000028D01*
X166461135Y-27000028D02*
X166675421Y-27000028D01*
X166675421Y-27000028D02*
X166818278Y-27071457D01*
X166818278Y-27071457D02*
X166889707Y-27142885D01*
X164889707Y-27000028D02*
X164889707Y-28000028D01*
X165532564Y-27000028D02*
X165532564Y-27785742D01*
X165532564Y-27785742D02*
X165461135Y-27928600D01*
X165461135Y-27928600D02*
X165318278Y-28000028D01*
X165318278Y-28000028D02*
X165103992Y-28000028D01*
X165103992Y-28000028D02*
X164961135Y-27928600D01*
X164961135Y-27928600D02*
X164889707Y-27857171D01*
X164175421Y-28000028D02*
X164175421Y-26500028D01*
X164175421Y-27071457D02*
X164032564Y-27000028D01*
X164032564Y-27000028D02*
X163746849Y-27000028D01*
X163746849Y-27000028D02*
X163603992Y-27071457D01*
X163603992Y-27071457D02*
X163532564Y-27142885D01*
X163532564Y-27142885D02*
X163461135Y-27285742D01*
X163461135Y-27285742D02*
X163461135Y-27714314D01*
X163461135Y-27714314D02*
X163532564Y-27857171D01*
X163532564Y-27857171D02*
X163603992Y-27928600D01*
X163603992Y-27928600D02*
X163746849Y-28000028D01*
X163746849Y-28000028D02*
X164032564Y-28000028D01*
X164032564Y-28000028D02*
X164175421Y-27928600D01*
X162818278Y-27857171D02*
X162746849Y-27928600D01*
X162746849Y-27928600D02*
X162818278Y-28000028D01*
X162818278Y-28000028D02*
X162889706Y-27928600D01*
X162889706Y-27928600D02*
X162818278Y-27857171D01*
X162818278Y-27857171D02*
X162818278Y-28000028D01*
X161461135Y-27928600D02*
X161603992Y-28000028D01*
X161603992Y-28000028D02*
X161889706Y-28000028D01*
X161889706Y-28000028D02*
X162032563Y-27928600D01*
X162032563Y-27928600D02*
X162103992Y-27857171D01*
X162103992Y-27857171D02*
X162175420Y-27714314D01*
X162175420Y-27714314D02*
X162175420Y-27285742D01*
X162175420Y-27285742D02*
X162103992Y-27142885D01*
X162103992Y-27142885D02*
X162032563Y-27071457D01*
X162032563Y-27071457D02*
X161889706Y-27000028D01*
X161889706Y-27000028D02*
X161603992Y-27000028D01*
X161603992Y-27000028D02*
X161461135Y-27071457D01*
X160603992Y-28000028D02*
X160746849Y-27928600D01*
X160746849Y-27928600D02*
X160818278Y-27857171D01*
X160818278Y-27857171D02*
X160889706Y-27714314D01*
X160889706Y-27714314D02*
X160889706Y-27285742D01*
X160889706Y-27285742D02*
X160818278Y-27142885D01*
X160818278Y-27142885D02*
X160746849Y-27071457D01*
X160746849Y-27071457D02*
X160603992Y-27000028D01*
X160603992Y-27000028D02*
X160389706Y-27000028D01*
X160389706Y-27000028D02*
X160246849Y-27071457D01*
X160246849Y-27071457D02*
X160175421Y-27142885D01*
X160175421Y-27142885D02*
X160103992Y-27285742D01*
X160103992Y-27285742D02*
X160103992Y-27714314D01*
X160103992Y-27714314D02*
X160175421Y-27857171D01*
X160175421Y-27857171D02*
X160246849Y-27928600D01*
X160246849Y-27928600D02*
X160389706Y-28000028D01*
X160389706Y-28000028D02*
X160603992Y-28000028D01*
X159461135Y-28000028D02*
X159461135Y-27000028D01*
X159461135Y-27142885D02*
X159389706Y-27071457D01*
X159389706Y-27071457D02*
X159246849Y-27000028D01*
X159246849Y-27000028D02*
X159032563Y-27000028D01*
X159032563Y-27000028D02*
X158889706Y-27071457D01*
X158889706Y-27071457D02*
X158818278Y-27214314D01*
X158818278Y-27214314D02*
X158818278Y-28000028D01*
X158818278Y-27214314D02*
X158746849Y-27071457D01*
X158746849Y-27071457D02*
X158603992Y-27000028D01*
X158603992Y-27000028D02*
X158389706Y-27000028D01*
X158389706Y-27000028D02*
X158246849Y-27071457D01*
X158246849Y-27071457D02*
X158175420Y-27214314D01*
X158175420Y-27214314D02*
X158175420Y-28000028D01*
X156389706Y-26428600D02*
X157675420Y-28357171D01*
X156103991Y-27000028D02*
X155532563Y-27000028D01*
X155889706Y-26500028D02*
X155889706Y-27785742D01*
X155889706Y-27785742D02*
X155818277Y-27928600D01*
X155818277Y-27928600D02*
X155675420Y-28000028D01*
X155675420Y-28000028D02*
X155532563Y-28000028D01*
X154818277Y-28000028D02*
X154961134Y-27928600D01*
X154961134Y-27928600D02*
X155032563Y-27857171D01*
X155032563Y-27857171D02*
X155103991Y-27714314D01*
X155103991Y-27714314D02*
X155103991Y-27285742D01*
X155103991Y-27285742D02*
X155032563Y-27142885D01*
X155032563Y-27142885D02*
X154961134Y-27071457D01*
X154961134Y-27071457D02*
X154818277Y-27000028D01*
X154818277Y-27000028D02*
X154603991Y-27000028D01*
X154603991Y-27000028D02*
X154461134Y-27071457D01*
X154461134Y-27071457D02*
X154389706Y-27142885D01*
X154389706Y-27142885D02*
X154318277Y-27285742D01*
X154318277Y-27285742D02*
X154318277Y-27714314D01*
X154318277Y-27714314D02*
X154389706Y-27857171D01*
X154389706Y-27857171D02*
X154461134Y-27928600D01*
X154461134Y-27928600D02*
X154603991Y-28000028D01*
X154603991Y-28000028D02*
X154818277Y-28000028D01*
X153889705Y-27000028D02*
X153318277Y-27000028D01*
X153675420Y-26500028D02*
X153675420Y-27785742D01*
X153675420Y-27785742D02*
X153603991Y-27928600D01*
X153603991Y-27928600D02*
X153461134Y-28000028D01*
X153461134Y-28000028D02*
X153318277Y-28000028D01*
X152175420Y-28000028D02*
X152175420Y-27214314D01*
X152175420Y-27214314D02*
X152246848Y-27071457D01*
X152246848Y-27071457D02*
X152389705Y-27000028D01*
X152389705Y-27000028D02*
X152675420Y-27000028D01*
X152675420Y-27000028D02*
X152818277Y-27071457D01*
X152175420Y-27928600D02*
X152318277Y-28000028D01*
X152318277Y-28000028D02*
X152675420Y-28000028D01*
X152675420Y-28000028D02*
X152818277Y-27928600D01*
X152818277Y-27928600D02*
X152889705Y-27785742D01*
X152889705Y-27785742D02*
X152889705Y-27642885D01*
X152889705Y-27642885D02*
X152818277Y-27500028D01*
X152818277Y-27500028D02*
X152675420Y-27428600D01*
X152675420Y-27428600D02*
X152318277Y-27428600D01*
X152318277Y-27428600D02*
X152175420Y-27357171D01*
X151246848Y-28000028D02*
X151389705Y-27928600D01*
X151389705Y-27928600D02*
X151461134Y-27785742D01*
X151461134Y-27785742D02*
X151461134Y-26500028D01*
X150461134Y-28000028D02*
X150603991Y-27928600D01*
X150603991Y-27928600D02*
X150675420Y-27785742D01*
X150675420Y-27785742D02*
X150675420Y-26500028D01*
X150032563Y-27000028D02*
X149675420Y-28000028D01*
X149318277Y-27000028D02*
X149675420Y-28000028D01*
X149675420Y-28000028D02*
X149818277Y-28357171D01*
X149818277Y-28357171D02*
X149889706Y-28428600D01*
X149889706Y-28428600D02*
X150032563Y-28500028D01*
X148532563Y-28000028D02*
X148675420Y-27928600D01*
X148675420Y-27928600D02*
X148746849Y-27857171D01*
X148746849Y-27857171D02*
X148818277Y-27714314D01*
X148818277Y-27714314D02*
X148818277Y-27285742D01*
X148818277Y-27285742D02*
X148746849Y-27142885D01*
X148746849Y-27142885D02*
X148675420Y-27071457D01*
X148675420Y-27071457D02*
X148532563Y-27000028D01*
X148532563Y-27000028D02*
X148318277Y-27000028D01*
X148318277Y-27000028D02*
X148175420Y-27071457D01*
X148175420Y-27071457D02*
X148103992Y-27142885D01*
X148103992Y-27142885D02*
X148032563Y-27285742D01*
X148032563Y-27285742D02*
X148032563Y-27714314D01*
X148032563Y-27714314D02*
X148103992Y-27857171D01*
X148103992Y-27857171D02*
X148175420Y-27928600D01*
X148175420Y-27928600D02*
X148318277Y-28000028D01*
X148318277Y-28000028D02*
X148532563Y-28000028D01*
X147389706Y-28000028D02*
X147389706Y-26500028D01*
X147389706Y-27071457D02*
X147246849Y-27000028D01*
X147246849Y-27000028D02*
X146961134Y-27000028D01*
X146961134Y-27000028D02*
X146818277Y-27071457D01*
X146818277Y-27071457D02*
X146746849Y-27142885D01*
X146746849Y-27142885D02*
X146675420Y-27285742D01*
X146675420Y-27285742D02*
X146675420Y-27714314D01*
X146675420Y-27714314D02*
X146746849Y-27857171D01*
X146746849Y-27857171D02*
X146818277Y-27928600D01*
X146818277Y-27928600D02*
X146961134Y-28000028D01*
X146961134Y-28000028D02*
X147246849Y-28000028D01*
X147246849Y-28000028D02*
X147389706Y-27928600D01*
X146103991Y-27928600D02*
X145961134Y-28000028D01*
X145961134Y-28000028D02*
X145675420Y-28000028D01*
X145675420Y-28000028D02*
X145532563Y-27928600D01*
X145532563Y-27928600D02*
X145461134Y-27785742D01*
X145461134Y-27785742D02*
X145461134Y-27714314D01*
X145461134Y-27714314D02*
X145532563Y-27571457D01*
X145532563Y-27571457D02*
X145675420Y-27500028D01*
X145675420Y-27500028D02*
X145889706Y-27500028D01*
X145889706Y-27500028D02*
X146032563Y-27428600D01*
X146032563Y-27428600D02*
X146103991Y-27285742D01*
X146103991Y-27285742D02*
X146103991Y-27214314D01*
X146103991Y-27214314D02*
X146032563Y-27071457D01*
X146032563Y-27071457D02*
X145889706Y-27000028D01*
X145889706Y-27000028D02*
X145675420Y-27000028D01*
X145675420Y-27000028D02*
X145532563Y-27071457D01*
X144603991Y-28000028D02*
X144746848Y-27928600D01*
X144746848Y-27928600D02*
X144818277Y-27857171D01*
X144818277Y-27857171D02*
X144889705Y-27714314D01*
X144889705Y-27714314D02*
X144889705Y-27285742D01*
X144889705Y-27285742D02*
X144818277Y-27142885D01*
X144818277Y-27142885D02*
X144746848Y-27071457D01*
X144746848Y-27071457D02*
X144603991Y-27000028D01*
X144603991Y-27000028D02*
X144389705Y-27000028D01*
X144389705Y-27000028D02*
X144246848Y-27071457D01*
X144246848Y-27071457D02*
X144175420Y-27142885D01*
X144175420Y-27142885D02*
X144103991Y-27285742D01*
X144103991Y-27285742D02*
X144103991Y-27714314D01*
X144103991Y-27714314D02*
X144175420Y-27857171D01*
X144175420Y-27857171D02*
X144246848Y-27928600D01*
X144246848Y-27928600D02*
X144389705Y-28000028D01*
X144389705Y-28000028D02*
X144603991Y-28000028D01*
X143246848Y-28000028D02*
X143389705Y-27928600D01*
X143389705Y-27928600D02*
X143461134Y-27785742D01*
X143461134Y-27785742D02*
X143461134Y-26500028D01*
X142103991Y-27928600D02*
X142246848Y-28000028D01*
X142246848Y-28000028D02*
X142532563Y-28000028D01*
X142532563Y-28000028D02*
X142675420Y-27928600D01*
X142675420Y-27928600D02*
X142746848Y-27785742D01*
X142746848Y-27785742D02*
X142746848Y-27214314D01*
X142746848Y-27214314D02*
X142675420Y-27071457D01*
X142675420Y-27071457D02*
X142532563Y-27000028D01*
X142532563Y-27000028D02*
X142246848Y-27000028D01*
X142246848Y-27000028D02*
X142103991Y-27071457D01*
X142103991Y-27071457D02*
X142032563Y-27214314D01*
X142032563Y-27214314D02*
X142032563Y-27357171D01*
X142032563Y-27357171D02*
X142746848Y-27500028D01*
X141603991Y-27000028D02*
X141032563Y-27000028D01*
X141389706Y-26500028D02*
X141389706Y-27785742D01*
X141389706Y-27785742D02*
X141318277Y-27928600D01*
X141318277Y-27928600D02*
X141175420Y-28000028D01*
X141175420Y-28000028D02*
X141032563Y-28000028D01*
X139961134Y-27928600D02*
X140103991Y-28000028D01*
X140103991Y-28000028D02*
X140389706Y-28000028D01*
X140389706Y-28000028D02*
X140532563Y-27928600D01*
X140532563Y-27928600D02*
X140603991Y-27785742D01*
X140603991Y-27785742D02*
X140603991Y-27214314D01*
X140603991Y-27214314D02*
X140532563Y-27071457D01*
X140532563Y-27071457D02*
X140389706Y-27000028D01*
X140389706Y-27000028D02*
X140103991Y-27000028D01*
X140103991Y-27000028D02*
X139961134Y-27071457D01*
X139961134Y-27071457D02*
X139889706Y-27214314D01*
X139889706Y-27214314D02*
X139889706Y-27357171D01*
X139889706Y-27357171D02*
X140603991Y-27500028D01*
X138175420Y-26428600D02*
X139461134Y-28357171D01*
X137746848Y-27928600D02*
X137532563Y-28000028D01*
X137532563Y-28000028D02*
X137175420Y-28000028D01*
X137175420Y-28000028D02*
X137032563Y-27928600D01*
X137032563Y-27928600D02*
X136961134Y-27857171D01*
X136961134Y-27857171D02*
X136889705Y-27714314D01*
X136889705Y-27714314D02*
X136889705Y-27571457D01*
X136889705Y-27571457D02*
X136961134Y-27428600D01*
X136961134Y-27428600D02*
X137032563Y-27357171D01*
X137032563Y-27357171D02*
X137175420Y-27285742D01*
X137175420Y-27285742D02*
X137461134Y-27214314D01*
X137461134Y-27214314D02*
X137603991Y-27142885D01*
X137603991Y-27142885D02*
X137675420Y-27071457D01*
X137675420Y-27071457D02*
X137746848Y-26928600D01*
X137746848Y-26928600D02*
X137746848Y-26785742D01*
X137746848Y-26785742D02*
X137675420Y-26642885D01*
X137675420Y-26642885D02*
X137603991Y-26571457D01*
X137603991Y-26571457D02*
X137461134Y-26500028D01*
X137461134Y-26500028D02*
X137103991Y-26500028D01*
X137103991Y-26500028D02*
X136889705Y-26571457D01*
X136246849Y-28000028D02*
X136246849Y-26500028D01*
X136246849Y-26500028D02*
X135675420Y-26500028D01*
X135675420Y-26500028D02*
X135532563Y-26571457D01*
X135532563Y-26571457D02*
X135461134Y-26642885D01*
X135461134Y-26642885D02*
X135389706Y-26785742D01*
X135389706Y-26785742D02*
X135389706Y-27000028D01*
X135389706Y-27000028D02*
X135461134Y-27142885D01*
X135461134Y-27142885D02*
X135532563Y-27214314D01*
X135532563Y-27214314D02*
X135675420Y-27285742D01*
X135675420Y-27285742D02*
X136246849Y-27285742D01*
X134746849Y-28000028D02*
X134746849Y-26500028D01*
X134746849Y-26500028D02*
X134389706Y-26500028D01*
X134389706Y-26500028D02*
X134175420Y-26571457D01*
X134175420Y-26571457D02*
X134032563Y-26714314D01*
X134032563Y-26714314D02*
X133961134Y-26857171D01*
X133961134Y-26857171D02*
X133889706Y-27142885D01*
X133889706Y-27142885D02*
X133889706Y-27357171D01*
X133889706Y-27357171D02*
X133961134Y-27642885D01*
X133961134Y-27642885D02*
X134032563Y-27785742D01*
X134032563Y-27785742D02*
X134175420Y-27928600D01*
X134175420Y-27928600D02*
X134389706Y-28000028D01*
X134389706Y-28000028D02*
X134746849Y-28000028D01*
X133603992Y-28142885D02*
X132461134Y-28142885D01*
X132103992Y-28000028D02*
X132103992Y-26500028D01*
X132103992Y-26500028D02*
X131746849Y-26500028D01*
X131746849Y-26500028D02*
X131532563Y-26571457D01*
X131532563Y-26571457D02*
X131389706Y-26714314D01*
X131389706Y-26714314D02*
X131318277Y-26857171D01*
X131318277Y-26857171D02*
X131246849Y-27142885D01*
X131246849Y-27142885D02*
X131246849Y-27357171D01*
X131246849Y-27357171D02*
X131318277Y-27642885D01*
X131318277Y-27642885D02*
X131389706Y-27785742D01*
X131389706Y-27785742D02*
X131532563Y-27928600D01*
X131532563Y-27928600D02*
X131746849Y-28000028D01*
X131746849Y-28000028D02*
X132103992Y-28000028D01*
X130032563Y-27928600D02*
X130175420Y-28000028D01*
X130175420Y-28000028D02*
X130461135Y-28000028D01*
X130461135Y-28000028D02*
X130603992Y-27928600D01*
X130603992Y-27928600D02*
X130675420Y-27785742D01*
X130675420Y-27785742D02*
X130675420Y-27214314D01*
X130675420Y-27214314D02*
X130603992Y-27071457D01*
X130603992Y-27071457D02*
X130461135Y-27000028D01*
X130461135Y-27000028D02*
X130175420Y-27000028D01*
X130175420Y-27000028D02*
X130032563Y-27071457D01*
X130032563Y-27071457D02*
X129961135Y-27214314D01*
X129961135Y-27214314D02*
X129961135Y-27357171D01*
X129961135Y-27357171D02*
X130675420Y-27500028D01*
X129318278Y-28000028D02*
X129318278Y-27000028D01*
X129318278Y-27142885D02*
X129246849Y-27071457D01*
X129246849Y-27071457D02*
X129103992Y-27000028D01*
X129103992Y-27000028D02*
X128889706Y-27000028D01*
X128889706Y-27000028D02*
X128746849Y-27071457D01*
X128746849Y-27071457D02*
X128675421Y-27214314D01*
X128675421Y-27214314D02*
X128675421Y-28000028D01*
X128675421Y-27214314D02*
X128603992Y-27071457D01*
X128603992Y-27071457D02*
X128461135Y-27000028D01*
X128461135Y-27000028D02*
X128246849Y-27000028D01*
X128246849Y-27000028D02*
X128103992Y-27071457D01*
X128103992Y-27071457D02*
X128032563Y-27214314D01*
X128032563Y-27214314D02*
X128032563Y-28000028D01*
X127103992Y-28000028D02*
X127246849Y-27928600D01*
X127246849Y-27928600D02*
X127318278Y-27857171D01*
X127318278Y-27857171D02*
X127389706Y-27714314D01*
X127389706Y-27714314D02*
X127389706Y-27285742D01*
X127389706Y-27285742D02*
X127318278Y-27142885D01*
X127318278Y-27142885D02*
X127246849Y-27071457D01*
X127246849Y-27071457D02*
X127103992Y-27000028D01*
X127103992Y-27000028D02*
X126889706Y-27000028D01*
X126889706Y-27000028D02*
X126746849Y-27071457D01*
X126746849Y-27071457D02*
X126675421Y-27142885D01*
X126675421Y-27142885D02*
X126603992Y-27285742D01*
X126603992Y-27285742D02*
X126603992Y-27714314D01*
X126603992Y-27714314D02*
X126675421Y-27857171D01*
X126675421Y-27857171D02*
X126746849Y-27928600D01*
X126746849Y-27928600D02*
X126889706Y-28000028D01*
X126889706Y-28000028D02*
X127103992Y-28000028D01*
X125961135Y-27000028D02*
X125961135Y-28000028D01*
X125961135Y-27142885D02*
X125889706Y-27071457D01*
X125889706Y-27071457D02*
X125746849Y-27000028D01*
X125746849Y-27000028D02*
X125532563Y-27000028D01*
X125532563Y-27000028D02*
X125389706Y-27071457D01*
X125389706Y-27071457D02*
X125318278Y-27214314D01*
X125318278Y-27214314D02*
X125318278Y-28000028D01*
D11*
%TO.C,G\u002A\u002A\u002A*%
G36*
X30517503Y-39348546D02*
G01*
X30772918Y-39499153D01*
X31087218Y-39755177D01*
X31196674Y-39842489D01*
X31414725Y-39989847D01*
X31649458Y-40126555D01*
X31982865Y-40305068D01*
X32230901Y-40443931D01*
X32424269Y-40561959D01*
X32594581Y-40678452D01*
X32773451Y-40812707D01*
X32921568Y-40923650D01*
X33061556Y-41020350D01*
X33131276Y-41057566D01*
X33143019Y-41061171D01*
X33242098Y-41115055D01*
X33414230Y-41219871D01*
X33632172Y-41357975D01*
X33868680Y-41511724D01*
X34096511Y-41663472D01*
X34288422Y-41795575D01*
X34417171Y-41890390D01*
X34515998Y-42002928D01*
X34556133Y-42156558D01*
X34501978Y-42284809D01*
X34358329Y-42350213D01*
X34294733Y-42346753D01*
X34126191Y-42287402D01*
X33880719Y-42154472D01*
X33546687Y-41942115D01*
X33301169Y-41780976D01*
X33084197Y-41642658D01*
X32930107Y-41549053D01*
X32862077Y-41514635D01*
X32822998Y-41496257D01*
X32703912Y-41414539D01*
X32542408Y-41289580D01*
X32383936Y-41171540D01*
X32263260Y-41116285D01*
X32188330Y-41139400D01*
X32155139Y-41179973D01*
X32112479Y-41291249D01*
X32086503Y-41370063D01*
X32007215Y-41529485D01*
X31893216Y-41727664D01*
X31725418Y-42061146D01*
X31603122Y-42423666D01*
X31539827Y-42768678D01*
X31546703Y-43053442D01*
X31559564Y-43105467D01*
X31642521Y-43294470D01*
X31764757Y-43477109D01*
X31897265Y-43614908D01*
X32011041Y-43669391D01*
X32069119Y-43684515D01*
X32178624Y-43767335D01*
X32207440Y-43793056D01*
X32369664Y-43847564D01*
X32649554Y-43865278D01*
X32812645Y-43862284D01*
X32991834Y-43836502D01*
X33134895Y-43766630D01*
X33299920Y-43631815D01*
X33308083Y-43624577D01*
X33531201Y-43464680D01*
X33707481Y-43414463D01*
X33828358Y-43473770D01*
X33885268Y-43642447D01*
X33885646Y-43646369D01*
X33876704Y-43788006D01*
X33804019Y-43917449D01*
X33644251Y-44076753D01*
X33560889Y-44148869D01*
X33433318Y-44238811D01*
X33294734Y-44294100D01*
X33104763Y-44328441D01*
X32823035Y-44355539D01*
X32795689Y-44357763D01*
X32507785Y-44375312D01*
X32303754Y-44369717D01*
X32139929Y-44336685D01*
X31972646Y-44271922D01*
X31793173Y-44174822D01*
X31534254Y-43988566D01*
X31305483Y-43777439D01*
X31152450Y-43579907D01*
X31135926Y-43554082D01*
X31089780Y-43526822D01*
X31019492Y-43560960D01*
X30905313Y-43669826D01*
X30727499Y-43866748D01*
X30690246Y-43908293D01*
X30493072Y-44108261D01*
X30306373Y-44269517D01*
X30166173Y-44360381D01*
X30125539Y-44374491D01*
X29930091Y-44410559D01*
X29655273Y-44435406D01*
X29336246Y-44448679D01*
X29008172Y-44450022D01*
X28706212Y-44439084D01*
X28465528Y-44415509D01*
X28321281Y-44378944D01*
X28315334Y-44375770D01*
X28192730Y-44288192D01*
X28017239Y-44138901D01*
X27824771Y-43958319D01*
X27700329Y-43832123D01*
X27564109Y-43670829D01*
X27501372Y-43545886D01*
X27494042Y-43428330D01*
X27497856Y-43400315D01*
X27553283Y-43272962D01*
X27687910Y-43225198D01*
X27711949Y-43223385D01*
X27837105Y-43248563D01*
X27985066Y-43344093D01*
X28184004Y-43527122D01*
X28359990Y-43693172D01*
X28532121Y-43839039D01*
X28652010Y-43922343D01*
X28797867Y-43965601D01*
X29048558Y-43990965D01*
X29336248Y-43988875D01*
X29611005Y-43960060D01*
X29822895Y-43905249D01*
X29953041Y-43825912D01*
X30134614Y-43668049D01*
X30322804Y-43469436D01*
X30490631Y-43261258D01*
X30611114Y-43074696D01*
X30657270Y-42940934D01*
X30648445Y-42857479D01*
X30574046Y-42620378D01*
X30439467Y-42338842D01*
X30263556Y-42049538D01*
X30065162Y-41789134D01*
X30002261Y-41718193D01*
X29844818Y-41559737D01*
X29680573Y-41434541D01*
X29479454Y-41325224D01*
X29211389Y-41214407D01*
X28846306Y-41084711D01*
X28660227Y-41019011D01*
X28430162Y-40923808D01*
X28293097Y-40836738D01*
X28227009Y-40741827D01*
X28209875Y-40623100D01*
X28236498Y-40501297D01*
X28326746Y-40431512D01*
X28491243Y-40419587D01*
X28740588Y-40466461D01*
X29085381Y-40573068D01*
X29536219Y-40740347D01*
X29687536Y-40801199D01*
X29906497Y-40904808D01*
X30084564Y-41023124D01*
X30262520Y-41185546D01*
X30481149Y-41421470D01*
X30584520Y-41541377D01*
X30761089Y-41768004D01*
X30891933Y-41964976D01*
X30954365Y-42099774D01*
X30981341Y-42189318D01*
X31041923Y-42284121D01*
X31096546Y-42283102D01*
X31120291Y-42174969D01*
X31130766Y-42122203D01*
X31190121Y-41959889D01*
X31290192Y-41732912D01*
X31417527Y-41473041D01*
X31498855Y-41312125D01*
X31610158Y-41081888D01*
X31686643Y-40910441D01*
X31715184Y-40826310D01*
X31678900Y-40778618D01*
X31551142Y-40689272D01*
X31363002Y-40587583D01*
X31216204Y-40508831D01*
X30940313Y-40333404D01*
X30698048Y-40150010D01*
X30549226Y-40027175D01*
X30373551Y-39892785D01*
X30253037Y-39813061D01*
X30243058Y-39807585D01*
X30152520Y-39707852D01*
X30140777Y-39535104D01*
X30197714Y-39366932D01*
X30324568Y-39304194D01*
X30517503Y-39348546D01*
G37*
%TD*%
M02*
