%TF.GenerationSoftware,KiCad,Pcbnew,8.0.9*%
%TF.CreationDate,2025-05-08T22:04:52-05:00*%
%TF.ProjectId,SPD_Demon,5350445f-4465-46d6-9f6e-2e6b69636164,rev?*%
%TF.SameCoordinates,Original*%
%TF.FileFunction,Copper,L1,Top*%
%TF.FilePolarity,Positive*%
%FSLAX46Y46*%
G04 Gerber Fmt 4.6, Leading zero omitted, Abs format (unit mm)*
G04 Created by KiCad (PCBNEW 8.0.9) date 2025-05-08 22:04:52*
%MOMM*%
%LPD*%
G01*
G04 APERTURE LIST*
%TA.AperFunction,ComponentPad*%
%ADD10R,1.600000X2.400000*%
%TD*%
%TA.AperFunction,ComponentPad*%
%ADD11O,1.600000X2.400000*%
%TD*%
%TA.AperFunction,ComponentPad*%
%ADD12R,1.500000X1.500000*%
%TD*%
%TA.AperFunction,ComponentPad*%
%ADD13C,1.500000*%
%TD*%
%TA.AperFunction,ViaPad*%
%ADD14C,0.600000*%
%TD*%
%TA.AperFunction,Conductor*%
%ADD15C,0.200000*%
%TD*%
G04 APERTURE END LIST*
D10*
%TO.P,U2,1,A0*%
%TO.N,/A0*%
X74295000Y-42545000D03*
D11*
%TO.P,U2,2,A1*%
%TO.N,/A1*%
X76835000Y-42545000D03*
%TO.P,U2,3,A2*%
%TO.N,/A2*%
X79375000Y-42545000D03*
%TO.P,U2,4,GND*%
%TO.N,GND*%
X81915000Y-42545000D03*
%TO.P,U2,5,SDA*%
%TO.N,/SDA*%
X81915000Y-27305000D03*
%TO.P,U2,6,SCL*%
%TO.N,/SCL*%
X79375000Y-27305000D03*
%TO.P,U2,7,WP*%
%TO.N,/WP*%
X76835000Y-27305000D03*
%TO.P,U2,8,VCC*%
%TO.N,+3.3V_U2*%
X74295000Y-27305000D03*
%TD*%
D12*
%TO.P,J1,1,Pin_1*%
%TO.N,GND*%
X40640000Y-35800000D03*
D13*
%TO.P,J1,2,Pin_2*%
%TO.N,unconnected-(J1-Pin_2-Pad2)*%
X41910000Y-37690000D03*
%TO.P,J1,3,Pin_3*%
%TO.N,unconnected-(J1-Pin_3-Pad3)*%
X43180000Y-35790000D03*
%TO.P,J1,4,Pin_4*%
%TO.N,unconnected-(J1-Pin_4-Pad4)*%
X44450000Y-37690000D03*
%TO.P,J1,5,Pin_5*%
%TO.N,unconnected-(J1-Pin_5-Pad5)*%
X45720000Y-35790000D03*
%TO.P,J1,6,Pin_6*%
%TO.N,unconnected-(J1-Pin_6-Pad6)*%
X46990000Y-37690000D03*
%TO.P,J1,7,Pin_7*%
%TO.N,unconnected-(J1-Pin_7-Pad7)*%
X48260000Y-35790000D03*
%TO.P,J1,8,Pin_8*%
%TO.N,unconnected-(J1-Pin_8-Pad8)*%
X49530000Y-37690000D03*
%TO.P,J1,9,Pin_9*%
%TO.N,unconnected-(J1-Pin_9-Pad9)*%
X50800000Y-35790000D03*
%TO.P,J1,10,Pin_10*%
%TO.N,unconnected-(J1-Pin_10-Pad10)*%
X52070000Y-37690000D03*
%TO.P,J1,11,Pin_11*%
%TO.N,unconnected-(J1-Pin_11-Pad11)*%
X58420000Y-35800000D03*
%TO.P,J1,12,Pin_12*%
%TO.N,GND*%
X59690000Y-37700000D03*
%TO.P,J1,13,Pin_13*%
%TO.N,unconnected-(J1-Pin_13-Pad13)*%
X60960000Y-35800000D03*
%TO.P,J1,14,Pin_14*%
%TO.N,unconnected-(J1-Pin_14-Pad14)*%
X62230000Y-37700000D03*
%TO.P,J1,15,Pin_15*%
%TO.N,unconnected-(J1-Pin_15-Pad15)*%
X63500000Y-35800000D03*
%TO.P,J1,16,Pin_16*%
%TO.N,unconnected-(J1-Pin_16-Pad16)*%
X64770000Y-37700000D03*
%TO.P,J1,17,Pin_17*%
%TO.N,unconnected-(J1-Pin_17-Pad17)*%
X66040000Y-35800000D03*
%TO.P,J1,18,Pin_18*%
%TO.N,unconnected-(J1-Pin_18-Pad18)*%
X67310000Y-37700000D03*
%TO.P,J1,19,Pin_19*%
%TO.N,unconnected-(J1-Pin_19-Pad19)*%
X68580000Y-35800000D03*
%TO.P,J1,20,Pin_20*%
%TO.N,unconnected-(J1-Pin_20-Pad20)*%
X69850000Y-37700000D03*
%TO.P,J1,21,Pin_21*%
%TO.N,unconnected-(J1-Pin_21-Pad21)*%
X71120000Y-35800000D03*
%TO.P,J1,22,Pin_22*%
%TO.N,unconnected-(J1-Pin_22-Pad22)*%
X72390000Y-37700000D03*
%TO.P,J1,23,Pin_23*%
%TO.N,unconnected-(J1-Pin_23-Pad23)*%
X73660000Y-35800000D03*
%TO.P,J1,24,Pin_24*%
%TO.N,unconnected-(J1-Pin_24-Pad24)*%
X74930000Y-37700000D03*
%TO.P,J1,25,Pin_25*%
%TO.N,unconnected-(J1-Pin_25-Pad25)*%
X76200000Y-35800000D03*
%TO.P,J1,26,Pin_26*%
%TO.N,+3.3V_U2*%
X77470000Y-37700000D03*
%TO.P,J1,27,Pin_27*%
%TO.N,unconnected-(J1-Pin_27-Pad27)*%
X78740000Y-35800000D03*
%TO.P,J1,28,Pin_28*%
%TO.N,unconnected-(J1-Pin_28-Pad28)*%
X80010000Y-37700000D03*
%TO.P,J1,29,Pin_29*%
%TO.N,unconnected-(J1-Pin_29-Pad29)*%
X81280000Y-35800000D03*
%TO.P,J1,30,Pin_30*%
%TO.N,unconnected-(J1-Pin_30-Pad30)*%
X82550000Y-37700000D03*
%TO.P,J1,31,Pin_31*%
%TO.N,unconnected-(J1-Pin_31-Pad31)*%
X83820000Y-35800000D03*
%TO.P,J1,32,Pin_32*%
%TO.N,GND*%
X85090000Y-37700000D03*
%TO.P,J1,33,Pin_33*%
%TO.N,unconnected-(J1-Pin_33-Pad33)*%
X86360000Y-35800000D03*
%TO.P,J1,34,Pin_34*%
%TO.N,unconnected-(J1-Pin_34-Pad34)*%
X87630000Y-37700000D03*
%TO.P,J1,35,Pin_35*%
%TO.N,unconnected-(J1-Pin_35-Pad35)*%
X88900000Y-35800000D03*
%TO.P,J1,36,Pin_36*%
%TO.N,unconnected-(J1-Pin_36-Pad36)*%
X90170000Y-37700000D03*
%TO.P,J1,37,Pin_37*%
%TO.N,unconnected-(J1-Pin_37-Pad37)*%
X91440000Y-35800000D03*
%TO.P,J1,38,Pin_38*%
%TO.N,unconnected-(J1-Pin_38-Pad38)*%
X92710000Y-37700000D03*
%TO.P,J1,39,Pin_39*%
%TO.N,unconnected-(J1-Pin_39-Pad39)*%
X93980000Y-35800000D03*
%TO.P,J1,40,Pin_40*%
%TO.N,unconnected-(J1-Pin_40-Pad40)*%
X95250000Y-37700000D03*
%TO.P,J1,41,Pin_41*%
%TO.N,unconnected-(J1-Pin_41-Pad41)*%
X101600000Y-35790000D03*
%TO.P,J1,42,Pin_42*%
%TO.N,unconnected-(J1-Pin_42-Pad42)*%
X102870000Y-37690000D03*
%TO.P,J1,43,Pin_43*%
%TO.N,unconnected-(J1-Pin_43-Pad43)*%
X104140000Y-35790000D03*
%TO.P,J1,44,Pin_44*%
%TO.N,unconnected-(J1-Pin_44-Pad44)*%
X105410000Y-37690000D03*
%TO.P,J1,45,Pin_45*%
%TO.N,unconnected-(J1-Pin_45-Pad45)*%
X106680000Y-35790000D03*
%TO.P,J1,46,Pin_46*%
%TO.N,unconnected-(J1-Pin_46-Pad46)*%
X107950000Y-37690000D03*
%TO.P,J1,47,Pin_47*%
%TO.N,unconnected-(J1-Pin_47-Pad47)*%
X109220000Y-35790000D03*
%TO.P,J1,48,Pin_48*%
%TO.N,unconnected-(J1-Pin_48-Pad48)*%
X110490000Y-37690000D03*
%TO.P,J1,49,Pin_49*%
%TO.N,unconnected-(J1-Pin_49-Pad49)*%
X111760000Y-35790000D03*
%TO.P,J1,50,Pin_50*%
%TO.N,unconnected-(J1-Pin_50-Pad50)*%
X113030000Y-37690000D03*
%TO.P,J1,51,Pin_51*%
%TO.N,unconnected-(J1-Pin_51-Pad51)*%
X114300000Y-35790000D03*
%TO.P,J1,52,Pin_52*%
%TO.N,unconnected-(J1-Pin_52-Pad52)*%
X115570000Y-37690000D03*
%TO.P,J1,53,Pin_53*%
%TO.N,unconnected-(J1-Pin_53-Pad53)*%
X116840000Y-35790000D03*
%TO.P,J1,54,Pin_54*%
%TO.N,GND*%
X118110000Y-37690000D03*
%TO.P,J1,55,Pin_55*%
%TO.N,unconnected-(J1-Pin_55-Pad55)*%
X119380000Y-35790000D03*
%TO.P,J1,56,Pin_56*%
%TO.N,unconnected-(J1-Pin_56-Pad56)*%
X120650000Y-37690000D03*
%TO.P,J1,57,Pin_57*%
%TO.N,unconnected-(J1-Pin_57-Pad57)*%
X121920000Y-35790000D03*
%TO.P,J1,58,Pin_58*%
%TO.N,unconnected-(J1-Pin_58-Pad58)*%
X123190000Y-37690000D03*
%TO.P,J1,59,Pin_59*%
%TO.N,unconnected-(J1-Pin_59-Pad59)*%
X124460000Y-35790000D03*
%TO.P,J1,60,Pin_60*%
%TO.N,unconnected-(J1-Pin_60-Pad60)*%
X125730000Y-37690000D03*
%TO.P,J1,61,Pin_61*%
%TO.N,unconnected-(J1-Pin_61-Pad61)*%
X127000000Y-35790000D03*
%TO.P,J1,62,Pin_62*%
%TO.N,unconnected-(J1-Pin_62-Pad62)*%
X128270000Y-37690000D03*
%TO.P,J1,63,Pin_63*%
%TO.N,unconnected-(J1-Pin_63-Pad63)*%
X129540000Y-35790000D03*
%TO.P,J1,64,Pin_64*%
%TO.N,GND*%
X130810000Y-37690000D03*
%TO.P,J1,65,Pin_65*%
%TO.N,unconnected-(J1-Pin_65-Pad65)*%
X132080000Y-35790000D03*
%TO.P,J1,66,Pin_66*%
%TO.N,unconnected-(J1-Pin_66-Pad66)*%
X133350000Y-37690000D03*
%TO.P,J1,67,Pin_67*%
%TO.N,unconnected-(J1-Pin_67-Pad67)*%
X134620000Y-35790000D03*
%TO.P,J1,68,Pin_68*%
%TO.N,GND*%
X135890000Y-37690000D03*
%TO.P,J1,69,Pin_69*%
%TO.N,unconnected-(J1-Pin_69-Pad69)*%
X137160000Y-35790000D03*
%TO.P,J1,70,Pin_70*%
%TO.N,unconnected-(J1-Pin_70-Pad70)*%
X138430000Y-37690000D03*
%TO.P,J1,71,Pin_71*%
%TO.N,unconnected-(J1-Pin_71-Pad71)*%
X139700000Y-35805000D03*
%TO.P,J1,72,Pin_72*%
%TO.N,unconnected-(J1-Pin_72-Pad72)*%
X140970000Y-37705000D03*
%TO.P,J1,73,Pin_73*%
%TO.N,unconnected-(J1-Pin_73-Pad73)*%
X142240000Y-35805000D03*
%TO.P,J1,74,Pin_74*%
%TO.N,unconnected-(J1-Pin_74-Pad74)*%
X143510000Y-37705000D03*
%TO.P,J1,75,Pin_75*%
%TO.N,unconnected-(J1-Pin_75-Pad75)*%
X144780000Y-35805000D03*
%TO.P,J1,76,Pin_76*%
%TO.N,unconnected-(J1-Pin_76-Pad76)*%
X146050000Y-37705000D03*
%TO.P,J1,77,Pin_77*%
%TO.N,unconnected-(J1-Pin_77-Pad77)*%
X147320000Y-35805000D03*
%TO.P,J1,78,Pin_78*%
%TO.N,GND*%
X148590000Y-37705000D03*
%TO.P,J1,79,Pin_79*%
%TO.N,unconnected-(J1-Pin_79-Pad79)*%
X149860000Y-35805000D03*
%TO.P,J1,80,Pin_80*%
%TO.N,unconnected-(J1-Pin_80-Pad80)*%
X151130000Y-37705000D03*
%TO.P,J1,81,Pin_81*%
%TO.N,/WP*%
X152400000Y-35805000D03*
%TO.P,J1,82,Pin_82*%
%TO.N,/SDA*%
X153670000Y-37705000D03*
%TO.P,J1,83,Pin_83*%
%TO.N,/SCL*%
X154940000Y-35805000D03*
%TO.P,J1,84,Pin_84*%
%TO.N,+3.3V_U1*%
X156210000Y-37705000D03*
%TO.P,J1,85,Pin_85*%
%TO.N,GND*%
X40640000Y-31990000D03*
%TO.P,J1,86,Pin_86*%
%TO.N,unconnected-(J1-Pin_86-Pad86)*%
X41910000Y-33895000D03*
%TO.P,J1,87,Pin_87*%
%TO.N,unconnected-(J1-Pin_87-Pad87)*%
X43180000Y-31990000D03*
%TO.P,J1,88,Pin_88*%
%TO.N,unconnected-(J1-Pin_88-Pad88)*%
X44450000Y-33890000D03*
%TO.P,J1,89,Pin_89*%
%TO.N,unconnected-(J1-Pin_89-Pad89)*%
X45720000Y-31990000D03*
%TO.P,J1,90,Pin_90*%
%TO.N,unconnected-(J1-Pin_90-Pad90)*%
X46990000Y-33890000D03*
%TO.P,J1,91,Pin_91*%
%TO.N,unconnected-(J1-Pin_91-Pad91)*%
X48260000Y-31990000D03*
%TO.P,J1,92,Pin_92*%
%TO.N,unconnected-(J1-Pin_92-Pad92)*%
X49530000Y-33890000D03*
%TO.P,J1,93,Pin_93*%
%TO.N,unconnected-(J1-Pin_93-Pad93)*%
X50800000Y-31990000D03*
%TO.P,J1,94,Pin_94*%
%TO.N,unconnected-(J1-Pin_94-Pad94)*%
X52070000Y-33890000D03*
%TO.P,J1,95,Pin_95*%
%TO.N,unconnected-(J1-Pin_95-Pad95)*%
X58420000Y-32000000D03*
%TO.P,J1,96,Pin_96*%
%TO.N,unconnected-(J1-Pin_96-Pad96)*%
X59690000Y-33900000D03*
%TO.P,J1,97,Pin_97*%
%TO.N,unconnected-(J1-Pin_97-Pad97)*%
X60960000Y-32000000D03*
%TO.P,J1,98,Pin_98*%
%TO.N,unconnected-(J1-Pin_98-Pad98)*%
X62230000Y-33900000D03*
%TO.P,J1,99,Pin_99*%
%TO.N,unconnected-(J1-Pin_99-Pad99)*%
X63500000Y-32000000D03*
%TO.P,J1,100,Pin_100*%
%TO.N,unconnected-(J1-Pin_100-Pad100)*%
X64770000Y-33900000D03*
%TO.P,J1,101,Pin_101*%
%TO.N,unconnected-(J1-Pin_101-Pad101)*%
X66040000Y-32000000D03*
%TO.P,J1,102,Pin_102*%
%TO.N,unconnected-(J1-Pin_102-Pad102)*%
X67310000Y-33900000D03*
%TO.P,J1,103,Pin_103*%
%TO.N,unconnected-(J1-Pin_103-Pad103)*%
X68580000Y-32000000D03*
%TO.P,J1,104,Pin_104*%
%TO.N,unconnected-(J1-Pin_104-Pad104)*%
X69850000Y-33900000D03*
%TO.P,J1,105,Pin_105*%
%TO.N,unconnected-(J1-Pin_105-Pad105)*%
X71120000Y-32000000D03*
%TO.P,J1,106,Pin_106*%
%TO.N,unconnected-(J1-Pin_106-Pad106)*%
X72390000Y-33900000D03*
%TO.P,J1,107,Pin_107*%
%TO.N,GND*%
X73660000Y-32000000D03*
%TO.P,J1,108,Pin_108*%
%TO.N,unconnected-(J1-Pin_108-Pad108)*%
X74930000Y-33900000D03*
%TO.P,J1,109,Pin_109*%
%TO.N,unconnected-(J1-Pin_109-Pad109)*%
X76200000Y-32000000D03*
%TO.P,J1,110,Pin_110*%
%TO.N,+3.3V_U2*%
X77470000Y-33900000D03*
%TO.P,J1,111,Pin_111*%
%TO.N,unconnected-(J1-Pin_111-Pad111)*%
X78740000Y-32000000D03*
%TO.P,J1,112,Pin_112*%
%TO.N,unconnected-(J1-Pin_112-Pad112)*%
X80010000Y-33900000D03*
%TO.P,J1,113,Pin_113*%
%TO.N,unconnected-(J1-Pin_113-Pad113)*%
X81280000Y-32000000D03*
%TO.P,J1,114,Pin_114*%
%TO.N,unconnected-(J1-Pin_114-Pad114)*%
X82550000Y-33900000D03*
%TO.P,J1,115,Pin_115*%
%TO.N,unconnected-(J1-Pin_115-Pad115)*%
X83820000Y-32000000D03*
%TO.P,J1,116,Pin_116*%
%TO.N,unconnected-(J1-Pin_116-Pad116)*%
X85090000Y-33900000D03*
%TO.P,J1,117,Pin_117*%
%TO.N,unconnected-(J1-Pin_117-Pad117)*%
X86360000Y-32000000D03*
%TO.P,J1,118,Pin_118*%
%TO.N,unconnected-(J1-Pin_118-Pad118)*%
X87630000Y-33900000D03*
%TO.P,J1,119,Pin_119*%
%TO.N,unconnected-(J1-Pin_119-Pad119)*%
X88900000Y-32000000D03*
%TO.P,J1,120,Pin_120*%
%TO.N,unconnected-(J1-Pin_120-Pad120)*%
X90170000Y-33900000D03*
%TO.P,J1,121,Pin_121*%
%TO.N,unconnected-(J1-Pin_121-Pad121)*%
X91440000Y-32000000D03*
%TO.P,J1,122,Pin_122*%
%TO.N,unconnected-(J1-Pin_122-Pad122)*%
X92710000Y-33900000D03*
%TO.P,J1,123,Pin_123*%
%TO.N,unconnected-(J1-Pin_123-Pad123)*%
X93980000Y-32000000D03*
%TO.P,J1,124,Pin_124*%
%TO.N,unconnected-(J1-Pin_124-Pad124)*%
X95250000Y-33900000D03*
%TO.P,J1,125,Pin_125*%
%TO.N,unconnected-(J1-Pin_125-Pad125)*%
X101600000Y-31990000D03*
%TO.P,J1,126,Pin_126*%
%TO.N,unconnected-(J1-Pin_126-Pad126)*%
X102870000Y-33890000D03*
%TO.P,J1,127,Pin_127*%
%TO.N,GND*%
X104140000Y-31990000D03*
%TO.P,J1,128,Pin_128*%
%TO.N,unconnected-(J1-Pin_128-Pad128)*%
X105410000Y-33890000D03*
%TO.P,J1,129,Pin_129*%
%TO.N,unconnected-(J1-Pin_129-Pad129)*%
X106680000Y-31990000D03*
%TO.P,J1,130,Pin_130*%
%TO.N,unconnected-(J1-Pin_130-Pad130)*%
X107950000Y-33890000D03*
%TO.P,J1,131,Pin_131*%
%TO.N,unconnected-(J1-Pin_131-Pad131)*%
X109220000Y-31990000D03*
%TO.P,J1,132,Pin_132*%
%TO.N,unconnected-(J1-Pin_132-Pad132)*%
X110490000Y-33890000D03*
%TO.P,J1,133,Pin_133*%
%TO.N,unconnected-(J1-Pin_133-Pad133)*%
X111760000Y-31990000D03*
%TO.P,J1,134,Pin_134*%
%TO.N,unconnected-(J1-Pin_134-Pad134)*%
X113030000Y-33890000D03*
%TO.P,J1,135,Pin_135*%
%TO.N,unconnected-(J1-Pin_135-Pad135)*%
X114300000Y-31990000D03*
%TO.P,J1,136,Pin_136*%
%TO.N,unconnected-(J1-Pin_136-Pad136)*%
X115570000Y-33890000D03*
%TO.P,J1,137,Pin_137*%
%TO.N,unconnected-(J1-Pin_137-Pad137)*%
X116840000Y-31990000D03*
%TO.P,J1,138,Pin_138*%
%TO.N,unconnected-(J1-Pin_138-Pad138)*%
X118110000Y-33890000D03*
%TO.P,J1,139,Pin_139*%
%TO.N,unconnected-(J1-Pin_139-Pad139)*%
X119380000Y-31990000D03*
%TO.P,J1,140,Pin_140*%
%TO.N,unconnected-(J1-Pin_140-Pad140)*%
X120650000Y-33890000D03*
%TO.P,J1,141,Pin_141*%
%TO.N,unconnected-(J1-Pin_141-Pad141)*%
X121920000Y-31990000D03*
%TO.P,J1,142,Pin_142*%
%TO.N,unconnected-(J1-Pin_142-Pad142)*%
X123190000Y-33890000D03*
%TO.P,J1,143,Pin_143*%
%TO.N,unconnected-(J1-Pin_143-Pad143)*%
X124460000Y-31990000D03*
%TO.P,J1,144,Pin_144*%
%TO.N,unconnected-(J1-Pin_144-Pad144)*%
X125730000Y-33890000D03*
%TO.P,J1,145,Pin_145*%
%TO.N,unconnected-(J1-Pin_145-Pad145)*%
X127000000Y-31990000D03*
%TO.P,J1,146,Pin_146*%
%TO.N,unconnected-(J1-Pin_146-Pad146)*%
X128270000Y-33890000D03*
%TO.P,J1,147,Pin_147*%
%TO.N,unconnected-(J1-Pin_147-Pad147)*%
X129540000Y-31990000D03*
%TO.P,J1,148,Pin_148*%
%TO.N,unconnected-(J1-Pin_148-Pad148)*%
X130810000Y-33890000D03*
%TO.P,J1,149,Pin_149*%
%TO.N,unconnected-(J1-Pin_149-Pad149)*%
X132080000Y-31990000D03*
%TO.P,J1,150,Pin_150*%
%TO.N,unconnected-(J1-Pin_150-Pad150)*%
X133350000Y-33890000D03*
%TO.P,J1,151,Pin_151*%
%TO.N,unconnected-(J1-Pin_151-Pad151)*%
X134620000Y-31990000D03*
%TO.P,J1,152,Pin_152*%
%TO.N,unconnected-(J1-Pin_152-Pad152)*%
X135890000Y-33890000D03*
%TO.P,J1,153,Pin_153*%
%TO.N,unconnected-(J1-Pin_153-Pad153)*%
X137160000Y-31990000D03*
%TO.P,J1,154,Pin_154*%
%TO.N,unconnected-(J1-Pin_154-Pad154)*%
X138430000Y-33890000D03*
%TO.P,J1,155,Pin_155*%
%TO.N,unconnected-(J1-Pin_155-Pad155)*%
X139700000Y-32005000D03*
%TO.P,J1,156,Pin_156*%
%TO.N,unconnected-(J1-Pin_156-Pad156)*%
X140970000Y-33905000D03*
%TO.P,J1,157,Pin_157*%
%TO.N,unconnected-(J1-Pin_157-Pad157)*%
X142240000Y-32005000D03*
%TO.P,J1,158,Pin_158*%
%TO.N,unconnected-(J1-Pin_158-Pad158)*%
X143510000Y-33905000D03*
%TO.P,J1,159,Pin_159*%
%TO.N,unconnected-(J1-Pin_159-Pad159)*%
X144780000Y-32005000D03*
%TO.P,J1,160,Pin_160*%
%TO.N,unconnected-(J1-Pin_160-Pad160)*%
X146050000Y-33905000D03*
%TO.P,J1,161,Pin_161*%
%TO.N,unconnected-(J1-Pin_161-Pad161)*%
X147320000Y-32005000D03*
%TO.P,J1,162,Pin_162*%
%TO.N,unconnected-(J1-Pin_162-Pad162)*%
X148590000Y-33905000D03*
%TO.P,J1,163,Pin_163*%
%TO.N,unconnected-(J1-Pin_163-Pad163)*%
X149860000Y-32005000D03*
%TO.P,J1,164,Pin_164*%
%TO.N,unconnected-(J1-Pin_164-Pad164)*%
X151130000Y-33905000D03*
%TO.P,J1,165,Pin_165*%
%TO.N,/A0*%
X152400000Y-32005000D03*
%TO.P,J1,166,Pin_166*%
%TO.N,/A1*%
X153670000Y-33905000D03*
%TO.P,J1,167,Pin_167*%
%TO.N,/A2*%
X154940000Y-32005000D03*
%TO.P,J1,168,Pin_168*%
%TO.N,+3.3V_U1*%
X156210000Y-33905000D03*
%TD*%
D10*
%TO.P,U1,1,A0*%
%TO.N,/A0*%
X122555000Y-27305000D03*
D11*
%TO.P,U1,2,A1*%
%TO.N,/A1*%
X120015000Y-27305000D03*
%TO.P,U1,3,A2*%
%TO.N,/A2*%
X117475000Y-27305000D03*
%TO.P,U1,4,GND*%
%TO.N,GND*%
X114935000Y-27305000D03*
%TO.P,U1,5,SDA*%
%TO.N,/SDA*%
X114935000Y-42545000D03*
%TO.P,U1,6,SCL*%
%TO.N,/SCL*%
X117475000Y-42545000D03*
%TO.P,U1,7,WP*%
%TO.N,/WP*%
X120015000Y-42545000D03*
%TO.P,U1,8,VCC*%
%TO.N,+3.3V_U1*%
X122555000Y-42545000D03*
%TD*%
D14*
%TO.N,GND*%
X165227000Y-34798000D03*
X75946000Y-39878000D03*
X147955000Y-28829000D03*
X94234000Y-39878000D03*
X84328000Y-28702000D03*
X124714000Y-43942000D03*
X124841000Y-28702000D03*
X96139000Y-26543000D03*
X148844000Y-26797000D03*
X99822000Y-30226000D03*
X121031000Y-30454600D03*
X113411000Y-43307000D03*
X152146000Y-40132000D03*
X105918000Y-39624000D03*
X118618000Y-29337000D03*
X124841000Y-26797000D03*
X83439000Y-26543000D03*
X98552000Y-37338000D03*
X99187000Y-33020000D03*
X97790000Y-31369000D03*
X79756000Y-29972000D03*
X124079000Y-41783000D03*
X100930000Y-38354000D03*
X151892000Y-41783000D03*
X113411000Y-41783000D03*
X96901000Y-41910000D03*
X148590000Y-30861000D03*
X118618000Y-40132000D03*
X79883000Y-40767000D03*
X106807000Y-28194000D03*
%TD*%
D15*
%TO.N,/A2*%
X117475000Y-27305000D02*
X118975000Y-25805000D01*
X154940000Y-31496000D02*
X154940000Y-32005000D01*
X149249000Y-25805000D02*
X154940000Y-31496000D01*
X118975000Y-25805000D02*
X149249000Y-25805000D01*
%TO.N,/SCL*%
X94996000Y-30226000D02*
X82296000Y-30226000D01*
X82296000Y-30226000D02*
X79375000Y-27305000D01*
X103227000Y-44045000D02*
X96520000Y-37338000D01*
X115975000Y-44045000D02*
X103227000Y-44045000D01*
X117475000Y-42545000D02*
X115975000Y-44045000D01*
X96520000Y-31750000D02*
X94996000Y-30226000D01*
X96520000Y-37338000D02*
X96520000Y-31750000D01*
%TO.N,/A1*%
X149352000Y-29718000D02*
X151130000Y-31496000D01*
X152713500Y-33905000D02*
X153670000Y-33905000D01*
X151130000Y-32321500D02*
X152713500Y-33905000D01*
X122428000Y-29718000D02*
X149352000Y-29718000D01*
X120015000Y-27305000D02*
X122428000Y-29718000D01*
X151130000Y-31496000D02*
X151130000Y-32321500D01*
%TO.N,/SDA*%
X114935000Y-42545000D02*
X103886000Y-42545000D01*
X103886000Y-42545000D02*
X100076000Y-38735000D01*
X100076000Y-38735000D02*
X100076000Y-31623000D01*
X95758000Y-27305000D02*
X81915000Y-27305000D01*
X100076000Y-31623000D02*
X95758000Y-27305000D01*
%TO.N,/WP*%
X120015000Y-42545000D02*
X122428000Y-40132000D01*
X78335000Y-25805000D02*
X96474686Y-25805000D01*
X152400000Y-38066000D02*
X152400000Y-35805000D01*
X118515000Y-41045000D02*
X120015000Y-42545000D01*
X104545000Y-41045000D02*
X118515000Y-41045000D01*
X150334000Y-40132000D02*
X152400000Y-38066000D01*
X100550000Y-29880314D02*
X100550000Y-37050000D01*
X100550000Y-37050000D02*
X104545000Y-41045000D01*
X76835000Y-27305000D02*
X78335000Y-25805000D01*
X122428000Y-40132000D02*
X150334000Y-40132000D01*
X96474686Y-25805000D02*
X100550000Y-29880314D01*
%TD*%
%TA.AperFunction,Conductor*%
%TO.N,GND*%
G36*
X97325703Y-35898961D02*
G01*
X97332181Y-35904993D01*
X97434462Y-36007274D01*
X97434467Y-36007278D01*
X97550844Y-36091830D01*
X97628084Y-36147948D01*
X97744121Y-36207072D01*
X97841325Y-36256601D01*
X97841327Y-36256601D01*
X97841330Y-36256603D01*
X98068949Y-36330561D01*
X98190735Y-36349849D01*
X98305329Y-36368000D01*
X98305334Y-36368000D01*
X98544671Y-36368000D01*
X98649135Y-36351453D01*
X98781051Y-36330561D01*
X99008670Y-36256603D01*
X99221916Y-36147948D01*
X99278615Y-36106753D01*
X99344420Y-36083274D01*
X99412474Y-36099099D01*
X99461169Y-36149205D01*
X99475500Y-36207072D01*
X99475500Y-38648330D01*
X99475499Y-38648348D01*
X99475499Y-38814054D01*
X99475498Y-38814054D01*
X99516423Y-38966785D01*
X99545358Y-39016900D01*
X99545359Y-39016904D01*
X99545360Y-39016904D01*
X99595479Y-39103714D01*
X99595481Y-39103717D01*
X99714349Y-39222585D01*
X99714354Y-39222589D01*
X103517284Y-43025520D01*
X103517286Y-43025521D01*
X103517290Y-43025524D01*
X103602394Y-43074658D01*
X103654216Y-43104577D01*
X103806943Y-43145501D01*
X103806945Y-43145501D01*
X103972654Y-43145501D01*
X103972670Y-43145500D01*
X113544140Y-43145500D01*
X113611179Y-43165185D01*
X113656934Y-43217989D01*
X113665037Y-43244877D01*
X113665385Y-43244794D01*
X113666523Y-43249535D01*
X113677131Y-43282183D01*
X113679126Y-43352024D01*
X113643045Y-43411857D01*
X113580344Y-43442684D01*
X113559200Y-43444500D01*
X103527097Y-43444500D01*
X103460058Y-43424815D01*
X103439416Y-43408181D01*
X97156819Y-37125584D01*
X97123334Y-37064261D01*
X97120500Y-37037903D01*
X97120500Y-35992674D01*
X97140185Y-35925635D01*
X97192989Y-35879880D01*
X97262147Y-35869936D01*
X97325703Y-35898961D01*
G37*
%TD.AperFunction*%
%TA.AperFunction,Conductor*%
G36*
X100881703Y-38231384D02*
G01*
X100888181Y-38237416D01*
X104060139Y-41409374D01*
X104060149Y-41409385D01*
X104064479Y-41413715D01*
X104064480Y-41413716D01*
X104176284Y-41525520D01*
X104263095Y-41575639D01*
X104263097Y-41575641D01*
X104301151Y-41597611D01*
X104313215Y-41604577D01*
X104465943Y-41645500D01*
X104624057Y-41645500D01*
X113559200Y-41645500D01*
X113626239Y-41665185D01*
X113671994Y-41717989D01*
X113681938Y-41787147D01*
X113677131Y-41807817D01*
X113666523Y-41840464D01*
X113665385Y-41845206D01*
X113664227Y-41844928D01*
X113636687Y-41903029D01*
X113577377Y-41939962D01*
X113544140Y-41944500D01*
X104186098Y-41944500D01*
X104119059Y-41924815D01*
X104098417Y-41908181D01*
X100712819Y-38522583D01*
X100679334Y-38461260D01*
X100676500Y-38434902D01*
X100676500Y-38325097D01*
X100696185Y-38258058D01*
X100748989Y-38212303D01*
X100818147Y-38202359D01*
X100881703Y-38231384D01*
G37*
%TD.AperFunction*%
%TA.AperFunction,Conductor*%
G36*
X136933124Y-38379570D02*
G01*
X136976666Y-38317388D01*
X137047340Y-38165825D01*
X137093512Y-38113386D01*
X137160706Y-38094233D01*
X137227587Y-38114448D01*
X137272105Y-38165824D01*
X137342897Y-38317638D01*
X137349899Y-38327638D01*
X137468402Y-38496877D01*
X137623123Y-38651598D01*
X137802361Y-38777102D01*
X138000670Y-38869575D01*
X138212023Y-38926207D01*
X138394926Y-38942208D01*
X138429998Y-38945277D01*
X138430000Y-38945277D01*
X138430002Y-38945277D01*
X138458254Y-38942805D01*
X138647977Y-38926207D01*
X138859330Y-38869575D01*
X139057639Y-38777102D01*
X139236877Y-38651598D01*
X139391598Y-38496877D01*
X139517102Y-38317639D01*
X139584121Y-38173915D01*
X139630292Y-38121477D01*
X139697485Y-38102325D01*
X139764366Y-38122540D01*
X139808884Y-38173916D01*
X139882897Y-38332638D01*
X139882898Y-38332639D01*
X140008402Y-38511877D01*
X140163123Y-38666598D01*
X140342361Y-38792102D01*
X140540670Y-38884575D01*
X140540676Y-38884576D01*
X140540677Y-38884577D01*
X140565525Y-38891235D01*
X140752023Y-38941207D01*
X140934926Y-38957208D01*
X140969998Y-38960277D01*
X140970000Y-38960277D01*
X140970002Y-38960277D01*
X140998254Y-38957805D01*
X141187977Y-38941207D01*
X141399330Y-38884575D01*
X141597639Y-38792102D01*
X141776877Y-38666598D01*
X141931598Y-38511877D01*
X142057102Y-38332639D01*
X142127618Y-38181414D01*
X142173790Y-38128977D01*
X142240984Y-38109825D01*
X142307865Y-38130041D01*
X142352381Y-38181414D01*
X142422898Y-38332639D01*
X142548402Y-38511877D01*
X142703123Y-38666598D01*
X142882361Y-38792102D01*
X143080670Y-38884575D01*
X143080676Y-38884576D01*
X143080677Y-38884577D01*
X143105525Y-38891235D01*
X143292023Y-38941207D01*
X143474926Y-38957208D01*
X143509998Y-38960277D01*
X143510000Y-38960277D01*
X143510002Y-38960277D01*
X143538254Y-38957805D01*
X143727977Y-38941207D01*
X143939330Y-38884575D01*
X144137639Y-38792102D01*
X144316877Y-38666598D01*
X144471598Y-38511877D01*
X144597102Y-38332639D01*
X144667618Y-38181414D01*
X144713790Y-38128977D01*
X144780984Y-38109825D01*
X144847865Y-38130041D01*
X144892381Y-38181414D01*
X144962898Y-38332639D01*
X145088402Y-38511877D01*
X145243123Y-38666598D01*
X145422361Y-38792102D01*
X145620670Y-38884575D01*
X145620676Y-38884576D01*
X145620677Y-38884577D01*
X145645525Y-38891235D01*
X145832023Y-38941207D01*
X146014926Y-38957208D01*
X146049998Y-38960277D01*
X146050000Y-38960277D01*
X146050002Y-38960277D01*
X146078254Y-38957805D01*
X146267977Y-38941207D01*
X146479330Y-38884575D01*
X146677639Y-38792102D01*
X146856877Y-38666598D01*
X147011598Y-38511877D01*
X147137102Y-38332639D01*
X147207895Y-38180822D01*
X147254066Y-38128385D01*
X147321260Y-38109233D01*
X147388141Y-38129449D01*
X147432658Y-38180824D01*
X147503333Y-38332387D01*
X147546874Y-38394571D01*
X148107037Y-37834408D01*
X148124075Y-37897993D01*
X148189901Y-38012007D01*
X148282993Y-38105099D01*
X148397007Y-38170925D01*
X148460590Y-38187962D01*
X147900427Y-38748124D01*
X147962612Y-38791666D01*
X148160840Y-38884101D01*
X148160849Y-38884105D01*
X148372105Y-38940710D01*
X148372115Y-38940712D01*
X148589999Y-38959775D01*
X148590001Y-38959775D01*
X148807884Y-38940712D01*
X148807894Y-38940710D01*
X149019150Y-38884105D01*
X149019164Y-38884100D01*
X149217383Y-38791669D01*
X149217385Y-38791668D01*
X149279571Y-38748124D01*
X148719410Y-38187962D01*
X148782993Y-38170925D01*
X148897007Y-38105099D01*
X148990099Y-38012007D01*
X149055925Y-37897993D01*
X149072962Y-37834408D01*
X149633124Y-38394570D01*
X149676666Y-38332388D01*
X149747340Y-38180825D01*
X149793512Y-38128386D01*
X149860706Y-38109233D01*
X149927587Y-38129448D01*
X149972105Y-38180824D01*
X150042897Y-38332638D01*
X150042898Y-38332639D01*
X150168402Y-38511877D01*
X150323123Y-38666598D01*
X150494602Y-38786669D01*
X150502361Y-38792102D01*
X150561667Y-38819757D01*
X150614106Y-38865930D01*
X150633258Y-38933123D01*
X150613042Y-39000005D01*
X150596943Y-39019820D01*
X150121584Y-39495181D01*
X150060261Y-39528666D01*
X150033903Y-39531500D01*
X122348940Y-39531500D01*
X122308019Y-39542464D01*
X122308019Y-39542465D01*
X122270751Y-39552451D01*
X122196214Y-39572423D01*
X122196209Y-39572426D01*
X122059290Y-39651475D01*
X122059282Y-39651481D01*
X121947478Y-39763286D01*
X120748020Y-40962743D01*
X120686697Y-40996228D01*
X120617005Y-40991244D01*
X120604045Y-40985547D01*
X120514219Y-40939779D01*
X120319536Y-40876523D01*
X120157816Y-40850909D01*
X120117352Y-40844500D01*
X119912648Y-40844500D01*
X119872184Y-40850909D01*
X119710464Y-40876523D01*
X119710461Y-40876523D01*
X119515782Y-40939779D01*
X119515781Y-40939779D01*
X119425954Y-40985548D01*
X119357285Y-40998444D01*
X119292544Y-40972167D01*
X119281979Y-40962744D01*
X119002590Y-40683355D01*
X119002588Y-40683352D01*
X118883717Y-40564481D01*
X118883716Y-40564480D01*
X118796904Y-40514360D01*
X118796904Y-40514359D01*
X118796900Y-40514358D01*
X118746785Y-40485423D01*
X118594057Y-40444499D01*
X118435943Y-40444499D01*
X118428347Y-40444499D01*
X118428331Y-40444500D01*
X104845097Y-40444500D01*
X104778058Y-40424815D01*
X104757416Y-40408181D01*
X103369637Y-39020402D01*
X103336152Y-38959079D01*
X103341136Y-38889387D01*
X103383008Y-38833454D01*
X103404900Y-38820346D01*
X103497639Y-38777102D01*
X103676877Y-38651598D01*
X103831598Y-38496877D01*
X103957102Y-38317639D01*
X104027618Y-38166414D01*
X104073790Y-38113977D01*
X104140984Y-38094825D01*
X104207865Y-38115041D01*
X104252381Y-38166414D01*
X104322898Y-38317639D01*
X104448402Y-38496877D01*
X104603123Y-38651598D01*
X104782361Y-38777102D01*
X104980670Y-38869575D01*
X105192023Y-38926207D01*
X105374926Y-38942208D01*
X105409998Y-38945277D01*
X105410000Y-38945277D01*
X105410002Y-38945277D01*
X105438254Y-38942805D01*
X105627977Y-38926207D01*
X105839330Y-38869575D01*
X106037639Y-38777102D01*
X106216877Y-38651598D01*
X106371598Y-38496877D01*
X106497102Y-38317639D01*
X106567618Y-38166414D01*
X106613790Y-38113977D01*
X106680984Y-38094825D01*
X106747865Y-38115041D01*
X106792381Y-38166414D01*
X106862898Y-38317639D01*
X106988402Y-38496877D01*
X107143123Y-38651598D01*
X107322361Y-38777102D01*
X107520670Y-38869575D01*
X107732023Y-38926207D01*
X107914926Y-38942208D01*
X107949998Y-38945277D01*
X107950000Y-38945277D01*
X107950002Y-38945277D01*
X107978254Y-38942805D01*
X108167977Y-38926207D01*
X108379330Y-38869575D01*
X108577639Y-38777102D01*
X108756877Y-38651598D01*
X108911598Y-38496877D01*
X109037102Y-38317639D01*
X109107618Y-38166414D01*
X109153790Y-38113977D01*
X109220984Y-38094825D01*
X109287865Y-38115041D01*
X109332381Y-38166414D01*
X109402898Y-38317639D01*
X109528402Y-38496877D01*
X109683123Y-38651598D01*
X109862361Y-38777102D01*
X110060670Y-38869575D01*
X110272023Y-38926207D01*
X110454926Y-38942208D01*
X110489998Y-38945277D01*
X110490000Y-38945277D01*
X110490002Y-38945277D01*
X110518254Y-38942805D01*
X110707977Y-38926207D01*
X110919330Y-38869575D01*
X111117639Y-38777102D01*
X111296877Y-38651598D01*
X111451598Y-38496877D01*
X111577102Y-38317639D01*
X111647618Y-38166414D01*
X111693790Y-38113977D01*
X111760984Y-38094825D01*
X111827865Y-38115041D01*
X111872381Y-38166414D01*
X111942898Y-38317639D01*
X112068402Y-38496877D01*
X112223123Y-38651598D01*
X112402361Y-38777102D01*
X112600670Y-38869575D01*
X112812023Y-38926207D01*
X112994926Y-38942208D01*
X113029998Y-38945277D01*
X113030000Y-38945277D01*
X113030002Y-38945277D01*
X113058254Y-38942805D01*
X113247977Y-38926207D01*
X113459330Y-38869575D01*
X113657639Y-38777102D01*
X113836877Y-38651598D01*
X113991598Y-38496877D01*
X114117102Y-38317639D01*
X114187618Y-38166414D01*
X114233790Y-38113977D01*
X114300984Y-38094825D01*
X114367865Y-38115041D01*
X114412381Y-38166414D01*
X114482898Y-38317639D01*
X114608402Y-38496877D01*
X114763123Y-38651598D01*
X114942361Y-38777102D01*
X115140670Y-38869575D01*
X115352023Y-38926207D01*
X115534926Y-38942208D01*
X115569998Y-38945277D01*
X115570000Y-38945277D01*
X115570002Y-38945277D01*
X115598254Y-38942805D01*
X115787977Y-38926207D01*
X115999330Y-38869575D01*
X116197639Y-38777102D01*
X116376877Y-38651598D01*
X116531598Y-38496877D01*
X116657102Y-38317639D01*
X116727895Y-38165822D01*
X116774066Y-38113385D01*
X116841260Y-38094233D01*
X116908141Y-38114449D01*
X116952658Y-38165824D01*
X117023333Y-38317387D01*
X117066874Y-38379571D01*
X117627037Y-37819408D01*
X117644075Y-37882993D01*
X117709901Y-37997007D01*
X117802993Y-38090099D01*
X117917007Y-38155925D01*
X117980590Y-38172962D01*
X117420427Y-38733124D01*
X117482612Y-38776666D01*
X117680840Y-38869101D01*
X117680849Y-38869105D01*
X117892105Y-38925710D01*
X117892115Y-38925712D01*
X118109999Y-38944775D01*
X118110001Y-38944775D01*
X118327884Y-38925712D01*
X118327894Y-38925710D01*
X118539150Y-38869105D01*
X118539164Y-38869100D01*
X118737383Y-38776669D01*
X118737385Y-38776668D01*
X118799571Y-38733124D01*
X118239410Y-38172962D01*
X118302993Y-38155925D01*
X118417007Y-38090099D01*
X118510099Y-37997007D01*
X118575925Y-37882993D01*
X118592962Y-37819408D01*
X119153124Y-38379570D01*
X119196666Y-38317388D01*
X119267340Y-38165825D01*
X119313512Y-38113386D01*
X119380706Y-38094233D01*
X119447587Y-38114448D01*
X119492105Y-38165824D01*
X119562897Y-38317638D01*
X119569899Y-38327638D01*
X119688402Y-38496877D01*
X119843123Y-38651598D01*
X120022361Y-38777102D01*
X120220670Y-38869575D01*
X120432023Y-38926207D01*
X120614926Y-38942208D01*
X120649998Y-38945277D01*
X120650000Y-38945277D01*
X120650002Y-38945277D01*
X120678254Y-38942805D01*
X120867977Y-38926207D01*
X121079330Y-38869575D01*
X121277639Y-38777102D01*
X121456877Y-38651598D01*
X121611598Y-38496877D01*
X121737102Y-38317639D01*
X121807618Y-38166414D01*
X121853790Y-38113977D01*
X121920984Y-38094825D01*
X121987865Y-38115041D01*
X122032381Y-38166414D01*
X122102898Y-38317639D01*
X122228402Y-38496877D01*
X122383123Y-38651598D01*
X122562361Y-38777102D01*
X122760670Y-38869575D01*
X122972023Y-38926207D01*
X123154926Y-38942208D01*
X123189998Y-38945277D01*
X123190000Y-38945277D01*
X123190002Y-38945277D01*
X123218254Y-38942805D01*
X123407977Y-38926207D01*
X123619330Y-38869575D01*
X123817639Y-38777102D01*
X123996877Y-38651598D01*
X124151598Y-38496877D01*
X124277102Y-38317639D01*
X124347618Y-38166414D01*
X124393790Y-38113977D01*
X124460984Y-38094825D01*
X124527865Y-38115041D01*
X124572381Y-38166414D01*
X124642898Y-38317639D01*
X124768402Y-38496877D01*
X124923123Y-38651598D01*
X125102361Y-38777102D01*
X125300670Y-38869575D01*
X125512023Y-38926207D01*
X125694926Y-38942208D01*
X125729998Y-38945277D01*
X125730000Y-38945277D01*
X125730002Y-38945277D01*
X125758254Y-38942805D01*
X125947977Y-38926207D01*
X126159330Y-38869575D01*
X126357639Y-38777102D01*
X126536877Y-38651598D01*
X126691598Y-38496877D01*
X126817102Y-38317639D01*
X126887618Y-38166414D01*
X126933790Y-38113977D01*
X127000984Y-38094825D01*
X127067865Y-38115041D01*
X127112381Y-38166414D01*
X127182898Y-38317639D01*
X127308402Y-38496877D01*
X127463123Y-38651598D01*
X127642361Y-38777102D01*
X127840670Y-38869575D01*
X128052023Y-38926207D01*
X128234926Y-38942208D01*
X128269998Y-38945277D01*
X128270000Y-38945277D01*
X128270002Y-38945277D01*
X128298254Y-38942805D01*
X128487977Y-38926207D01*
X128699330Y-38869575D01*
X128897639Y-38777102D01*
X129076877Y-38651598D01*
X129231598Y-38496877D01*
X129357102Y-38317639D01*
X129427895Y-38165822D01*
X129474066Y-38113385D01*
X129541260Y-38094233D01*
X129608141Y-38114449D01*
X129652658Y-38165824D01*
X129723333Y-38317387D01*
X129766874Y-38379571D01*
X130327037Y-37819408D01*
X130344075Y-37882993D01*
X130409901Y-37997007D01*
X130502993Y-38090099D01*
X130617007Y-38155925D01*
X130680590Y-38172962D01*
X130120427Y-38733124D01*
X130182612Y-38776666D01*
X130380840Y-38869101D01*
X130380849Y-38869105D01*
X130592105Y-38925710D01*
X130592115Y-38925712D01*
X130809999Y-38944775D01*
X130810001Y-38944775D01*
X131027884Y-38925712D01*
X131027894Y-38925710D01*
X131239150Y-38869105D01*
X131239164Y-38869100D01*
X131437383Y-38776669D01*
X131437385Y-38776668D01*
X131499571Y-38733124D01*
X130939410Y-38172962D01*
X131002993Y-38155925D01*
X131117007Y-38090099D01*
X131210099Y-37997007D01*
X131275925Y-37882993D01*
X131292962Y-37819408D01*
X131853124Y-38379570D01*
X131896666Y-38317388D01*
X131967340Y-38165825D01*
X132013512Y-38113386D01*
X132080706Y-38094233D01*
X132147587Y-38114448D01*
X132192105Y-38165824D01*
X132262897Y-38317638D01*
X132269899Y-38327638D01*
X132388402Y-38496877D01*
X132543123Y-38651598D01*
X132722361Y-38777102D01*
X132920670Y-38869575D01*
X133132023Y-38926207D01*
X133314926Y-38942208D01*
X133349998Y-38945277D01*
X133350000Y-38945277D01*
X133350002Y-38945277D01*
X133378254Y-38942805D01*
X133567977Y-38926207D01*
X133779330Y-38869575D01*
X133977639Y-38777102D01*
X134156877Y-38651598D01*
X134311598Y-38496877D01*
X134437102Y-38317639D01*
X134507895Y-38165822D01*
X134554066Y-38113385D01*
X134621260Y-38094233D01*
X134688141Y-38114449D01*
X134732658Y-38165824D01*
X134803333Y-38317387D01*
X134846874Y-38379571D01*
X135407037Y-37819408D01*
X135424075Y-37882993D01*
X135489901Y-37997007D01*
X135582993Y-38090099D01*
X135697007Y-38155925D01*
X135760590Y-38172962D01*
X135200427Y-38733124D01*
X135262612Y-38776666D01*
X135460840Y-38869101D01*
X135460849Y-38869105D01*
X135672105Y-38925710D01*
X135672115Y-38925712D01*
X135889999Y-38944775D01*
X135890001Y-38944775D01*
X136107884Y-38925712D01*
X136107894Y-38925710D01*
X136319150Y-38869105D01*
X136319164Y-38869100D01*
X136517383Y-38776669D01*
X136517385Y-38776668D01*
X136579571Y-38733124D01*
X136019410Y-38172962D01*
X136082993Y-38155925D01*
X136197007Y-38090099D01*
X136290099Y-37997007D01*
X136355925Y-37882993D01*
X136372962Y-37819408D01*
X136933124Y-38379570D01*
G37*
%TD.AperFunction*%
%TA.AperFunction,Conductor*%
G36*
X95524942Y-27925185D02*
G01*
X95545584Y-27941819D01*
X99439181Y-31835416D01*
X99472666Y-31896739D01*
X99475500Y-31923097D01*
X99475500Y-33487927D01*
X99455815Y-33554966D01*
X99403011Y-33600721D01*
X99333853Y-33610665D01*
X99278615Y-33588246D01*
X99221915Y-33547051D01*
X99008674Y-33438398D01*
X98781051Y-33364439D01*
X98544671Y-33327000D01*
X98544666Y-33327000D01*
X98305334Y-33327000D01*
X98305329Y-33327000D01*
X98068948Y-33364439D01*
X97841325Y-33438398D01*
X97628080Y-33547054D01*
X97434467Y-33687721D01*
X97434462Y-33687725D01*
X97332181Y-33790007D01*
X97270858Y-33823492D01*
X97201166Y-33818508D01*
X97145233Y-33776636D01*
X97120816Y-33711172D01*
X97120500Y-33702326D01*
X97120500Y-31670945D01*
X97120500Y-31670943D01*
X97079577Y-31518216D01*
X97076902Y-31513583D01*
X97000524Y-31381290D01*
X97000521Y-31381286D01*
X97000520Y-31381284D01*
X96888716Y-31269480D01*
X96888715Y-31269479D01*
X96884385Y-31265149D01*
X96884374Y-31265139D01*
X95483590Y-29864355D01*
X95483588Y-29864352D01*
X95364717Y-29745481D01*
X95364716Y-29745480D01*
X95277904Y-29695360D01*
X95277904Y-29695359D01*
X95277900Y-29695358D01*
X95227785Y-29666423D01*
X95075057Y-29625499D01*
X94916943Y-29625499D01*
X94909347Y-29625499D01*
X94909331Y-29625500D01*
X82596097Y-29625500D01*
X82529058Y-29605815D01*
X82508416Y-29589181D01*
X82109481Y-29190246D01*
X82075996Y-29128923D01*
X82080980Y-29059231D01*
X82122852Y-29003298D01*
X82177760Y-28980093D01*
X82219534Y-28973477D01*
X82414219Y-28910220D01*
X82596610Y-28817287D01*
X82692901Y-28747328D01*
X82762213Y-28696971D01*
X82762215Y-28696968D01*
X82762219Y-28696966D01*
X82906966Y-28552219D01*
X82906968Y-28552215D01*
X82906971Y-28552213D01*
X82959732Y-28479590D01*
X83027287Y-28386610D01*
X83120220Y-28204219D01*
X83183477Y-28009534D01*
X83183478Y-28009525D01*
X83184615Y-28004794D01*
X83185772Y-28005071D01*
X83213313Y-27946971D01*
X83272623Y-27910038D01*
X83305860Y-27905500D01*
X95457903Y-27905500D01*
X95524942Y-27925185D01*
G37*
%TD.AperFunction*%
%TA.AperFunction,Conductor*%
G36*
X149015942Y-26425185D02*
G01*
X149036584Y-26441819D01*
X153829419Y-31234654D01*
X153862904Y-31295977D01*
X153857920Y-31365669D01*
X153854120Y-31374740D01*
X153782382Y-31528583D01*
X153736210Y-31581022D01*
X153669016Y-31600174D01*
X153602135Y-31579958D01*
X153557618Y-31528583D01*
X153505231Y-31416240D01*
X153487102Y-31377362D01*
X153487100Y-31377359D01*
X153487099Y-31377357D01*
X153361599Y-31198124D01*
X153346596Y-31183121D01*
X153206877Y-31043402D01*
X153068978Y-30946844D01*
X153027638Y-30917897D01*
X152877774Y-30848015D01*
X152829330Y-30825425D01*
X152829326Y-30825424D01*
X152829322Y-30825422D01*
X152617977Y-30768793D01*
X152400002Y-30749723D01*
X152399998Y-30749723D01*
X152287182Y-30759593D01*
X152182023Y-30768793D01*
X152182020Y-30768793D01*
X151970677Y-30825422D01*
X151970668Y-30825426D01*
X151772361Y-30917898D01*
X151772357Y-30917901D01*
X151639249Y-31011103D01*
X151573042Y-31033430D01*
X151505275Y-31016419D01*
X151480445Y-30997209D01*
X149839590Y-29356355D01*
X149839588Y-29356352D01*
X149720717Y-29237481D01*
X149720716Y-29237480D01*
X149633904Y-29187360D01*
X149633904Y-29187359D01*
X149633900Y-29187358D01*
X149583785Y-29158423D01*
X149431057Y-29117499D01*
X149272943Y-29117499D01*
X149265347Y-29117499D01*
X149265331Y-29117500D01*
X123744528Y-29117500D01*
X123677489Y-29097815D01*
X123631734Y-29045011D01*
X123621790Y-28975853D01*
X123650815Y-28912297D01*
X123670217Y-28894234D01*
X123692128Y-28877831D01*
X123712546Y-28862546D01*
X123798796Y-28747331D01*
X123849091Y-28612483D01*
X123855500Y-28552873D01*
X123855499Y-26529499D01*
X123875184Y-26462461D01*
X123927987Y-26416706D01*
X123979499Y-26405500D01*
X148948903Y-26405500D01*
X149015942Y-26425185D01*
G37*
%TD.AperFunction*%
%TA.AperFunction,Conductor*%
G36*
X96241628Y-26425185D02*
G01*
X96262270Y-26441819D01*
X99913181Y-30092730D01*
X99946666Y-30154053D01*
X99949500Y-30180411D01*
X99949500Y-30347903D01*
X99929815Y-30414942D01*
X99877011Y-30460697D01*
X99807853Y-30470641D01*
X99744297Y-30441616D01*
X99737819Y-30435584D01*
X96245590Y-26943355D01*
X96245588Y-26943352D01*
X96126717Y-26824481D01*
X96126716Y-26824480D01*
X96039904Y-26774360D01*
X96039904Y-26774359D01*
X96039900Y-26774358D01*
X95989785Y-26745423D01*
X95837057Y-26704499D01*
X95678943Y-26704499D01*
X95671347Y-26704499D01*
X95671331Y-26704500D01*
X83305860Y-26704500D01*
X83238821Y-26684815D01*
X83193066Y-26632011D01*
X83184962Y-26605122D01*
X83184615Y-26605206D01*
X83183478Y-26600472D01*
X83183477Y-26600466D01*
X83172869Y-26567817D01*
X83170874Y-26497976D01*
X83206955Y-26438143D01*
X83269656Y-26407316D01*
X83290800Y-26405500D01*
X96174589Y-26405500D01*
X96241628Y-26425185D01*
G37*
%TD.AperFunction*%
%TA.AperFunction,Conductor*%
G36*
X170892539Y-24904185D02*
G01*
X170938294Y-24956989D01*
X170949500Y-25008500D01*
X170949500Y-44841500D01*
X170929815Y-44908539D01*
X170877011Y-44954294D01*
X170825500Y-44965500D01*
X72236354Y-44965500D01*
X72169315Y-44945815D01*
X72123560Y-44893011D01*
X72114518Y-44864566D01*
X72111993Y-44851229D01*
X72055367Y-44552125D01*
X71953221Y-44197785D01*
X71818420Y-43854536D01*
X71652143Y-43525381D01*
X71455845Y-43213199D01*
X71231241Y-42920719D01*
X70980297Y-42650501D01*
X70705208Y-42404906D01*
X70705207Y-42404905D01*
X70705193Y-42404894D01*
X70408381Y-42186085D01*
X70092412Y-41995950D01*
X69760062Y-41836164D01*
X69760054Y-41836161D01*
X69760052Y-41836160D01*
X69596661Y-41775665D01*
X69414233Y-41708122D01*
X69414221Y-41708118D01*
X69057957Y-41612946D01*
X69057952Y-41612945D01*
X69057948Y-41612944D01*
X68694339Y-41551467D01*
X68694329Y-41551466D01*
X68569111Y-41542205D01*
X68546168Y-41538319D01*
X68543605Y-41537632D01*
X68539379Y-41536500D01*
X68539378Y-41536500D01*
X68496583Y-41536500D01*
X68487424Y-41536161D01*
X68485201Y-41535996D01*
X68444750Y-41532999D01*
X68444741Y-41533000D01*
X68437811Y-41534318D01*
X68414653Y-41536500D01*
X60845906Y-41536500D01*
X60778867Y-41516815D01*
X60759106Y-41501054D01*
X60645859Y-41390051D01*
X60551065Y-41297135D01*
X72994500Y-41297135D01*
X72994500Y-43792870D01*
X72994501Y-43792876D01*
X73000908Y-43852483D01*
X73051202Y-43987328D01*
X73051206Y-43987335D01*
X73137452Y-44102544D01*
X73137455Y-44102547D01*
X73252664Y-44188793D01*
X73252671Y-44188797D01*
X73387517Y-44239091D01*
X73387516Y-44239091D01*
X73394444Y-44239835D01*
X73447127Y-44245500D01*
X75142872Y-44245499D01*
X75202483Y-44239091D01*
X75337331Y-44188796D01*
X75452546Y-44102546D01*
X75538796Y-43987331D01*
X75589091Y-43852483D01*
X75593061Y-43815556D01*
X75619796Y-43751011D01*
X75677188Y-43711161D01*
X75747013Y-43708666D01*
X75807102Y-43744317D01*
X75816667Y-43755929D01*
X75843032Y-43792217D01*
X75987786Y-43936971D01*
X76142749Y-44049556D01*
X76153390Y-44057287D01*
X76269607Y-44116503D01*
X76335776Y-44150218D01*
X76335778Y-44150218D01*
X76335781Y-44150220D01*
X76440137Y-44184127D01*
X76530465Y-44213477D01*
X76631557Y-44229488D01*
X76732648Y-44245500D01*
X76732649Y-44245500D01*
X76937351Y-44245500D01*
X76937352Y-44245500D01*
X77139534Y-44213477D01*
X77334219Y-44150220D01*
X77516610Y-44057287D01*
X77637895Y-43969169D01*
X77682213Y-43936971D01*
X77682215Y-43936968D01*
X77682219Y-43936966D01*
X77826966Y-43792219D01*
X77826968Y-43792215D01*
X77826971Y-43792213D01*
X77947284Y-43626614D01*
X77947285Y-43626613D01*
X77947287Y-43626610D01*
X77994516Y-43533917D01*
X78042489Y-43483123D01*
X78110310Y-43466328D01*
X78176445Y-43488865D01*
X78215485Y-43533919D01*
X78262715Y-43626614D01*
X78383028Y-43792213D01*
X78527786Y-43936971D01*
X78682749Y-44049556D01*
X78693390Y-44057287D01*
X78809607Y-44116503D01*
X78875776Y-44150218D01*
X78875778Y-44150218D01*
X78875781Y-44150220D01*
X78980137Y-44184127D01*
X79070465Y-44213477D01*
X79171557Y-44229488D01*
X79272648Y-44245500D01*
X79272649Y-44245500D01*
X79477351Y-44245500D01*
X79477352Y-44245500D01*
X79679534Y-44213477D01*
X79874219Y-44150220D01*
X80056610Y-44057287D01*
X80177895Y-43969169D01*
X80222213Y-43936971D01*
X80222215Y-43936968D01*
X80222219Y-43936966D01*
X80366966Y-43792219D01*
X80366968Y-43792215D01*
X80366971Y-43792213D01*
X80487284Y-43626614D01*
X80487285Y-43626613D01*
X80487287Y-43626610D01*
X80534795Y-43533369D01*
X80582770Y-43482574D01*
X80650591Y-43465779D01*
X80716725Y-43488316D01*
X80755765Y-43533370D01*
X80803140Y-43626349D01*
X80923417Y-43791894D01*
X80923417Y-43791895D01*
X81068104Y-43936582D01*
X81233650Y-44056859D01*
X81415968Y-44149754D01*
X81610578Y-44212988D01*
X81665000Y-44221607D01*
X81665000Y-42860686D01*
X81669394Y-42865080D01*
X81760606Y-42917741D01*
X81862339Y-42945000D01*
X81967661Y-42945000D01*
X82069394Y-42917741D01*
X82160606Y-42865080D01*
X82165000Y-42860686D01*
X82165000Y-44221606D01*
X82219421Y-44212988D01*
X82414031Y-44149754D01*
X82596349Y-44056859D01*
X82761894Y-43936582D01*
X82761895Y-43936582D01*
X82906582Y-43791895D01*
X82906582Y-43791894D01*
X83026859Y-43626349D01*
X83119755Y-43444031D01*
X83182990Y-43249417D01*
X83215000Y-43047317D01*
X83215000Y-42795000D01*
X82230686Y-42795000D01*
X82235080Y-42790606D01*
X82287741Y-42699394D01*
X82315000Y-42597661D01*
X82315000Y-42492339D01*
X82287741Y-42390606D01*
X82235080Y-42299394D01*
X82230686Y-42295000D01*
X83215000Y-42295000D01*
X83215000Y-42042682D01*
X83182990Y-41840582D01*
X83119755Y-41645968D01*
X83026859Y-41463650D01*
X82906582Y-41298105D01*
X82906582Y-41298104D01*
X82761895Y-41153417D01*
X82596349Y-41033140D01*
X82414029Y-40940244D01*
X82219413Y-40877009D01*
X82165000Y-40868390D01*
X82165000Y-42229314D01*
X82160606Y-42224920D01*
X82069394Y-42172259D01*
X81967661Y-42145000D01*
X81862339Y-42145000D01*
X81760606Y-42172259D01*
X81669394Y-42224920D01*
X81665000Y-42229314D01*
X81665000Y-40868390D01*
X81610586Y-40877009D01*
X81415970Y-40940244D01*
X81233650Y-41033140D01*
X81068105Y-41153417D01*
X81068104Y-41153417D01*
X80923417Y-41298104D01*
X80923417Y-41298105D01*
X80803140Y-41463650D01*
X80755765Y-41556629D01*
X80707790Y-41607425D01*
X80639969Y-41624220D01*
X80573834Y-41601682D01*
X80534795Y-41556629D01*
X80514508Y-41516815D01*
X80487287Y-41463390D01*
X80451195Y-41413713D01*
X80366971Y-41297786D01*
X80222213Y-41153028D01*
X80056613Y-41032715D01*
X80056612Y-41032714D01*
X80056610Y-41032713D01*
X79999653Y-41003691D01*
X79874223Y-40939781D01*
X79679534Y-40876522D01*
X79504995Y-40848878D01*
X79477352Y-40844500D01*
X79272648Y-40844500D01*
X79248329Y-40848351D01*
X79070465Y-40876522D01*
X78875776Y-40939781D01*
X78693386Y-41032715D01*
X78527786Y-41153028D01*
X78383028Y-41297786D01*
X78262715Y-41463386D01*
X78215485Y-41556080D01*
X78167510Y-41606876D01*
X78099689Y-41623671D01*
X78033554Y-41601134D01*
X77994515Y-41556080D01*
X77984366Y-41536161D01*
X77947287Y-41463390D01*
X77911195Y-41413713D01*
X77826971Y-41297786D01*
X77682213Y-41153028D01*
X77516613Y-41032715D01*
X77516612Y-41032714D01*
X77516610Y-41032713D01*
X77459653Y-41003691D01*
X77334223Y-40939781D01*
X77139534Y-40876522D01*
X76964995Y-40848878D01*
X76937352Y-40844500D01*
X76732648Y-40844500D01*
X76708329Y-40848351D01*
X76530465Y-40876522D01*
X76335776Y-40939781D01*
X76153386Y-41032715D01*
X75987786Y-41153028D01*
X75843032Y-41297782D01*
X75816668Y-41334070D01*
X75761338Y-41376735D01*
X75691724Y-41382714D01*
X75629929Y-41350108D01*
X75595572Y-41289269D01*
X75593060Y-41274438D01*
X75592640Y-41270533D01*
X75589091Y-41237517D01*
X75538796Y-41102669D01*
X75538795Y-41102668D01*
X75538793Y-41102664D01*
X75452547Y-40987455D01*
X75452544Y-40987452D01*
X75337335Y-40901206D01*
X75337328Y-40901202D01*
X75202482Y-40850908D01*
X75202483Y-40850908D01*
X75142883Y-40844501D01*
X75142881Y-40844500D01*
X75142873Y-40844500D01*
X75142864Y-40844500D01*
X73447129Y-40844500D01*
X73447123Y-40844501D01*
X73387516Y-40850908D01*
X73252671Y-40901202D01*
X73252664Y-40901206D01*
X73137455Y-40987452D01*
X73137452Y-40987455D01*
X73051206Y-41102664D01*
X73051202Y-41102671D01*
X73000908Y-41237517D01*
X72994501Y-41297116D01*
X72994500Y-41297135D01*
X60551065Y-41297135D01*
X60483168Y-41230583D01*
X60143545Y-40945766D01*
X60143540Y-40945762D01*
X60143536Y-40945759D01*
X59782890Y-40688120D01*
X59782882Y-40688115D01*
X59782879Y-40688113D01*
X59403339Y-40459171D01*
X59007205Y-40260317D01*
X59007198Y-40260314D01*
X59007194Y-40260312D01*
X58632101Y-40107138D01*
X58596858Y-40092746D01*
X58596854Y-40092745D01*
X58596850Y-40092743D01*
X58174784Y-39957470D01*
X58174769Y-39957466D01*
X58174763Y-39957464D01*
X58174753Y-39957461D01*
X58174747Y-39957460D01*
X57743465Y-39855286D01*
X57743436Y-39855281D01*
X57305537Y-39786823D01*
X57305517Y-39786821D01*
X56863632Y-39752489D01*
X56863622Y-39752489D01*
X56642000Y-39752492D01*
X56576103Y-39752492D01*
X56569452Y-39754275D01*
X56537361Y-39758500D01*
X52607746Y-39758500D01*
X52160637Y-39793688D01*
X52160636Y-39793688D01*
X51717668Y-39863848D01*
X51717665Y-39863848D01*
X51717663Y-39863849D01*
X51561486Y-39901343D01*
X51281569Y-39968545D01*
X51281563Y-39968546D01*
X51281558Y-39968548D01*
X51281546Y-39968552D01*
X50855018Y-40107138D01*
X50440658Y-40278772D01*
X50041036Y-40482390D01*
X50041025Y-40482396D01*
X49658645Y-40716719D01*
X49658634Y-40716726D01*
X49295802Y-40980339D01*
X49295788Y-40980350D01*
X48954761Y-41271614D01*
X48954747Y-41271627D01*
X48637627Y-41588747D01*
X48637614Y-41588761D01*
X48346350Y-41929788D01*
X48346339Y-41929802D01*
X48082726Y-42292634D01*
X48082719Y-42292645D01*
X47848396Y-42675025D01*
X47848390Y-42675036D01*
X47644772Y-43074658D01*
X47473138Y-43489018D01*
X47334552Y-43915546D01*
X47334545Y-43915569D01*
X47229848Y-44351668D01*
X47159688Y-44794636D01*
X47159687Y-44794637D01*
X47155234Y-44851229D01*
X47130350Y-44916518D01*
X47074119Y-44957988D01*
X47031616Y-44965500D01*
X26024500Y-44965500D01*
X25957461Y-44945815D01*
X25911706Y-44893011D01*
X25900500Y-44841500D01*
X25900500Y-34741827D01*
X36122300Y-34741827D01*
X36122300Y-34953172D01*
X36155362Y-35161917D01*
X36220669Y-35362915D01*
X36220670Y-35362918D01*
X36315994Y-35550000D01*
X36316620Y-35551228D01*
X36440846Y-35722210D01*
X36590290Y-35871654D01*
X36761272Y-35995880D01*
X36785010Y-36007975D01*
X36949581Y-36091829D01*
X36949584Y-36091830D01*
X36996295Y-36107007D01*
X37150584Y-36157138D01*
X37359327Y-36190200D01*
X37359328Y-36190200D01*
X37570672Y-36190200D01*
X37570673Y-36190200D01*
X37779416Y-36157138D01*
X37980418Y-36091829D01*
X38168728Y-35995880D01*
X38339710Y-35871654D01*
X38489154Y-35722210D01*
X38613380Y-35551228D01*
X38709329Y-35362918D01*
X38774638Y-35161916D01*
X38807700Y-34953173D01*
X38807700Y-34741827D01*
X38774638Y-34533084D01*
X38726692Y-34385520D01*
X38709330Y-34332084D01*
X38709329Y-34332081D01*
X38613379Y-34143771D01*
X38598273Y-34122979D01*
X38489154Y-33972790D01*
X38339710Y-33823346D01*
X38168728Y-33699120D01*
X38146356Y-33687721D01*
X37980418Y-33603170D01*
X37980415Y-33603169D01*
X37779417Y-33537862D01*
X37675044Y-33521331D01*
X37570673Y-33504800D01*
X37359327Y-33504800D01*
X37289746Y-33515820D01*
X37150582Y-33537862D01*
X36949584Y-33603169D01*
X36949581Y-33603170D01*
X36761271Y-33699120D01*
X36694424Y-33747688D01*
X36590290Y-33823346D01*
X36590288Y-33823348D01*
X36590287Y-33823348D01*
X36440848Y-33972787D01*
X36440848Y-33972788D01*
X36440846Y-33972790D01*
X36387495Y-34046220D01*
X36316620Y-34143771D01*
X36220670Y-34332081D01*
X36220669Y-34332084D01*
X36155362Y-34533082D01*
X36122300Y-34741827D01*
X25900500Y-34741827D01*
X25900500Y-31989999D01*
X39385225Y-31989999D01*
X39385225Y-31990000D01*
X39404287Y-32207884D01*
X39404289Y-32207894D01*
X39460894Y-32419150D01*
X39460898Y-32419159D01*
X39553333Y-32617387D01*
X39596874Y-32679571D01*
X40157037Y-32119408D01*
X40174075Y-32182993D01*
X40239901Y-32297007D01*
X40332993Y-32390099D01*
X40447007Y-32455925D01*
X40510590Y-32472962D01*
X39950427Y-33033124D01*
X40012612Y-33076666D01*
X40210840Y-33169101D01*
X40210849Y-33169105D01*
X40422105Y-33225710D01*
X40422115Y-33225712D01*
X40645394Y-33245247D01*
X40645268Y-33246677D01*
X40705828Y-33264460D01*
X40751583Y-33317264D01*
X40761527Y-33386422D01*
X40751171Y-33421179D01*
X40730427Y-33465663D01*
X40730422Y-33465677D01*
X40673793Y-33677020D01*
X40673793Y-33677023D01*
X40672918Y-33687020D01*
X40654723Y-33894997D01*
X40654723Y-33895002D01*
X40655598Y-33905000D01*
X40673355Y-34107975D01*
X40673793Y-34112975D01*
X40673793Y-34112979D01*
X40730422Y-34324322D01*
X40730424Y-34324326D01*
X40730425Y-34324330D01*
X40778485Y-34427395D01*
X40822898Y-34522639D01*
X40822902Y-34522645D01*
X40867574Y-34586443D01*
X40889902Y-34652649D01*
X40890000Y-34657567D01*
X40890000Y-35366988D01*
X40832993Y-35334075D01*
X40705826Y-35300000D01*
X40574174Y-35300000D01*
X40447007Y-35334075D01*
X40390000Y-35366988D01*
X40390000Y-34550000D01*
X39842155Y-34550000D01*
X39782627Y-34556401D01*
X39782620Y-34556403D01*
X39647913Y-34606645D01*
X39647906Y-34606649D01*
X39532812Y-34692809D01*
X39532809Y-34692812D01*
X39446649Y-34807906D01*
X39446645Y-34807913D01*
X39396403Y-34942620D01*
X39396401Y-34942627D01*
X39390000Y-35002155D01*
X39390000Y-35550000D01*
X40206988Y-35550000D01*
X40174075Y-35607007D01*
X40140000Y-35734174D01*
X40140000Y-35865826D01*
X40174075Y-35992993D01*
X40206988Y-36050000D01*
X39390000Y-36050000D01*
X39390000Y-36597844D01*
X39396401Y-36657372D01*
X39396403Y-36657379D01*
X39446645Y-36792086D01*
X39446649Y-36792093D01*
X39532809Y-36907187D01*
X39532812Y-36907190D01*
X39647906Y-36993350D01*
X39647913Y-36993354D01*
X39782620Y-37043596D01*
X39782627Y-37043598D01*
X39842155Y-37049999D01*
X39842172Y-37050000D01*
X40390000Y-37050000D01*
X40390000Y-36233012D01*
X40447007Y-36265925D01*
X40574174Y-36300000D01*
X40705826Y-36300000D01*
X40832993Y-36265925D01*
X40890000Y-36233012D01*
X40890000Y-36927433D01*
X40870315Y-36994472D01*
X40867575Y-36998556D01*
X40822900Y-37062357D01*
X40822898Y-37062361D01*
X40730426Y-37260668D01*
X40730422Y-37260677D01*
X40673793Y-37472020D01*
X40673793Y-37472024D01*
X40654723Y-37689997D01*
X40654723Y-37690000D01*
X40673793Y-37907975D01*
X40673793Y-37907979D01*
X40730422Y-38119322D01*
X40730424Y-38119326D01*
X40730425Y-38119330D01*
X40756769Y-38175824D01*
X40822897Y-38317638D01*
X40829899Y-38327638D01*
X40948402Y-38496877D01*
X41103123Y-38651598D01*
X41282361Y-38777102D01*
X41480670Y-38869575D01*
X41692023Y-38926207D01*
X41874926Y-38942208D01*
X41909998Y-38945277D01*
X41910000Y-38945277D01*
X41910002Y-38945277D01*
X41938254Y-38942805D01*
X42127977Y-38926207D01*
X42339330Y-38869575D01*
X42537639Y-38777102D01*
X42716877Y-38651598D01*
X42871598Y-38496877D01*
X42997102Y-38317639D01*
X43067618Y-38166414D01*
X43113790Y-38113977D01*
X43180984Y-38094825D01*
X43247865Y-38115041D01*
X43292381Y-38166414D01*
X43362898Y-38317639D01*
X43488402Y-38496877D01*
X43643123Y-38651598D01*
X43822361Y-38777102D01*
X44020670Y-38869575D01*
X44232023Y-38926207D01*
X44414926Y-38942208D01*
X44449998Y-38945277D01*
X44450000Y-38945277D01*
X44450002Y-38945277D01*
X44478254Y-38942805D01*
X44667977Y-38926207D01*
X44879330Y-38869575D01*
X45077639Y-38777102D01*
X45256877Y-38651598D01*
X45411598Y-38496877D01*
X45537102Y-38317639D01*
X45607618Y-38166414D01*
X45653790Y-38113977D01*
X45720984Y-38094825D01*
X45787865Y-38115041D01*
X45832381Y-38166414D01*
X45902898Y-38317639D01*
X46028402Y-38496877D01*
X46183123Y-38651598D01*
X46362361Y-38777102D01*
X46560670Y-38869575D01*
X46772023Y-38926207D01*
X46954926Y-38942208D01*
X46989998Y-38945277D01*
X46990000Y-38945277D01*
X46990002Y-38945277D01*
X47018254Y-38942805D01*
X47207977Y-38926207D01*
X47419330Y-38869575D01*
X47617639Y-38777102D01*
X47796877Y-38651598D01*
X47951598Y-38496877D01*
X48077102Y-38317639D01*
X48147618Y-38166414D01*
X48193790Y-38113977D01*
X48260984Y-38094825D01*
X48327865Y-38115041D01*
X48372381Y-38166414D01*
X48442898Y-38317639D01*
X48568402Y-38496877D01*
X48723123Y-38651598D01*
X48902361Y-38777102D01*
X49100670Y-38869575D01*
X49312023Y-38926207D01*
X49494926Y-38942208D01*
X49529998Y-38945277D01*
X49530000Y-38945277D01*
X49530002Y-38945277D01*
X49558254Y-38942805D01*
X49747977Y-38926207D01*
X49959330Y-38869575D01*
X50157639Y-38777102D01*
X50336877Y-38651598D01*
X50491598Y-38496877D01*
X50617102Y-38317639D01*
X50687618Y-38166414D01*
X50733790Y-38113977D01*
X50800984Y-38094825D01*
X50867865Y-38115041D01*
X50912381Y-38166414D01*
X50982898Y-38317639D01*
X51108402Y-38496877D01*
X51263123Y-38651598D01*
X51442361Y-38777102D01*
X51640670Y-38869575D01*
X51852023Y-38926207D01*
X52034926Y-38942208D01*
X52069998Y-38945277D01*
X52070000Y-38945277D01*
X52070002Y-38945277D01*
X52098254Y-38942805D01*
X52287977Y-38926207D01*
X52499330Y-38869575D01*
X52697639Y-38777102D01*
X52876877Y-38651598D01*
X53031598Y-38496877D01*
X53157102Y-38317639D01*
X53249575Y-38119330D01*
X53306207Y-37907977D01*
X53325277Y-37690000D01*
X53306207Y-37472023D01*
X53260087Y-37299901D01*
X53249577Y-37260677D01*
X53249576Y-37260676D01*
X53249575Y-37260670D01*
X53157102Y-37062362D01*
X53157100Y-37062359D01*
X53157099Y-37062357D01*
X53031599Y-36883124D01*
X53025577Y-36877102D01*
X52876877Y-36728402D01*
X52719060Y-36617897D01*
X52697638Y-36602897D01*
X52584540Y-36550159D01*
X52499330Y-36510425D01*
X52499326Y-36510424D01*
X52499322Y-36510422D01*
X52287977Y-36453793D01*
X52064607Y-36434251D01*
X52064796Y-36432086D01*
X52006737Y-36415038D01*
X51960982Y-36362234D01*
X51951038Y-36293076D01*
X51961392Y-36258323D01*
X51979575Y-36219330D01*
X52036207Y-36007977D01*
X52054402Y-35800000D01*
X52055277Y-35790002D01*
X52055277Y-35789997D01*
X52049346Y-35722210D01*
X52036207Y-35572023D01*
X51982255Y-35370673D01*
X51979577Y-35360677D01*
X51979576Y-35360676D01*
X51979575Y-35360670D01*
X51961393Y-35321679D01*
X51950902Y-35252605D01*
X51979421Y-35188821D01*
X52037897Y-35150581D01*
X52064683Y-35146621D01*
X52064607Y-35145749D01*
X52106131Y-35142116D01*
X52287977Y-35126207D01*
X52499330Y-35069575D01*
X52697639Y-34977102D01*
X52876877Y-34851598D01*
X53031598Y-34696877D01*
X53157102Y-34517639D01*
X53249575Y-34319330D01*
X53306207Y-34107977D01*
X53324402Y-33900000D01*
X53325277Y-33890002D01*
X53325277Y-33889997D01*
X53315359Y-33776636D01*
X53306207Y-33672023D01*
X53252255Y-33470673D01*
X53249577Y-33460677D01*
X53249576Y-33460676D01*
X53249575Y-33460670D01*
X53157102Y-33262362D01*
X53157100Y-33262359D01*
X53157099Y-33262357D01*
X53031599Y-33083124D01*
X52981599Y-33033124D01*
X52876877Y-32928402D01*
X52719060Y-32817897D01*
X52697638Y-32802897D01*
X52584540Y-32750159D01*
X52499330Y-32710425D01*
X52499326Y-32710424D01*
X52499322Y-32710422D01*
X52287977Y-32653793D01*
X52064607Y-32634251D01*
X52064796Y-32632086D01*
X52006737Y-32615038D01*
X51960982Y-32562234D01*
X51951038Y-32493076D01*
X51961392Y-32458323D01*
X51979575Y-32419330D01*
X52036207Y-32207977D01*
X52054402Y-32000000D01*
X57164723Y-32000000D01*
X57180732Y-32182993D01*
X57183793Y-32217975D01*
X57183793Y-32217979D01*
X57240422Y-32429322D01*
X57240424Y-32429326D01*
X57240425Y-32429330D01*
X57268716Y-32490000D01*
X57332897Y-32627638D01*
X57350574Y-32652883D01*
X57458402Y-32806877D01*
X57613123Y-32961598D01*
X57792361Y-33087102D01*
X57990670Y-33179575D01*
X58202023Y-33236207D01*
X58387501Y-33252433D01*
X58425393Y-33255749D01*
X58425203Y-33257913D01*
X58483263Y-33274962D01*
X58529018Y-33327766D01*
X58538962Y-33396924D01*
X58528607Y-33431677D01*
X58510425Y-33470670D01*
X58510424Y-33470673D01*
X58510422Y-33470677D01*
X58453793Y-33682020D01*
X58453793Y-33682023D01*
X58453295Y-33687721D01*
X58434723Y-33899997D01*
X58434723Y-33900002D01*
X58441091Y-33972787D01*
X58453355Y-34112975D01*
X58453793Y-34117975D01*
X58453793Y-34117979D01*
X58510422Y-34329322D01*
X58510423Y-34329325D01*
X58510425Y-34329330D01*
X58528606Y-34368320D01*
X58539098Y-34437395D01*
X58510579Y-34501179D01*
X58452103Y-34539419D01*
X58425316Y-34543378D01*
X58425393Y-34544251D01*
X58286516Y-34556401D01*
X58202023Y-34563793D01*
X58202020Y-34563793D01*
X57990677Y-34620422D01*
X57990668Y-34620426D01*
X57792361Y-34712898D01*
X57792357Y-34712900D01*
X57613121Y-34838402D01*
X57458402Y-34993121D01*
X57332900Y-35172357D01*
X57332898Y-35172361D01*
X57240426Y-35370668D01*
X57240422Y-35370677D01*
X57183793Y-35582020D01*
X57183793Y-35582023D01*
X57181607Y-35607007D01*
X57164723Y-35799997D01*
X57164723Y-35800002D01*
X57183793Y-36017975D01*
X57183793Y-36017979D01*
X57240422Y-36229322D01*
X57240424Y-36229326D01*
X57240425Y-36229330D01*
X57270150Y-36293076D01*
X57332897Y-36427638D01*
X57350574Y-36452883D01*
X57458402Y-36606877D01*
X57613123Y-36761598D01*
X57792361Y-36887102D01*
X57990670Y-36979575D01*
X58202023Y-37036207D01*
X58387501Y-37052433D01*
X58425393Y-37055749D01*
X58425217Y-37057755D01*
X58483815Y-37074962D01*
X58529570Y-37127766D01*
X58539514Y-37196924D01*
X58529158Y-37231682D01*
X58510897Y-37270840D01*
X58510894Y-37270849D01*
X58454289Y-37482105D01*
X58454287Y-37482115D01*
X58435225Y-37699999D01*
X58435225Y-37700000D01*
X58454287Y-37917884D01*
X58454289Y-37917894D01*
X58510894Y-38129150D01*
X58510898Y-38129159D01*
X58603333Y-38327387D01*
X58646874Y-38389571D01*
X59207037Y-37829408D01*
X59224075Y-37892993D01*
X59289901Y-38007007D01*
X59382993Y-38100099D01*
X59497007Y-38165925D01*
X59560590Y-38182962D01*
X59000427Y-38743124D01*
X59062612Y-38786666D01*
X59260840Y-38879101D01*
X59260849Y-38879105D01*
X59472105Y-38935710D01*
X59472115Y-38935712D01*
X59689999Y-38954775D01*
X59690001Y-38954775D01*
X59907884Y-38935712D01*
X59907894Y-38935710D01*
X60119150Y-38879105D01*
X60119164Y-38879100D01*
X60317383Y-38786669D01*
X60317385Y-38786668D01*
X60379571Y-38743124D01*
X59819410Y-38182962D01*
X59882993Y-38165925D01*
X59997007Y-38100099D01*
X60090099Y-38007007D01*
X60155925Y-37892993D01*
X60172962Y-37829408D01*
X60733124Y-38389570D01*
X60776666Y-38327388D01*
X60847340Y-38175825D01*
X60893512Y-38123386D01*
X60960706Y-38104233D01*
X61027587Y-38124448D01*
X61072105Y-38175824D01*
X61142897Y-38327638D01*
X61146223Y-38332388D01*
X61268402Y-38506877D01*
X61423123Y-38661598D01*
X61602361Y-38787102D01*
X61800670Y-38879575D01*
X61800676Y-38879576D01*
X61800677Y-38879577D01*
X61826850Y-38886590D01*
X62012023Y-38936207D01*
X62194926Y-38952208D01*
X62229998Y-38955277D01*
X62230000Y-38955277D01*
X62230002Y-38955277D01*
X62258254Y-38952805D01*
X62447977Y-38936207D01*
X62659330Y-38879575D01*
X62857639Y-38787102D01*
X63036877Y-38661598D01*
X63191598Y-38506877D01*
X63317102Y-38327639D01*
X63387618Y-38176414D01*
X63433790Y-38123977D01*
X63500984Y-38104825D01*
X63567865Y-38125041D01*
X63612381Y-38176414D01*
X63682898Y-38327639D01*
X63808402Y-38506877D01*
X63963123Y-38661598D01*
X64142361Y-38787102D01*
X64340670Y-38879575D01*
X64340676Y-38879576D01*
X64340677Y-38879577D01*
X64366850Y-38886590D01*
X64552023Y-38936207D01*
X64734926Y-38952208D01*
X64769998Y-38955277D01*
X64770000Y-38955277D01*
X64770002Y-38955277D01*
X64798254Y-38952805D01*
X64987977Y-38936207D01*
X65199330Y-38879575D01*
X65397639Y-38787102D01*
X65576877Y-38661598D01*
X65731598Y-38506877D01*
X65857102Y-38327639D01*
X65927618Y-38176414D01*
X65973790Y-38123977D01*
X66040984Y-38104825D01*
X66107865Y-38125041D01*
X66152381Y-38176414D01*
X66222898Y-38327639D01*
X66348402Y-38506877D01*
X66503123Y-38661598D01*
X66682361Y-38787102D01*
X66880670Y-38879575D01*
X66880676Y-38879576D01*
X66880677Y-38879577D01*
X66906850Y-38886590D01*
X67092023Y-38936207D01*
X67274926Y-38952208D01*
X67309998Y-38955277D01*
X67310000Y-38955277D01*
X67310002Y-38955277D01*
X67338254Y-38952805D01*
X67527977Y-38936207D01*
X67739330Y-38879575D01*
X67937639Y-38787102D01*
X68116877Y-38661598D01*
X68271598Y-38506877D01*
X68397102Y-38327639D01*
X68467618Y-38176414D01*
X68513790Y-38123977D01*
X68580984Y-38104825D01*
X68647865Y-38125041D01*
X68692381Y-38176414D01*
X68762898Y-38327639D01*
X68888402Y-38506877D01*
X69043123Y-38661598D01*
X69222361Y-38787102D01*
X69420670Y-38879575D01*
X69420676Y-38879576D01*
X69420677Y-38879577D01*
X69446850Y-38886590D01*
X69632023Y-38936207D01*
X69814926Y-38952208D01*
X69849998Y-38955277D01*
X69850000Y-38955277D01*
X69850002Y-38955277D01*
X69878254Y-38952805D01*
X70067977Y-38936207D01*
X70279330Y-38879575D01*
X70477639Y-38787102D01*
X70656877Y-38661598D01*
X70811598Y-38506877D01*
X70937102Y-38327639D01*
X71007618Y-38176414D01*
X71053790Y-38123977D01*
X71120984Y-38104825D01*
X71187865Y-38125041D01*
X71232381Y-38176414D01*
X71302898Y-38327639D01*
X71428402Y-38506877D01*
X71583123Y-38661598D01*
X71762361Y-38787102D01*
X71960670Y-38879575D01*
X71960676Y-38879576D01*
X71960677Y-38879577D01*
X71986850Y-38886590D01*
X72172023Y-38936207D01*
X72354926Y-38952208D01*
X72389998Y-38955277D01*
X72390000Y-38955277D01*
X72390002Y-38955277D01*
X72418254Y-38952805D01*
X72607977Y-38936207D01*
X72819330Y-38879575D01*
X73017639Y-38787102D01*
X73196877Y-38661598D01*
X73351598Y-38506877D01*
X73477102Y-38327639D01*
X73547618Y-38176414D01*
X73593790Y-38123977D01*
X73660984Y-38104825D01*
X73727865Y-38125041D01*
X73772381Y-38176414D01*
X73842898Y-38327639D01*
X73968402Y-38506877D01*
X74123123Y-38661598D01*
X74302361Y-38787102D01*
X74500670Y-38879575D01*
X74500676Y-38879576D01*
X74500677Y-38879577D01*
X74526850Y-38886590D01*
X74712023Y-38936207D01*
X74894926Y-38952208D01*
X74929998Y-38955277D01*
X74930000Y-38955277D01*
X74930002Y-38955277D01*
X74958254Y-38952805D01*
X75147977Y-38936207D01*
X75359330Y-38879575D01*
X75557639Y-38787102D01*
X75736877Y-38661598D01*
X75891598Y-38506877D01*
X76017102Y-38327639D01*
X76087618Y-38176414D01*
X76133790Y-38123977D01*
X76200984Y-38104825D01*
X76267865Y-38125041D01*
X76312381Y-38176414D01*
X76382898Y-38327639D01*
X76508402Y-38506877D01*
X76663123Y-38661598D01*
X76842361Y-38787102D01*
X77040670Y-38879575D01*
X77040676Y-38879576D01*
X77040677Y-38879577D01*
X77066850Y-38886590D01*
X77252023Y-38936207D01*
X77434926Y-38952208D01*
X77469998Y-38955277D01*
X77470000Y-38955277D01*
X77470002Y-38955277D01*
X77498254Y-38952805D01*
X77687977Y-38936207D01*
X77899330Y-38879575D01*
X78097639Y-38787102D01*
X78276877Y-38661598D01*
X78431598Y-38506877D01*
X78557102Y-38327639D01*
X78627618Y-38176414D01*
X78673790Y-38123977D01*
X78740984Y-38104825D01*
X78807865Y-38125041D01*
X78852381Y-38176414D01*
X78922898Y-38327639D01*
X79048402Y-38506877D01*
X79203123Y-38661598D01*
X79382361Y-38787102D01*
X79580670Y-38879575D01*
X79580676Y-38879576D01*
X79580677Y-38879577D01*
X79606850Y-38886590D01*
X79792023Y-38936207D01*
X79974926Y-38952208D01*
X80009998Y-38955277D01*
X80010000Y-38955277D01*
X80010002Y-38955277D01*
X80038254Y-38952805D01*
X80227977Y-38936207D01*
X80439330Y-38879575D01*
X80637639Y-38787102D01*
X80816877Y-38661598D01*
X80971598Y-38506877D01*
X81097102Y-38327639D01*
X81167618Y-38176414D01*
X81213790Y-38123977D01*
X81280984Y-38104825D01*
X81347865Y-38125041D01*
X81392381Y-38176414D01*
X81462898Y-38327639D01*
X81588402Y-38506877D01*
X81743123Y-38661598D01*
X81922361Y-38787102D01*
X82120670Y-38879575D01*
X82120676Y-38879576D01*
X82120677Y-38879577D01*
X82146850Y-38886590D01*
X82332023Y-38936207D01*
X82514926Y-38952208D01*
X82549998Y-38955277D01*
X82550000Y-38955277D01*
X82550002Y-38955277D01*
X82578254Y-38952805D01*
X82767977Y-38936207D01*
X82979330Y-38879575D01*
X83177639Y-38787102D01*
X83356877Y-38661598D01*
X83511598Y-38506877D01*
X83637102Y-38327639D01*
X83707895Y-38175822D01*
X83754066Y-38123385D01*
X83821260Y-38104233D01*
X83888141Y-38124449D01*
X83932658Y-38175824D01*
X84003333Y-38327387D01*
X84046874Y-38389571D01*
X84607037Y-37829408D01*
X84624075Y-37892993D01*
X84689901Y-38007007D01*
X84782993Y-38100099D01*
X84897007Y-38165925D01*
X84960590Y-38182962D01*
X84400427Y-38743124D01*
X84462612Y-38786666D01*
X84660840Y-38879101D01*
X84660849Y-38879105D01*
X84872105Y-38935710D01*
X84872115Y-38935712D01*
X85089999Y-38954775D01*
X85090001Y-38954775D01*
X85307884Y-38935712D01*
X85307894Y-38935710D01*
X85519150Y-38879105D01*
X85519164Y-38879100D01*
X85717383Y-38786669D01*
X85717385Y-38786668D01*
X85779571Y-38743124D01*
X85219410Y-38182962D01*
X85282993Y-38165925D01*
X85397007Y-38100099D01*
X85490099Y-38007007D01*
X85555925Y-37892993D01*
X85572962Y-37829408D01*
X86133124Y-38389570D01*
X86176666Y-38327388D01*
X86247340Y-38175825D01*
X86293512Y-38123386D01*
X86360706Y-38104233D01*
X86427587Y-38124448D01*
X86472105Y-38175824D01*
X86542897Y-38327638D01*
X86546223Y-38332388D01*
X86668402Y-38506877D01*
X86823123Y-38661598D01*
X87002361Y-38787102D01*
X87200670Y-38879575D01*
X87200676Y-38879576D01*
X87200677Y-38879577D01*
X87226850Y-38886590D01*
X87412023Y-38936207D01*
X87594926Y-38952208D01*
X87629998Y-38955277D01*
X87630000Y-38955277D01*
X87630002Y-38955277D01*
X87658254Y-38952805D01*
X87847977Y-38936207D01*
X88059330Y-38879575D01*
X88257639Y-38787102D01*
X88436877Y-38661598D01*
X88591598Y-38506877D01*
X88717102Y-38327639D01*
X88787618Y-38176414D01*
X88833790Y-38123977D01*
X88900984Y-38104825D01*
X88967865Y-38125041D01*
X89012381Y-38176414D01*
X89082898Y-38327639D01*
X89208402Y-38506877D01*
X89363123Y-38661598D01*
X89542361Y-38787102D01*
X89740670Y-38879575D01*
X89740676Y-38879576D01*
X89740677Y-38879577D01*
X89766850Y-38886590D01*
X89952023Y-38936207D01*
X90134926Y-38952208D01*
X90169998Y-38955277D01*
X90170000Y-38955277D01*
X90170002Y-38955277D01*
X90198254Y-38952805D01*
X90387977Y-38936207D01*
X90599330Y-38879575D01*
X90797639Y-38787102D01*
X90976877Y-38661598D01*
X91131598Y-38506877D01*
X91257102Y-38327639D01*
X91327618Y-38176414D01*
X91373790Y-38123977D01*
X91440984Y-38104825D01*
X91507865Y-38125041D01*
X91552381Y-38176414D01*
X91622898Y-38327639D01*
X91748402Y-38506877D01*
X91903123Y-38661598D01*
X92082361Y-38787102D01*
X92280670Y-38879575D01*
X92280676Y-38879576D01*
X92280677Y-38879577D01*
X92306850Y-38886590D01*
X92492023Y-38936207D01*
X92674926Y-38952208D01*
X92709998Y-38955277D01*
X92710000Y-38955277D01*
X92710002Y-38955277D01*
X92738254Y-38952805D01*
X92927977Y-38936207D01*
X93139330Y-38879575D01*
X93337639Y-38787102D01*
X93516877Y-38661598D01*
X93671598Y-38506877D01*
X93797102Y-38327639D01*
X93867618Y-38176414D01*
X93913790Y-38123977D01*
X93980984Y-38104825D01*
X94047865Y-38125041D01*
X94092381Y-38176414D01*
X94162898Y-38327639D01*
X94288402Y-38506877D01*
X94443123Y-38661598D01*
X94622361Y-38787102D01*
X94820670Y-38879575D01*
X94820676Y-38879576D01*
X94820677Y-38879577D01*
X94846850Y-38886590D01*
X95032023Y-38936207D01*
X95214926Y-38952208D01*
X95249998Y-38955277D01*
X95250000Y-38955277D01*
X95250002Y-38955277D01*
X95278254Y-38952805D01*
X95467977Y-38936207D01*
X95679330Y-38879575D01*
X95877639Y-38787102D01*
X96056877Y-38661598D01*
X96211598Y-38506877D01*
X96337102Y-38327639D01*
X96365075Y-38267649D01*
X96411247Y-38215210D01*
X96478440Y-38196058D01*
X96545321Y-38216273D01*
X96565138Y-38232373D01*
X102742139Y-44409374D01*
X102742149Y-44409385D01*
X102746479Y-44413715D01*
X102746480Y-44413716D01*
X102858284Y-44525520D01*
X102858286Y-44525521D01*
X102858290Y-44525524D01*
X102904367Y-44552126D01*
X102995216Y-44604577D01*
X103107019Y-44634534D01*
X103147942Y-44645500D01*
X103147943Y-44645500D01*
X115888331Y-44645500D01*
X115888347Y-44645501D01*
X115895943Y-44645501D01*
X116054054Y-44645501D01*
X116054057Y-44645501D01*
X116206785Y-44604577D01*
X116297634Y-44552125D01*
X116343716Y-44525520D01*
X116455520Y-44413716D01*
X116455520Y-44413714D01*
X116465724Y-44403511D01*
X116465728Y-44403506D01*
X116741980Y-44127253D01*
X116803301Y-44093770D01*
X116872993Y-44098754D01*
X116885954Y-44104451D01*
X116975776Y-44150218D01*
X116975778Y-44150218D01*
X116975781Y-44150220D01*
X117080137Y-44184127D01*
X117170465Y-44213477D01*
X117271557Y-44229488D01*
X117372648Y-44245500D01*
X117372649Y-44245500D01*
X117577351Y-44245500D01*
X117577352Y-44245500D01*
X117779534Y-44213477D01*
X117974219Y-44150220D01*
X118156610Y-44057287D01*
X118277895Y-43969169D01*
X118322213Y-43936971D01*
X118322215Y-43936968D01*
X118322219Y-43936966D01*
X118466966Y-43792219D01*
X118466968Y-43792215D01*
X118466971Y-43792213D01*
X118587284Y-43626614D01*
X118587285Y-43626613D01*
X118587287Y-43626610D01*
X118634516Y-43533917D01*
X118682489Y-43483123D01*
X118750310Y-43466328D01*
X118816445Y-43488865D01*
X118855485Y-43533919D01*
X118902715Y-43626614D01*
X119023028Y-43792213D01*
X119167786Y-43936971D01*
X119322749Y-44049556D01*
X119333390Y-44057287D01*
X119449607Y-44116503D01*
X119515776Y-44150218D01*
X119515778Y-44150218D01*
X119515781Y-44150220D01*
X119620137Y-44184127D01*
X119710465Y-44213477D01*
X119811557Y-44229488D01*
X119912648Y-44245500D01*
X119912649Y-44245500D01*
X120117351Y-44245500D01*
X120117352Y-44245500D01*
X120319534Y-44213477D01*
X120514219Y-44150220D01*
X120696610Y-44057287D01*
X120817895Y-43969169D01*
X120862213Y-43936971D01*
X120862215Y-43936968D01*
X120862219Y-43936966D01*
X121006966Y-43792219D01*
X121006968Y-43792215D01*
X121006971Y-43792213D01*
X121127284Y-43626614D01*
X121127285Y-43626613D01*
X121127287Y-43626610D01*
X121174516Y-43533917D01*
X121222489Y-43483123D01*
X121290310Y-43466328D01*
X121356445Y-43488865D01*
X121395485Y-43533919D01*
X121442715Y-43626614D01*
X121563028Y-43792213D01*
X121707786Y-43936971D01*
X121862749Y-44049556D01*
X121873390Y-44057287D01*
X121989607Y-44116503D01*
X122055776Y-44150218D01*
X122055778Y-44150218D01*
X122055781Y-44150220D01*
X122160137Y-44184127D01*
X122250465Y-44213477D01*
X122351557Y-44229488D01*
X122452648Y-44245500D01*
X122452649Y-44245500D01*
X122657351Y-44245500D01*
X122657352Y-44245500D01*
X122859534Y-44213477D01*
X123054219Y-44150220D01*
X123236610Y-44057287D01*
X123357895Y-43969169D01*
X123402213Y-43936971D01*
X123402215Y-43936968D01*
X123402219Y-43936966D01*
X123546966Y-43792219D01*
X123546968Y-43792215D01*
X123546971Y-43792213D01*
X123607670Y-43708666D01*
X123667287Y-43626610D01*
X123760220Y-43444219D01*
X123823477Y-43249534D01*
X123855500Y-43047352D01*
X123855500Y-42042648D01*
X123837626Y-41929795D01*
X123823477Y-41840465D01*
X123780475Y-41708119D01*
X123760220Y-41645781D01*
X123760218Y-41645778D01*
X123760218Y-41645776D01*
X123714515Y-41556080D01*
X123667287Y-41463390D01*
X123631195Y-41413713D01*
X123546971Y-41297786D01*
X123402213Y-41153028D01*
X123236613Y-41032715D01*
X123236612Y-41032714D01*
X123236610Y-41032713D01*
X123107612Y-40966985D01*
X123056816Y-40919010D01*
X123040021Y-40851189D01*
X123062559Y-40785054D01*
X123117274Y-40741603D01*
X123163907Y-40732500D01*
X150247331Y-40732500D01*
X150247347Y-40732501D01*
X150254943Y-40732501D01*
X150413054Y-40732501D01*
X150413057Y-40732501D01*
X150565785Y-40691577D01*
X150615904Y-40662639D01*
X150702716Y-40612520D01*
X150814520Y-40500716D01*
X150814520Y-40500714D01*
X150824728Y-40490507D01*
X150824729Y-40490504D01*
X152668202Y-38647032D01*
X152729521Y-38613550D01*
X152799213Y-38618534D01*
X152843560Y-38647035D01*
X152863123Y-38666598D01*
X153042361Y-38792102D01*
X153240670Y-38884575D01*
X153240676Y-38884576D01*
X153240677Y-38884577D01*
X153265525Y-38891235D01*
X153452023Y-38941207D01*
X153634926Y-38957208D01*
X153669998Y-38960277D01*
X153670000Y-38960277D01*
X153670002Y-38960277D01*
X153698254Y-38957805D01*
X153887977Y-38941207D01*
X154099330Y-38884575D01*
X154297639Y-38792102D01*
X154476877Y-38666598D01*
X154631598Y-38511877D01*
X154757102Y-38332639D01*
X154827618Y-38181414D01*
X154873790Y-38128977D01*
X154940984Y-38109825D01*
X155007865Y-38130041D01*
X155052381Y-38181414D01*
X155122898Y-38332639D01*
X155248402Y-38511877D01*
X155403123Y-38666598D01*
X155582361Y-38792102D01*
X155780670Y-38884575D01*
X155780676Y-38884576D01*
X155780677Y-38884577D01*
X155805525Y-38891235D01*
X155992023Y-38941207D01*
X156174926Y-38957208D01*
X156209998Y-38960277D01*
X156210000Y-38960277D01*
X156210002Y-38960277D01*
X156238254Y-38957805D01*
X156427977Y-38941207D01*
X156639330Y-38884575D01*
X156837639Y-38792102D01*
X157016877Y-38666598D01*
X157171598Y-38511877D01*
X157297102Y-38332639D01*
X157389575Y-38134330D01*
X157446207Y-37922977D01*
X157465277Y-37705000D01*
X157464839Y-37699999D01*
X157456170Y-37600904D01*
X157446207Y-37487023D01*
X157402572Y-37324174D01*
X157389577Y-37275677D01*
X157389576Y-37275676D01*
X157389575Y-37275670D01*
X157297102Y-37077362D01*
X157297100Y-37077359D01*
X157297099Y-37077357D01*
X157171599Y-36898124D01*
X157150577Y-36877102D01*
X157016877Y-36743402D01*
X156837639Y-36617898D01*
X156837640Y-36617898D01*
X156837638Y-36617897D01*
X156738484Y-36571661D01*
X156639330Y-36525425D01*
X156639326Y-36525424D01*
X156639322Y-36525422D01*
X156427977Y-36468793D01*
X156204607Y-36449251D01*
X156204796Y-36447086D01*
X156146737Y-36430038D01*
X156100982Y-36377234D01*
X156091038Y-36308076D01*
X156101392Y-36273323D01*
X156119575Y-36234330D01*
X156176207Y-36022977D01*
X156195277Y-35805000D01*
X156194839Y-35799997D01*
X156181228Y-35644419D01*
X156176207Y-35587023D01*
X156119575Y-35375670D01*
X156101393Y-35336679D01*
X156090902Y-35267605D01*
X156119421Y-35203821D01*
X156177897Y-35165581D01*
X156204683Y-35161621D01*
X156204607Y-35160749D01*
X156235192Y-35158072D01*
X156427977Y-35141207D01*
X156639330Y-35084575D01*
X156837639Y-34992102D01*
X157016877Y-34866598D01*
X157155647Y-34727828D01*
X157864500Y-34727828D01*
X157864500Y-34967171D01*
X157901939Y-35203551D01*
X157975898Y-35431174D01*
X158036444Y-35550000D01*
X158052761Y-35582024D01*
X158084554Y-35644419D01*
X158225221Y-35838032D01*
X158225225Y-35838037D01*
X158394462Y-36007274D01*
X158394467Y-36007278D01*
X158510844Y-36091830D01*
X158588084Y-36147948D01*
X158704121Y-36207072D01*
X158801325Y-36256601D01*
X158801327Y-36256601D01*
X158801330Y-36256603D01*
X159028949Y-36330561D01*
X159150735Y-36349849D01*
X159265329Y-36368000D01*
X159265334Y-36368000D01*
X159504671Y-36368000D01*
X159609135Y-36351453D01*
X159741051Y-36330561D01*
X159968670Y-36256603D01*
X160181916Y-36147948D01*
X160375539Y-36007273D01*
X160544773Y-35838039D01*
X160685448Y-35644416D01*
X160794103Y-35431170D01*
X160868061Y-35203551D01*
X160894068Y-35039348D01*
X160905500Y-34967171D01*
X160905500Y-34727828D01*
X160880311Y-34568793D01*
X160868061Y-34491449D01*
X160794103Y-34263830D01*
X160794101Y-34263827D01*
X160794101Y-34263825D01*
X160722333Y-34122975D01*
X160685448Y-34050584D01*
X160667476Y-34025847D01*
X160544778Y-33856967D01*
X160544774Y-33856962D01*
X160375537Y-33687725D01*
X160375532Y-33687721D01*
X160181919Y-33547054D01*
X160181918Y-33547053D01*
X160181916Y-33547052D01*
X160115324Y-33513121D01*
X159968674Y-33438398D01*
X159741051Y-33364439D01*
X159504671Y-33327000D01*
X159504666Y-33327000D01*
X159265334Y-33327000D01*
X159265329Y-33327000D01*
X159028948Y-33364439D01*
X158801325Y-33438398D01*
X158588080Y-33547054D01*
X158394467Y-33687721D01*
X158394462Y-33687725D01*
X158225225Y-33856962D01*
X158225221Y-33856967D01*
X158084554Y-34050580D01*
X157975898Y-34263825D01*
X157901939Y-34491448D01*
X157864500Y-34727828D01*
X157155647Y-34727828D01*
X157171598Y-34711877D01*
X157297102Y-34532639D01*
X157389575Y-34334330D01*
X157446207Y-34122977D01*
X157465277Y-33905000D01*
X157464839Y-33899997D01*
X157458146Y-33823492D01*
X157446207Y-33687023D01*
X157389575Y-33475670D01*
X157297102Y-33277362D01*
X157297100Y-33277359D01*
X157297099Y-33277357D01*
X157171599Y-33098124D01*
X157106599Y-33033124D01*
X157016877Y-32943402D01*
X156837639Y-32817898D01*
X156837640Y-32817898D01*
X156837638Y-32817897D01*
X156738484Y-32771661D01*
X156639330Y-32725425D01*
X156639326Y-32725424D01*
X156639322Y-32725422D01*
X156427977Y-32668793D01*
X156204607Y-32649251D01*
X156204796Y-32647086D01*
X156146737Y-32630038D01*
X156100982Y-32577234D01*
X156091038Y-32508076D01*
X156101392Y-32473323D01*
X156119575Y-32434330D01*
X156176207Y-32222977D01*
X156195277Y-32005000D01*
X156194839Y-31999997D01*
X156188206Y-31924174D01*
X156176207Y-31787023D01*
X156119575Y-31575670D01*
X156027102Y-31377362D01*
X156027100Y-31377359D01*
X156027099Y-31377357D01*
X155901599Y-31198124D01*
X155886596Y-31183121D01*
X155746877Y-31043402D01*
X155608978Y-30946844D01*
X155567638Y-30917897D01*
X155417774Y-30848015D01*
X155369330Y-30825425D01*
X155369326Y-30825424D01*
X155369322Y-30825422D01*
X155157982Y-30768794D01*
X155157973Y-30768792D01*
X155097785Y-30763526D01*
X155032717Y-30738072D01*
X155020914Y-30727679D01*
X149736590Y-25443355D01*
X149736588Y-25443352D01*
X149617717Y-25324481D01*
X149617716Y-25324480D01*
X149530904Y-25274360D01*
X149530904Y-25274359D01*
X149530900Y-25274358D01*
X149480785Y-25245423D01*
X149328057Y-25204499D01*
X149169943Y-25204499D01*
X149162347Y-25204499D01*
X149162331Y-25204500D01*
X118895940Y-25204500D01*
X118855019Y-25215464D01*
X118855019Y-25215465D01*
X118817751Y-25225451D01*
X118743214Y-25245423D01*
X118743209Y-25245426D01*
X118606290Y-25324475D01*
X118606282Y-25324481D01*
X118494478Y-25436286D01*
X118208020Y-25722743D01*
X118146697Y-25756228D01*
X118077005Y-25751244D01*
X118064045Y-25745547D01*
X117974219Y-25699779D01*
X117779536Y-25636523D01*
X117644746Y-25615174D01*
X117577352Y-25604500D01*
X117372648Y-25604500D01*
X117348329Y-25608351D01*
X117170465Y-25636522D01*
X116975776Y-25699781D01*
X116793386Y-25792715D01*
X116627786Y-25913028D01*
X116483028Y-26057786D01*
X116362713Y-26223388D01*
X116315203Y-26316630D01*
X116267228Y-26367426D01*
X116199407Y-26384220D01*
X116133272Y-26361682D01*
X116094234Y-26316628D01*
X116046861Y-26223652D01*
X115926582Y-26058105D01*
X115926582Y-26058104D01*
X115781895Y-25913417D01*
X115616349Y-25793140D01*
X115434029Y-25700244D01*
X115239413Y-25637009D01*
X115185000Y-25628390D01*
X115185000Y-26989314D01*
X115180606Y-26984920D01*
X115089394Y-26932259D01*
X114987661Y-26905000D01*
X114882339Y-26905000D01*
X114780606Y-26932259D01*
X114689394Y-26984920D01*
X114685000Y-26989314D01*
X114685000Y-25628390D01*
X114630586Y-25637009D01*
X114435970Y-25700244D01*
X114253650Y-25793140D01*
X114088105Y-25913417D01*
X114088104Y-25913417D01*
X113943417Y-26058104D01*
X113943417Y-26058105D01*
X113823140Y-26223650D01*
X113730244Y-26405968D01*
X113667009Y-26600582D01*
X113635000Y-26802682D01*
X113635000Y-27055000D01*
X114619314Y-27055000D01*
X114614920Y-27059394D01*
X114562259Y-27150606D01*
X114535000Y-27252339D01*
X114535000Y-27357661D01*
X114562259Y-27459394D01*
X114614920Y-27550606D01*
X114619314Y-27555000D01*
X113635000Y-27555000D01*
X113635000Y-27807317D01*
X113667009Y-28009417D01*
X113730244Y-28204031D01*
X113823140Y-28386349D01*
X113943417Y-28551894D01*
X113943417Y-28551895D01*
X114088104Y-28696582D01*
X114253650Y-28816859D01*
X114435968Y-28909754D01*
X114630578Y-28972988D01*
X114685000Y-28981607D01*
X114685000Y-27620686D01*
X114689394Y-27625080D01*
X114780606Y-27677741D01*
X114882339Y-27705000D01*
X114987661Y-27705000D01*
X115089394Y-27677741D01*
X115180606Y-27625080D01*
X115185000Y-27620686D01*
X115185000Y-28981606D01*
X115239421Y-28972988D01*
X115434031Y-28909754D01*
X115616349Y-28816859D01*
X115781894Y-28696582D01*
X115781895Y-28696582D01*
X115926582Y-28551895D01*
X115926582Y-28551894D01*
X116046861Y-28386347D01*
X116094234Y-28293371D01*
X116142208Y-28242575D01*
X116210028Y-28225779D01*
X116276164Y-28248316D01*
X116315203Y-28293369D01*
X116362713Y-28386611D01*
X116483028Y-28552213D01*
X116627786Y-28696971D01*
X116782749Y-28809556D01*
X116793390Y-28817287D01*
X116909607Y-28876503D01*
X116975776Y-28910218D01*
X116975778Y-28910218D01*
X116975781Y-28910220D01*
X117080137Y-28944127D01*
X117170465Y-28973477D01*
X117271557Y-28989488D01*
X117372648Y-29005500D01*
X117372649Y-29005500D01*
X117577351Y-29005500D01*
X117577352Y-29005500D01*
X117779534Y-28973477D01*
X117974219Y-28910220D01*
X118156610Y-28817287D01*
X118252901Y-28747328D01*
X118322213Y-28696971D01*
X118322215Y-28696968D01*
X118322219Y-28696966D01*
X118466966Y-28552219D01*
X118466968Y-28552215D01*
X118466971Y-28552213D01*
X118587284Y-28386614D01*
X118587286Y-28386611D01*
X118587287Y-28386610D01*
X118634516Y-28293917D01*
X118682489Y-28243123D01*
X118750310Y-28226328D01*
X118816445Y-28248865D01*
X118855485Y-28293919D01*
X118902715Y-28386614D01*
X119023028Y-28552213D01*
X119167786Y-28696971D01*
X119322749Y-28809556D01*
X119333390Y-28817287D01*
X119449607Y-28876503D01*
X119515776Y-28910218D01*
X119515778Y-28910218D01*
X119515781Y-28910220D01*
X119620137Y-28944127D01*
X119710465Y-28973477D01*
X119811557Y-28989488D01*
X119912648Y-29005500D01*
X119912649Y-29005500D01*
X120117351Y-29005500D01*
X120117352Y-29005500D01*
X120319534Y-28973477D01*
X120514219Y-28910220D01*
X120604043Y-28864451D01*
X120672712Y-28851555D01*
X120737453Y-28877831D01*
X120748020Y-28887255D01*
X121943139Y-30082374D01*
X121943149Y-30082385D01*
X121947479Y-30086715D01*
X121947480Y-30086716D01*
X122059284Y-30198520D01*
X122059286Y-30198521D01*
X122059290Y-30198524D01*
X122196209Y-30277573D01*
X122196216Y-30277577D01*
X122298773Y-30305057D01*
X122348942Y-30318500D01*
X122348943Y-30318500D01*
X149051903Y-30318500D01*
X149118942Y-30338185D01*
X149139584Y-30354819D01*
X149427878Y-30643113D01*
X149461363Y-30704436D01*
X149456379Y-30774128D01*
X149414507Y-30830061D01*
X149392602Y-30843176D01*
X149232362Y-30917898D01*
X149232357Y-30917900D01*
X149053121Y-31043402D01*
X148898402Y-31198121D01*
X148772900Y-31377357D01*
X148772898Y-31377361D01*
X148702382Y-31528583D01*
X148656209Y-31581022D01*
X148589016Y-31600174D01*
X148522135Y-31579958D01*
X148477618Y-31528583D01*
X148425231Y-31416240D01*
X148407102Y-31377362D01*
X148407100Y-31377359D01*
X148407099Y-31377357D01*
X148281599Y-31198124D01*
X148266596Y-31183121D01*
X148126877Y-31043402D01*
X147988978Y-30946844D01*
X147947638Y-30917897D01*
X147797774Y-30848015D01*
X147749330Y-30825425D01*
X147749326Y-30825424D01*
X147749322Y-30825422D01*
X147537977Y-30768793D01*
X147320002Y-30749723D01*
X147319998Y-30749723D01*
X147207182Y-30759593D01*
X147102023Y-30768793D01*
X147102020Y-30768793D01*
X146890677Y-30825422D01*
X146890668Y-30825426D01*
X146692361Y-30917898D01*
X146692357Y-30917900D01*
X146513121Y-31043402D01*
X146358402Y-31198121D01*
X146232900Y-31377357D01*
X146232898Y-31377361D01*
X146162382Y-31528583D01*
X146116209Y-31581022D01*
X146049016Y-31600174D01*
X145982135Y-31579958D01*
X145937618Y-31528583D01*
X145885231Y-31416240D01*
X145867102Y-31377362D01*
X145867100Y-31377359D01*
X145867099Y-31377357D01*
X145741599Y-31198124D01*
X145726596Y-31183121D01*
X145586877Y-31043402D01*
X145448978Y-30946844D01*
X145407638Y-30917897D01*
X145257774Y-30848015D01*
X145209330Y-30825425D01*
X145209326Y-30825424D01*
X145209322Y-30825422D01*
X144997977Y-30768793D01*
X144780002Y-30749723D01*
X144779998Y-30749723D01*
X144667182Y-30759593D01*
X144562023Y-30768793D01*
X144562020Y-30768793D01*
X144350677Y-30825422D01*
X144350668Y-30825426D01*
X144152361Y-30917898D01*
X144152357Y-30917900D01*
X143973121Y-31043402D01*
X143818402Y-31198121D01*
X143692900Y-31377357D01*
X143692898Y-31377361D01*
X143622382Y-31528583D01*
X143576209Y-31581022D01*
X143509016Y-31600174D01*
X143442135Y-31579958D01*
X143397618Y-31528583D01*
X143345231Y-31416240D01*
X143327102Y-31377362D01*
X143327100Y-31377359D01*
X143327099Y-31377357D01*
X143201599Y-31198124D01*
X143186596Y-31183121D01*
X143046877Y-31043402D01*
X142908978Y-30946844D01*
X142867638Y-30917897D01*
X142717774Y-30848015D01*
X142669330Y-30825425D01*
X142669326Y-30825424D01*
X142669322Y-30825422D01*
X142457977Y-30768793D01*
X142240002Y-30749723D01*
X142239998Y-30749723D01*
X142127182Y-30759593D01*
X142022023Y-30768793D01*
X142022020Y-30768793D01*
X141810677Y-30825422D01*
X141810668Y-30825426D01*
X141612361Y-30917898D01*
X141612357Y-30917900D01*
X141433121Y-31043402D01*
X141278402Y-31198121D01*
X141152900Y-31377357D01*
X141152898Y-31377361D01*
X141082382Y-31528583D01*
X141036209Y-31581022D01*
X140969016Y-31600174D01*
X140902135Y-31579958D01*
X140857618Y-31528583D01*
X140805231Y-31416240D01*
X140787102Y-31377362D01*
X140787100Y-31377359D01*
X140787099Y-31377357D01*
X140661599Y-31198124D01*
X140646596Y-31183121D01*
X140506877Y-31043402D01*
X140368978Y-30946844D01*
X140327638Y-30917897D01*
X140177774Y-30848015D01*
X140129330Y-30825425D01*
X140129326Y-30825424D01*
X140129322Y-30825422D01*
X139917977Y-30768793D01*
X139700002Y-30749723D01*
X139699998Y-30749723D01*
X139587182Y-30759593D01*
X139482023Y-30768793D01*
X139482020Y-30768793D01*
X139270677Y-30825422D01*
X139270668Y-30825426D01*
X139072361Y-30917898D01*
X139072357Y-30917900D01*
X138893121Y-31043402D01*
X138738402Y-31198121D01*
X138612900Y-31377357D01*
X138612898Y-31377362D01*
X138545879Y-31521083D01*
X138499706Y-31573522D01*
X138432513Y-31592674D01*
X138365631Y-31572458D01*
X138321115Y-31521083D01*
X138285048Y-31443737D01*
X138247102Y-31362362D01*
X138247099Y-31362358D01*
X138247099Y-31362357D01*
X138121599Y-31183124D01*
X138121596Y-31183121D01*
X137966877Y-31028402D01*
X137828978Y-30931844D01*
X137787638Y-30902897D01*
X137669942Y-30848015D01*
X137589330Y-30810425D01*
X137589326Y-30810424D01*
X137589322Y-30810422D01*
X137377977Y-30753793D01*
X137160002Y-30734723D01*
X137159998Y-30734723D01*
X137045696Y-30744723D01*
X136942023Y-30753793D01*
X136942020Y-30753793D01*
X136730677Y-30810422D01*
X136730668Y-30810426D01*
X136532361Y-30902898D01*
X136532357Y-30902900D01*
X136353121Y-31028402D01*
X136198402Y-31183121D01*
X136072900Y-31362357D01*
X136072898Y-31362361D01*
X136002382Y-31513583D01*
X135956209Y-31566022D01*
X135889016Y-31585174D01*
X135822135Y-31564958D01*
X135777618Y-31513583D01*
X135715926Y-31381286D01*
X135707102Y-31362362D01*
X135707099Y-31362358D01*
X135707099Y-31362357D01*
X135581599Y-31183124D01*
X135581596Y-31183121D01*
X135426877Y-31028402D01*
X135288978Y-30931844D01*
X135247638Y-30902897D01*
X135129942Y-30848015D01*
X135049330Y-30810425D01*
X135049326Y-30810424D01*
X135049322Y-30810422D01*
X134837977Y-30753793D01*
X134620002Y-30734723D01*
X134619998Y-30734723D01*
X134505696Y-30744723D01*
X134402023Y-30753793D01*
X134402020Y-30753793D01*
X134190677Y-30810422D01*
X134190668Y-30810426D01*
X133992361Y-30902898D01*
X133992357Y-30902900D01*
X133813121Y-31028402D01*
X133658402Y-31183121D01*
X133532900Y-31362357D01*
X133532898Y-31362361D01*
X133462382Y-31513583D01*
X133416209Y-31566022D01*
X133349016Y-31585174D01*
X133282135Y-31564958D01*
X133237618Y-31513583D01*
X133175926Y-31381286D01*
X133167102Y-31362362D01*
X133167099Y-31362358D01*
X133167099Y-31362357D01*
X133041599Y-31183124D01*
X133041596Y-31183121D01*
X132886877Y-31028402D01*
X132748978Y-30931844D01*
X132707638Y-30902897D01*
X132589942Y-30848015D01*
X132509330Y-30810425D01*
X132509326Y-30810424D01*
X132509322Y-30810422D01*
X132297977Y-30753793D01*
X132080002Y-30734723D01*
X132079998Y-30734723D01*
X131965696Y-30744723D01*
X131862023Y-30753793D01*
X131862020Y-30753793D01*
X131650677Y-30810422D01*
X131650668Y-30810426D01*
X131452361Y-30902898D01*
X131452357Y-30902900D01*
X131273121Y-31028402D01*
X131118402Y-31183121D01*
X130992900Y-31362357D01*
X130992898Y-31362361D01*
X130922382Y-31513583D01*
X130876209Y-31566022D01*
X130809016Y-31585174D01*
X130742135Y-31564958D01*
X130697618Y-31513583D01*
X130635926Y-31381286D01*
X130627102Y-31362362D01*
X130627099Y-31362358D01*
X130627099Y-31362357D01*
X130501599Y-31183124D01*
X130501596Y-31183121D01*
X130346877Y-31028402D01*
X130208978Y-30931844D01*
X130167638Y-30902897D01*
X130049942Y-30848015D01*
X129969330Y-30810425D01*
X129969326Y-30810424D01*
X129969322Y-30810422D01*
X129757977Y-30753793D01*
X129540002Y-30734723D01*
X129539998Y-30734723D01*
X129425696Y-30744723D01*
X129322023Y-30753793D01*
X129322020Y-30753793D01*
X129110677Y-30810422D01*
X129110668Y-30810426D01*
X128912361Y-30902898D01*
X128912357Y-30902900D01*
X128733121Y-31028402D01*
X128578402Y-31183121D01*
X128452900Y-31362357D01*
X128452898Y-31362361D01*
X128382382Y-31513583D01*
X128336209Y-31566022D01*
X128269016Y-31585174D01*
X128202135Y-31564958D01*
X128157618Y-31513583D01*
X128095926Y-31381286D01*
X128087102Y-31362362D01*
X128087099Y-31362358D01*
X128087099Y-31362357D01*
X127961599Y-31183124D01*
X127961596Y-31183121D01*
X127806877Y-31028402D01*
X127668978Y-30931844D01*
X127627638Y-30902897D01*
X127509942Y-30848015D01*
X127429330Y-30810425D01*
X127429326Y-30810424D01*
X127429322Y-30810422D01*
X127217977Y-30753793D01*
X127000002Y-30734723D01*
X126999998Y-30734723D01*
X126885696Y-30744723D01*
X126782023Y-30753793D01*
X126782020Y-30753793D01*
X126570677Y-30810422D01*
X126570668Y-30810426D01*
X126372361Y-30902898D01*
X126372357Y-30902900D01*
X126193121Y-31028402D01*
X126038402Y-31183121D01*
X125912900Y-31362357D01*
X125912898Y-31362361D01*
X125842382Y-31513583D01*
X125796209Y-31566022D01*
X125729016Y-31585174D01*
X125662135Y-31564958D01*
X125617618Y-31513583D01*
X125555926Y-31381286D01*
X125547102Y-31362362D01*
X125547099Y-31362358D01*
X125547099Y-31362357D01*
X125421599Y-31183124D01*
X125421596Y-31183121D01*
X125266877Y-31028402D01*
X125128978Y-30931844D01*
X125087638Y-30902897D01*
X124969942Y-30848015D01*
X124889330Y-30810425D01*
X124889326Y-30810424D01*
X124889322Y-30810422D01*
X124677977Y-30753793D01*
X124460002Y-30734723D01*
X124459998Y-30734723D01*
X124345696Y-30744723D01*
X124242023Y-30753793D01*
X124242020Y-30753793D01*
X124030677Y-30810422D01*
X124030668Y-30810426D01*
X123832361Y-30902898D01*
X123832357Y-30902900D01*
X123653121Y-31028402D01*
X123498402Y-31183121D01*
X123372900Y-31362357D01*
X123372898Y-31362361D01*
X123302382Y-31513583D01*
X123256209Y-31566022D01*
X123189016Y-31585174D01*
X123122135Y-31564958D01*
X123077618Y-31513583D01*
X123015926Y-31381286D01*
X123007102Y-31362362D01*
X123007099Y-31362358D01*
X123007099Y-31362357D01*
X122881599Y-31183124D01*
X122881596Y-31183121D01*
X122726877Y-31028402D01*
X122588978Y-30931844D01*
X122547638Y-30902897D01*
X122429942Y-30848015D01*
X122349330Y-30810425D01*
X122349326Y-30810424D01*
X122349322Y-30810422D01*
X122137977Y-30753793D01*
X121920002Y-30734723D01*
X121919998Y-30734723D01*
X121805696Y-30744723D01*
X121702023Y-30753793D01*
X121702020Y-30753793D01*
X121490677Y-30810422D01*
X121490668Y-30810426D01*
X121292361Y-30902898D01*
X121292357Y-30902900D01*
X121113121Y-31028402D01*
X120958402Y-31183121D01*
X120832900Y-31362357D01*
X120832898Y-31362361D01*
X120762382Y-31513583D01*
X120716209Y-31566022D01*
X120649016Y-31585174D01*
X120582135Y-31564958D01*
X120537618Y-31513583D01*
X120475926Y-31381286D01*
X120467102Y-31362362D01*
X120467099Y-31362358D01*
X120467099Y-31362357D01*
X120341599Y-31183124D01*
X120341596Y-31183121D01*
X120186877Y-31028402D01*
X120048978Y-30931844D01*
X120007638Y-30902897D01*
X119889942Y-30848015D01*
X119809330Y-30810425D01*
X119809326Y-30810424D01*
X119809322Y-30810422D01*
X119597977Y-30753793D01*
X119380002Y-30734723D01*
X119379998Y-30734723D01*
X119265696Y-30744723D01*
X119162023Y-30753793D01*
X119162020Y-30753793D01*
X118950677Y-30810422D01*
X118950668Y-30810426D01*
X118752361Y-30902898D01*
X118752357Y-30902900D01*
X118573121Y-31028402D01*
X118418402Y-31183121D01*
X118292900Y-31362357D01*
X118292898Y-31362361D01*
X118222382Y-31513583D01*
X118176209Y-31566022D01*
X118109016Y-31585174D01*
X118042135Y-31564958D01*
X117997618Y-31513583D01*
X117935926Y-31381286D01*
X117927102Y-31362362D01*
X117927099Y-31362358D01*
X117927099Y-31362357D01*
X117801599Y-31183124D01*
X117801596Y-31183121D01*
X117646877Y-31028402D01*
X117508978Y-30931844D01*
X117467638Y-30902897D01*
X117349942Y-30848015D01*
X117269330Y-30810425D01*
X117269326Y-30810424D01*
X117269322Y-30810422D01*
X117057977Y-30753793D01*
X116840002Y-30734723D01*
X116839998Y-30734723D01*
X116725696Y-30744723D01*
X116622023Y-30753793D01*
X116622020Y-30753793D01*
X116410677Y-30810422D01*
X116410668Y-30810426D01*
X116212361Y-30902898D01*
X116212357Y-30902900D01*
X116033121Y-31028402D01*
X115878402Y-31183121D01*
X115752900Y-31362357D01*
X115752898Y-31362361D01*
X115682382Y-31513583D01*
X115636209Y-31566022D01*
X115569016Y-31585174D01*
X115502135Y-31564958D01*
X115457618Y-31513583D01*
X115395926Y-31381286D01*
X115387102Y-31362362D01*
X115387099Y-31362358D01*
X115387099Y-31362357D01*
X115261599Y-31183124D01*
X115261596Y-31183121D01*
X115106877Y-31028402D01*
X114968978Y-30931844D01*
X114927638Y-30902897D01*
X114809942Y-30848015D01*
X114729330Y-30810425D01*
X114729326Y-30810424D01*
X114729322Y-30810422D01*
X114517977Y-30753793D01*
X114300002Y-30734723D01*
X114299998Y-30734723D01*
X114185696Y-30744723D01*
X114082023Y-30753793D01*
X114082020Y-30753793D01*
X113870677Y-30810422D01*
X113870668Y-30810426D01*
X113672361Y-30902898D01*
X113672357Y-30902900D01*
X113493121Y-31028402D01*
X113338402Y-31183121D01*
X113212900Y-31362357D01*
X113212898Y-31362361D01*
X113142382Y-31513583D01*
X113096209Y-31566022D01*
X113029016Y-31585174D01*
X112962135Y-31564958D01*
X112917618Y-31513583D01*
X112855926Y-31381286D01*
X112847102Y-31362362D01*
X112847099Y-31362358D01*
X112847099Y-31362357D01*
X112721599Y-31183124D01*
X112721596Y-31183121D01*
X112566877Y-31028402D01*
X112428978Y-30931844D01*
X112387638Y-30902897D01*
X112269942Y-30848015D01*
X112189330Y-30810425D01*
X112189326Y-30810424D01*
X112189322Y-30810422D01*
X111977977Y-30753793D01*
X111760002Y-30734723D01*
X111759998Y-30734723D01*
X111645696Y-30744723D01*
X111542023Y-30753793D01*
X111542020Y-30753793D01*
X111330677Y-30810422D01*
X111330668Y-30810426D01*
X111132361Y-30902898D01*
X111132357Y-30902900D01*
X110953121Y-31028402D01*
X110798402Y-31183121D01*
X110672900Y-31362357D01*
X110672898Y-31362361D01*
X110602382Y-31513583D01*
X110556209Y-31566022D01*
X110489016Y-31585174D01*
X110422135Y-31564958D01*
X110377618Y-31513583D01*
X110315926Y-31381286D01*
X110307102Y-31362362D01*
X110307099Y-31362358D01*
X110307099Y-31362357D01*
X110181599Y-31183124D01*
X110181596Y-31183121D01*
X110026877Y-31028402D01*
X109888978Y-30931844D01*
X109847638Y-30902897D01*
X109729942Y-30848015D01*
X109649330Y-30810425D01*
X109649326Y-30810424D01*
X109649322Y-30810422D01*
X109437977Y-30753793D01*
X109220002Y-30734723D01*
X109219998Y-30734723D01*
X109105696Y-30744723D01*
X109002023Y-30753793D01*
X109002020Y-30753793D01*
X108790677Y-30810422D01*
X108790668Y-30810426D01*
X108592361Y-30902898D01*
X108592357Y-30902900D01*
X108413121Y-31028402D01*
X108258402Y-31183121D01*
X108132900Y-31362357D01*
X108132898Y-31362361D01*
X108062382Y-31513583D01*
X108016209Y-31566022D01*
X107949016Y-31585174D01*
X107882135Y-31564958D01*
X107837618Y-31513583D01*
X107775926Y-31381286D01*
X107767102Y-31362362D01*
X107767099Y-31362358D01*
X107767099Y-31362357D01*
X107641599Y-31183124D01*
X107641596Y-31183121D01*
X107486877Y-31028402D01*
X107348978Y-30931844D01*
X107307638Y-30902897D01*
X107189942Y-30848015D01*
X107109330Y-30810425D01*
X107109326Y-30810424D01*
X107109322Y-30810422D01*
X106897977Y-30753793D01*
X106680002Y-30734723D01*
X106679998Y-30734723D01*
X106565696Y-30744723D01*
X106462023Y-30753793D01*
X106462020Y-30753793D01*
X106250677Y-30810422D01*
X106250668Y-30810426D01*
X106052361Y-30902898D01*
X106052357Y-30902900D01*
X105873121Y-31028402D01*
X105718402Y-31183121D01*
X105592900Y-31362357D01*
X105592900Y-31362358D01*
X105592898Y-31362361D01*
X105592898Y-31362362D01*
X105584074Y-31381286D01*
X105522105Y-31514176D01*
X105475932Y-31566615D01*
X105408738Y-31585766D01*
X105341857Y-31565550D01*
X105297341Y-31514174D01*
X105226669Y-31362617D01*
X105183123Y-31300428D01*
X104622962Y-31860589D01*
X104605925Y-31797007D01*
X104540099Y-31682993D01*
X104447007Y-31589901D01*
X104332993Y-31524075D01*
X104269409Y-31507037D01*
X104829571Y-30946874D01*
X104767387Y-30903333D01*
X104569159Y-30810898D01*
X104569150Y-30810894D01*
X104357894Y-30754289D01*
X104357884Y-30754287D01*
X104140001Y-30735225D01*
X104139999Y-30735225D01*
X103922115Y-30754287D01*
X103922105Y-30754289D01*
X103710849Y-30810894D01*
X103710840Y-30810898D01*
X103512614Y-30903332D01*
X103512612Y-30903333D01*
X103450428Y-30946875D01*
X103450427Y-30946875D01*
X104010590Y-31507037D01*
X103947007Y-31524075D01*
X103832993Y-31589901D01*
X103739901Y-31682993D01*
X103674075Y-31797007D01*
X103657037Y-31860590D01*
X103096875Y-31300427D01*
X103096875Y-31300428D01*
X103053333Y-31362612D01*
X103053332Y-31362614D01*
X102982658Y-31514175D01*
X102936485Y-31566614D01*
X102869292Y-31585766D01*
X102802411Y-31565550D01*
X102757894Y-31514175D01*
X102695926Y-31381286D01*
X102687102Y-31362362D01*
X102687099Y-31362358D01*
X102687099Y-31362357D01*
X102561599Y-31183124D01*
X102561596Y-31183121D01*
X102406877Y-31028402D01*
X102268978Y-30931844D01*
X102227638Y-30902897D01*
X102109942Y-30848015D01*
X102029330Y-30810425D01*
X102029326Y-30810424D01*
X102029322Y-30810422D01*
X101817977Y-30753793D01*
X101600002Y-30734723D01*
X101599998Y-30734723D01*
X101485696Y-30744723D01*
X101382023Y-30753793D01*
X101382020Y-30753793D01*
X101306593Y-30774004D01*
X101236743Y-30772341D01*
X101178881Y-30733178D01*
X101151377Y-30668949D01*
X101150500Y-30654229D01*
X101150500Y-29801259D01*
X101150500Y-29801257D01*
X101109577Y-29648530D01*
X101075312Y-29589181D01*
X101030524Y-29511604D01*
X101030521Y-29511600D01*
X101030520Y-29511598D01*
X100918716Y-29399794D01*
X100918715Y-29399793D01*
X100914385Y-29395463D01*
X100914374Y-29395453D01*
X96962276Y-25443355D01*
X96962274Y-25443352D01*
X96843403Y-25324481D01*
X96843402Y-25324480D01*
X96756590Y-25274360D01*
X96756590Y-25274359D01*
X96756586Y-25274358D01*
X96706471Y-25245423D01*
X96553743Y-25204499D01*
X96395629Y-25204499D01*
X96388033Y-25204499D01*
X96388017Y-25204500D01*
X78255940Y-25204500D01*
X78215019Y-25215464D01*
X78215019Y-25215465D01*
X78177751Y-25225451D01*
X78103214Y-25245423D01*
X78103209Y-25245426D01*
X77966290Y-25324475D01*
X77966282Y-25324481D01*
X77854478Y-25436286D01*
X77568020Y-25722743D01*
X77506697Y-25756228D01*
X77437005Y-25751244D01*
X77424045Y-25745547D01*
X77334219Y-25699779D01*
X77139536Y-25636523D01*
X77004746Y-25615174D01*
X76937352Y-25604500D01*
X76732648Y-25604500D01*
X76708329Y-25608351D01*
X76530465Y-25636522D01*
X76335776Y-25699781D01*
X76153386Y-25792715D01*
X75987786Y-25913028D01*
X75843028Y-26057786D01*
X75722715Y-26223386D01*
X75675485Y-26316080D01*
X75627510Y-26366876D01*
X75559689Y-26383671D01*
X75493554Y-26361134D01*
X75454515Y-26316080D01*
X75407419Y-26223650D01*
X75407287Y-26223390D01*
X75399556Y-26212749D01*
X75286971Y-26057786D01*
X75142213Y-25913028D01*
X74976613Y-25792715D01*
X74976612Y-25792714D01*
X74976610Y-25792713D01*
X74919653Y-25763691D01*
X74794223Y-25699781D01*
X74599534Y-25636522D01*
X74424995Y-25608878D01*
X74397352Y-25604500D01*
X74192648Y-25604500D01*
X74168329Y-25608351D01*
X73990465Y-25636522D01*
X73795776Y-25699781D01*
X73613386Y-25792715D01*
X73447786Y-25913028D01*
X73303028Y-26057786D01*
X73182715Y-26223386D01*
X73089781Y-26405776D01*
X73026522Y-26600465D01*
X72994500Y-26802648D01*
X72994500Y-27807351D01*
X73026522Y-28009534D01*
X73089781Y-28204223D01*
X73182715Y-28386613D01*
X73303028Y-28552213D01*
X73447786Y-28696971D01*
X73602749Y-28809556D01*
X73613390Y-28817287D01*
X73729607Y-28876503D01*
X73795776Y-28910218D01*
X73795778Y-28910218D01*
X73795781Y-28910220D01*
X73900137Y-28944127D01*
X73990465Y-28973477D01*
X74091557Y-28989488D01*
X74192648Y-29005500D01*
X74192649Y-29005500D01*
X74397351Y-29005500D01*
X74397352Y-29005500D01*
X74599534Y-28973477D01*
X74794219Y-28910220D01*
X74976610Y-28817287D01*
X75072901Y-28747328D01*
X75142213Y-28696971D01*
X75142215Y-28696968D01*
X75142219Y-28696966D01*
X75286966Y-28552219D01*
X75286968Y-28552215D01*
X75286971Y-28552213D01*
X75407284Y-28386614D01*
X75407286Y-28386611D01*
X75407287Y-28386610D01*
X75454516Y-28293917D01*
X75502489Y-28243123D01*
X75570310Y-28226328D01*
X75636445Y-28248865D01*
X75675485Y-28293919D01*
X75722715Y-28386614D01*
X75843028Y-28552213D01*
X75987786Y-28696971D01*
X76142749Y-28809556D01*
X76153390Y-28817287D01*
X76269607Y-28876503D01*
X76335776Y-28910218D01*
X76335778Y-28910218D01*
X76335781Y-28910220D01*
X76440137Y-28944127D01*
X76530465Y-28973477D01*
X76631557Y-28989488D01*
X76732648Y-29005500D01*
X76732649Y-29005500D01*
X76937351Y-29005500D01*
X76937352Y-29005500D01*
X77139534Y-28973477D01*
X77334219Y-28910220D01*
X77516610Y-28817287D01*
X77612901Y-28747328D01*
X77682213Y-28696971D01*
X77682215Y-28696968D01*
X77682219Y-28696966D01*
X77826966Y-28552219D01*
X77826968Y-28552215D01*
X77826971Y-28552213D01*
X77947284Y-28386614D01*
X77947286Y-28386611D01*
X77947287Y-28386610D01*
X77994516Y-28293917D01*
X78042489Y-28243123D01*
X78110310Y-28226328D01*
X78176445Y-28248865D01*
X78215485Y-28293919D01*
X78262715Y-28386614D01*
X78383028Y-28552213D01*
X78527786Y-28696971D01*
X78682749Y-28809556D01*
X78693390Y-28817287D01*
X78809607Y-28876503D01*
X78875776Y-28910218D01*
X78875778Y-28910218D01*
X78875781Y-28910220D01*
X78980137Y-28944127D01*
X79070465Y-28973477D01*
X79171557Y-28989488D01*
X79272648Y-29005500D01*
X79272649Y-29005500D01*
X79477351Y-29005500D01*
X79477352Y-29005500D01*
X79679534Y-28973477D01*
X79874219Y-28910220D01*
X79964043Y-28864451D01*
X80032712Y-28851555D01*
X80097453Y-28877831D01*
X80108020Y-28887255D01*
X81811139Y-30590374D01*
X81811160Y-30590397D01*
X81835590Y-30614827D01*
X81869075Y-30676150D01*
X81864091Y-30745842D01*
X81822219Y-30801775D01*
X81756755Y-30826192D01*
X81714954Y-30820353D01*
X81714560Y-30821826D01*
X81497977Y-30763793D01*
X81280002Y-30744723D01*
X81279998Y-30744723D01*
X81170680Y-30754287D01*
X81062023Y-30763793D01*
X81062020Y-30763793D01*
X80850677Y-30820422D01*
X80850668Y-30820426D01*
X80652361Y-30912898D01*
X80652357Y-30912900D01*
X80473121Y-31038402D01*
X80318402Y-31193121D01*
X80192900Y-31372357D01*
X80192898Y-31372361D01*
X80122382Y-31523583D01*
X80076209Y-31576022D01*
X80009016Y-31595174D01*
X79942135Y-31574958D01*
X79897618Y-31523583D01*
X79860385Y-31443737D01*
X79827102Y-31372362D01*
X79827099Y-31372358D01*
X79827099Y-31372357D01*
X79701599Y-31193124D01*
X79691596Y-31183121D01*
X79546877Y-31038402D01*
X79374780Y-30917898D01*
X79367638Y-30912897D01*
X79235398Y-30851233D01*
X79169330Y-30820425D01*
X79169326Y-30820424D01*
X79169322Y-30820422D01*
X78957977Y-30763793D01*
X78740002Y-30744723D01*
X78739998Y-30744723D01*
X78630680Y-30754287D01*
X78522023Y-30763793D01*
X78522020Y-30763793D01*
X78310677Y-30820422D01*
X78310668Y-30820426D01*
X78112361Y-30912898D01*
X78112357Y-30912900D01*
X77933121Y-31038402D01*
X77778402Y-31193121D01*
X77652900Y-31372357D01*
X77652898Y-31372361D01*
X77582382Y-31523583D01*
X77536209Y-31576022D01*
X77469016Y-31595174D01*
X77402135Y-31574958D01*
X77357618Y-31523583D01*
X77320385Y-31443737D01*
X77287102Y-31372362D01*
X77287099Y-31372358D01*
X77287099Y-31372357D01*
X77161599Y-31193124D01*
X77151596Y-31183121D01*
X77006877Y-31038402D01*
X76834780Y-30917898D01*
X76827638Y-30912897D01*
X76695398Y-30851233D01*
X76629330Y-30820425D01*
X76629326Y-30820424D01*
X76629322Y-30820422D01*
X76417977Y-30763793D01*
X76200002Y-30744723D01*
X76199998Y-30744723D01*
X76090680Y-30754287D01*
X75982023Y-30763793D01*
X75982020Y-30763793D01*
X75770677Y-30820422D01*
X75770668Y-30820426D01*
X75572361Y-30912898D01*
X75572357Y-30912900D01*
X75393121Y-31038402D01*
X75238402Y-31193121D01*
X75112900Y-31372357D01*
X75112900Y-31372358D01*
X75112898Y-31372361D01*
X75112898Y-31372362D01*
X75108738Y-31381284D01*
X75042105Y-31524176D01*
X74995932Y-31576615D01*
X74928738Y-31595766D01*
X74861857Y-31575550D01*
X74817341Y-31524174D01*
X74746669Y-31372617D01*
X74703123Y-31310428D01*
X74142962Y-31870589D01*
X74125925Y-31807007D01*
X74060099Y-31692993D01*
X73967007Y-31599901D01*
X73852993Y-31534075D01*
X73789409Y-31517037D01*
X74349571Y-30956874D01*
X74287387Y-30913333D01*
X74089159Y-30820898D01*
X74089150Y-30820894D01*
X73877894Y-30764289D01*
X73877884Y-30764287D01*
X73660001Y-30745225D01*
X73659999Y-30745225D01*
X73442115Y-30764287D01*
X73442105Y-30764289D01*
X73230849Y-30820894D01*
X73230840Y-30820898D01*
X73032614Y-30913332D01*
X73032612Y-30913333D01*
X72970428Y-30956875D01*
X72970427Y-30956875D01*
X73530590Y-31517037D01*
X73467007Y-31534075D01*
X73352993Y-31599901D01*
X73259901Y-31692993D01*
X73194075Y-31807007D01*
X73177037Y-31870590D01*
X72616875Y-31310427D01*
X72616875Y-31310428D01*
X72573333Y-31372612D01*
X72573332Y-31372614D01*
X72502658Y-31524175D01*
X72456485Y-31576614D01*
X72389292Y-31595766D01*
X72322411Y-31575550D01*
X72277894Y-31524175D01*
X72240385Y-31443737D01*
X72207102Y-31372362D01*
X72207099Y-31372358D01*
X72207099Y-31372357D01*
X72081599Y-31193124D01*
X72071596Y-31183121D01*
X71926877Y-31038402D01*
X71754780Y-30917898D01*
X71747638Y-30912897D01*
X71615398Y-30851233D01*
X71549330Y-30820425D01*
X71549326Y-30820424D01*
X71549322Y-30820422D01*
X71337977Y-30763793D01*
X71120002Y-30744723D01*
X71119998Y-30744723D01*
X71010680Y-30754287D01*
X70902023Y-30763793D01*
X70902020Y-30763793D01*
X70690677Y-30820422D01*
X70690668Y-30820426D01*
X70492361Y-30912898D01*
X70492357Y-30912900D01*
X70313121Y-31038402D01*
X70158402Y-31193121D01*
X70032900Y-31372357D01*
X70032898Y-31372361D01*
X69962382Y-31523583D01*
X69916209Y-31576022D01*
X69849016Y-31595174D01*
X69782135Y-31574958D01*
X69737618Y-31523583D01*
X69700385Y-31443737D01*
X69667102Y-31372362D01*
X69667099Y-31372358D01*
X69667099Y-31372357D01*
X69541599Y-31193124D01*
X69531596Y-31183121D01*
X69386877Y-31038402D01*
X69214780Y-30917898D01*
X69207638Y-30912897D01*
X69075398Y-30851233D01*
X69009330Y-30820425D01*
X69009326Y-30820424D01*
X69009322Y-30820422D01*
X68797977Y-30763793D01*
X68580002Y-30744723D01*
X68579998Y-30744723D01*
X68470680Y-30754287D01*
X68362023Y-30763793D01*
X68362020Y-30763793D01*
X68150677Y-30820422D01*
X68150668Y-30820426D01*
X67952361Y-30912898D01*
X67952357Y-30912900D01*
X67773121Y-31038402D01*
X67618402Y-31193121D01*
X67492900Y-31372357D01*
X67492898Y-31372361D01*
X67422382Y-31523583D01*
X67376209Y-31576022D01*
X67309016Y-31595174D01*
X67242135Y-31574958D01*
X67197618Y-31523583D01*
X67160385Y-31443737D01*
X67127102Y-31372362D01*
X67127099Y-31372358D01*
X67127099Y-31372357D01*
X67001599Y-31193124D01*
X66991596Y-31183121D01*
X66846877Y-31038402D01*
X66674780Y-30917898D01*
X66667638Y-30912897D01*
X66535398Y-30851233D01*
X66469330Y-30820425D01*
X66469326Y-30820424D01*
X66469322Y-30820422D01*
X66257977Y-30763793D01*
X66040002Y-30744723D01*
X66039998Y-30744723D01*
X65930680Y-30754287D01*
X65822023Y-30763793D01*
X65822020Y-30763793D01*
X65610677Y-30820422D01*
X65610668Y-30820426D01*
X65412361Y-30912898D01*
X65412357Y-30912900D01*
X65233121Y-31038402D01*
X65078402Y-31193121D01*
X64952900Y-31372357D01*
X64952898Y-31372361D01*
X64882382Y-31523583D01*
X64836209Y-31576022D01*
X64769016Y-31595174D01*
X64702135Y-31574958D01*
X64657618Y-31523583D01*
X64620385Y-31443737D01*
X64587102Y-31372362D01*
X64587099Y-31372358D01*
X64587099Y-31372357D01*
X64461599Y-31193124D01*
X64451596Y-31183121D01*
X64306877Y-31038402D01*
X64134780Y-30917898D01*
X64127638Y-30912897D01*
X63995398Y-30851233D01*
X63929330Y-30820425D01*
X63929326Y-30820424D01*
X63929322Y-30820422D01*
X63717977Y-30763793D01*
X63500002Y-30744723D01*
X63499998Y-30744723D01*
X63390680Y-30754287D01*
X63282023Y-30763793D01*
X63282020Y-30763793D01*
X63070677Y-30820422D01*
X63070668Y-30820426D01*
X62872361Y-30912898D01*
X62872357Y-30912900D01*
X62693121Y-31038402D01*
X62538402Y-31193121D01*
X62412900Y-31372357D01*
X62412898Y-31372361D01*
X62342382Y-31523583D01*
X62296209Y-31576022D01*
X62229016Y-31595174D01*
X62162135Y-31574958D01*
X62117618Y-31523583D01*
X62080385Y-31443737D01*
X62047102Y-31372362D01*
X62047099Y-31372358D01*
X62047099Y-31372357D01*
X61921599Y-31193124D01*
X61911596Y-31183121D01*
X61766877Y-31038402D01*
X61594780Y-30917898D01*
X61587638Y-30912897D01*
X61455398Y-30851233D01*
X61389330Y-30820425D01*
X61389326Y-30820424D01*
X61389322Y-30820422D01*
X61177977Y-30763793D01*
X60960002Y-30744723D01*
X60959998Y-30744723D01*
X60850680Y-30754287D01*
X60742023Y-30763793D01*
X60742020Y-30763793D01*
X60530677Y-30820422D01*
X60530668Y-30820426D01*
X60332361Y-30912898D01*
X60332357Y-30912900D01*
X60153121Y-31038402D01*
X59998402Y-31193121D01*
X59872900Y-31372357D01*
X59872898Y-31372361D01*
X59802382Y-31523583D01*
X59756209Y-31576022D01*
X59689016Y-31595174D01*
X59622135Y-31574958D01*
X59577618Y-31523583D01*
X59540385Y-31443737D01*
X59507102Y-31372362D01*
X59507099Y-31372358D01*
X59507099Y-31372357D01*
X59381599Y-31193124D01*
X59371596Y-31183121D01*
X59226877Y-31038402D01*
X59054780Y-30917898D01*
X59047638Y-30912897D01*
X58915398Y-30851233D01*
X58849330Y-30820425D01*
X58849326Y-30820424D01*
X58849322Y-30820422D01*
X58637977Y-30763793D01*
X58420002Y-30744723D01*
X58419998Y-30744723D01*
X58310680Y-30754287D01*
X58202023Y-30763793D01*
X58202020Y-30763793D01*
X57990677Y-30820422D01*
X57990668Y-30820426D01*
X57792361Y-30912898D01*
X57792357Y-30912900D01*
X57613121Y-31038402D01*
X57458402Y-31193121D01*
X57332900Y-31372357D01*
X57332898Y-31372361D01*
X57240426Y-31570668D01*
X57240422Y-31570677D01*
X57183793Y-31782020D01*
X57183793Y-31782023D01*
X57182482Y-31797007D01*
X57164834Y-31998735D01*
X57164723Y-32000000D01*
X52054402Y-32000000D01*
X52055277Y-31990000D01*
X52036207Y-31772023D01*
X51988820Y-31595174D01*
X51979577Y-31560677D01*
X51979576Y-31560676D01*
X51979575Y-31560670D01*
X51887102Y-31362362D01*
X51887099Y-31362358D01*
X51887099Y-31362357D01*
X51761599Y-31183124D01*
X51761596Y-31183121D01*
X51606877Y-31028402D01*
X51468978Y-30931844D01*
X51427638Y-30902897D01*
X51309942Y-30848015D01*
X51229330Y-30810425D01*
X51229326Y-30810424D01*
X51229322Y-30810422D01*
X51017977Y-30753793D01*
X50800002Y-30734723D01*
X50799998Y-30734723D01*
X50685696Y-30744723D01*
X50582023Y-30753793D01*
X50582020Y-30753793D01*
X50370677Y-30810422D01*
X50370668Y-30810426D01*
X50172361Y-30902898D01*
X50172357Y-30902900D01*
X49993121Y-31028402D01*
X49838402Y-31183121D01*
X49712900Y-31362357D01*
X49712898Y-31362361D01*
X49642382Y-31513583D01*
X49596209Y-31566022D01*
X49529016Y-31585174D01*
X49462135Y-31564958D01*
X49417618Y-31513583D01*
X49355926Y-31381286D01*
X49347102Y-31362362D01*
X49347099Y-31362358D01*
X49347099Y-31362357D01*
X49221599Y-31183124D01*
X49221596Y-31183121D01*
X49066877Y-31028402D01*
X48928978Y-30931844D01*
X48887638Y-30902897D01*
X48769942Y-30848015D01*
X48689330Y-30810425D01*
X48689326Y-30810424D01*
X48689322Y-30810422D01*
X48477977Y-30753793D01*
X48260002Y-30734723D01*
X48259998Y-30734723D01*
X48145696Y-30744723D01*
X48042023Y-30753793D01*
X48042020Y-30753793D01*
X47830677Y-30810422D01*
X47830668Y-30810426D01*
X47632361Y-30902898D01*
X47632357Y-30902900D01*
X47453121Y-31028402D01*
X47298402Y-31183121D01*
X47172900Y-31362357D01*
X47172898Y-31362361D01*
X47102382Y-31513583D01*
X47056209Y-31566022D01*
X46989016Y-31585174D01*
X46922135Y-31564958D01*
X46877618Y-31513583D01*
X46815926Y-31381286D01*
X46807102Y-31362362D01*
X46807099Y-31362358D01*
X46807099Y-31362357D01*
X46681599Y-31183124D01*
X46681596Y-31183121D01*
X46526877Y-31028402D01*
X46388978Y-30931844D01*
X46347638Y-30902897D01*
X46229942Y-30848015D01*
X46149330Y-30810425D01*
X46149326Y-30810424D01*
X46149322Y-30810422D01*
X45937977Y-30753793D01*
X45720002Y-30734723D01*
X45719998Y-30734723D01*
X45605696Y-30744723D01*
X45502023Y-30753793D01*
X45502020Y-30753793D01*
X45290677Y-30810422D01*
X45290668Y-30810426D01*
X45092361Y-30902898D01*
X45092357Y-30902900D01*
X44913121Y-31028402D01*
X44758402Y-31183121D01*
X44632900Y-31362357D01*
X44632898Y-31362361D01*
X44562382Y-31513583D01*
X44516209Y-31566022D01*
X44449016Y-31585174D01*
X44382135Y-31564958D01*
X44337618Y-31513583D01*
X44275926Y-31381286D01*
X44267102Y-31362362D01*
X44267099Y-31362358D01*
X44267099Y-31362357D01*
X44141599Y-31183124D01*
X44141596Y-31183121D01*
X43986877Y-31028402D01*
X43848978Y-30931844D01*
X43807638Y-30902897D01*
X43689942Y-30848015D01*
X43609330Y-30810425D01*
X43609326Y-30810424D01*
X43609322Y-30810422D01*
X43397977Y-30753793D01*
X43180002Y-30734723D01*
X43179998Y-30734723D01*
X43065696Y-30744723D01*
X42962023Y-30753793D01*
X42962020Y-30753793D01*
X42750677Y-30810422D01*
X42750668Y-30810426D01*
X42552361Y-30902898D01*
X42552357Y-30902900D01*
X42373121Y-31028402D01*
X42218402Y-31183121D01*
X42092900Y-31362357D01*
X42092900Y-31362358D01*
X42092898Y-31362361D01*
X42092898Y-31362362D01*
X42084074Y-31381286D01*
X42022105Y-31514176D01*
X41975932Y-31566615D01*
X41908738Y-31585766D01*
X41841857Y-31565550D01*
X41797341Y-31514174D01*
X41726669Y-31362617D01*
X41683123Y-31300428D01*
X41122962Y-31860590D01*
X41105925Y-31797007D01*
X41040099Y-31682993D01*
X40947007Y-31589901D01*
X40832993Y-31524075D01*
X40769409Y-31507037D01*
X41329571Y-30946874D01*
X41267387Y-30903333D01*
X41069159Y-30810898D01*
X41069150Y-30810894D01*
X40857894Y-30754289D01*
X40857884Y-30754287D01*
X40640001Y-30735225D01*
X40639999Y-30735225D01*
X40422115Y-30754287D01*
X40422105Y-30754289D01*
X40210849Y-30810894D01*
X40210840Y-30810898D01*
X40012614Y-30903332D01*
X40012612Y-30903333D01*
X39950428Y-30946875D01*
X39950427Y-30946875D01*
X40510590Y-31507037D01*
X40447007Y-31524075D01*
X40332993Y-31589901D01*
X40239901Y-31682993D01*
X40174075Y-31797007D01*
X40157037Y-31860590D01*
X39596875Y-31300427D01*
X39596875Y-31300428D01*
X39553333Y-31362612D01*
X39553332Y-31362614D01*
X39460898Y-31560840D01*
X39460894Y-31560849D01*
X39404289Y-31772105D01*
X39404287Y-31772115D01*
X39385225Y-31989999D01*
X25900500Y-31989999D01*
X25900500Y-25008500D01*
X25920185Y-24941461D01*
X25972989Y-24895706D01*
X26024500Y-24884500D01*
X170825500Y-24884500D01*
X170892539Y-24904185D01*
G37*
%TD.AperFunction*%
%TD*%
M02*
