%TF.GenerationSoftware,KiCad,Pcbnew,8.0.9*%
%TF.CreationDate,2025-05-08T22:04:52-05:00*%
%TF.ProjectId,SPD_Demon,5350445f-4465-46d6-9f6e-2e6b69636164,rev?*%
%TF.SameCoordinates,Original*%
%TF.FileFunction,Legend,Top*%
%TF.FilePolarity,Positive*%
%FSLAX46Y46*%
G04 Gerber Fmt 4.6, Leading zero omitted, Abs format (unit mm)*
G04 Created by KiCad (PCBNEW 8.0.9) date 2025-05-08 22:04:52*
%MOMM*%
%LPD*%
G01*
G04 APERTURE LIST*
%ADD10C,0.450000*%
%ADD11C,0.600000*%
%ADD12C,0.000000*%
G04 APERTURE END LIST*
D10*
X28664623Y-41551457D02*
X29378909Y-43551457D01*
X29378909Y-43551457D02*
X30093194Y-41551457D01*
X32807480Y-43551457D02*
X31093194Y-43551457D01*
X31950337Y-43551457D02*
X31950337Y-40551457D01*
X31950337Y-40551457D02*
X31664623Y-40980028D01*
X31664623Y-40980028D02*
X31378908Y-41265742D01*
X31378908Y-41265742D02*
X31093194Y-41408600D01*
X34093194Y-43265742D02*
X34236051Y-43408600D01*
X34236051Y-43408600D02*
X34093194Y-43551457D01*
X34093194Y-43551457D02*
X33950337Y-43408600D01*
X33950337Y-43408600D02*
X34093194Y-43265742D01*
X34093194Y-43265742D02*
X34093194Y-43551457D01*
X36093194Y-40551457D02*
X36378908Y-40551457D01*
X36378908Y-40551457D02*
X36664622Y-40694314D01*
X36664622Y-40694314D02*
X36807480Y-40837171D01*
X36807480Y-40837171D02*
X36950337Y-41122885D01*
X36950337Y-41122885D02*
X37093194Y-41694314D01*
X37093194Y-41694314D02*
X37093194Y-42408600D01*
X37093194Y-42408600D02*
X36950337Y-42980028D01*
X36950337Y-42980028D02*
X36807480Y-43265742D01*
X36807480Y-43265742D02*
X36664622Y-43408600D01*
X36664622Y-43408600D02*
X36378908Y-43551457D01*
X36378908Y-43551457D02*
X36093194Y-43551457D01*
X36093194Y-43551457D02*
X35807480Y-43408600D01*
X35807480Y-43408600D02*
X35664622Y-43265742D01*
X35664622Y-43265742D02*
X35521765Y-42980028D01*
X35521765Y-42980028D02*
X35378908Y-42408600D01*
X35378908Y-42408600D02*
X35378908Y-41694314D01*
X35378908Y-41694314D02*
X35521765Y-41122885D01*
X35521765Y-41122885D02*
X35664622Y-40837171D01*
X35664622Y-40837171D02*
X35807480Y-40694314D01*
X35807480Y-40694314D02*
X36093194Y-40551457D01*
X130756766Y-27200457D02*
X131899623Y-27200457D01*
X131185337Y-29200457D02*
X131185337Y-26629028D01*
X131185337Y-26629028D02*
X131328194Y-26343314D01*
X131328194Y-26343314D02*
X131613909Y-26200457D01*
X131613909Y-26200457D02*
X131899623Y-26200457D01*
X133328195Y-29200457D02*
X133042480Y-29057600D01*
X133042480Y-29057600D02*
X132899623Y-28914742D01*
X132899623Y-28914742D02*
X132756766Y-28629028D01*
X132756766Y-28629028D02*
X132756766Y-27771885D01*
X132756766Y-27771885D02*
X132899623Y-27486171D01*
X132899623Y-27486171D02*
X133042480Y-27343314D01*
X133042480Y-27343314D02*
X133328195Y-27200457D01*
X133328195Y-27200457D02*
X133756766Y-27200457D01*
X133756766Y-27200457D02*
X134042480Y-27343314D01*
X134042480Y-27343314D02*
X134185338Y-27486171D01*
X134185338Y-27486171D02*
X134328195Y-27771885D01*
X134328195Y-27771885D02*
X134328195Y-28629028D01*
X134328195Y-28629028D02*
X134185338Y-28914742D01*
X134185338Y-28914742D02*
X134042480Y-29057600D01*
X134042480Y-29057600D02*
X133756766Y-29200457D01*
X133756766Y-29200457D02*
X133328195Y-29200457D01*
X135613909Y-29200457D02*
X135613909Y-27200457D01*
X135613909Y-27771885D02*
X135756766Y-27486171D01*
X135756766Y-27486171D02*
X135899624Y-27343314D01*
X135899624Y-27343314D02*
X136185338Y-27200457D01*
X136185338Y-27200457D02*
X136471052Y-27200457D01*
X141328195Y-29200457D02*
X139613909Y-29200457D01*
X140471052Y-29200457D02*
X140471052Y-26200457D01*
X140471052Y-26200457D02*
X140185338Y-26629028D01*
X140185338Y-26629028D02*
X139899623Y-26914742D01*
X139899623Y-26914742D02*
X139613909Y-27057600D01*
X143899624Y-26200457D02*
X143328195Y-26200457D01*
X143328195Y-26200457D02*
X143042481Y-26343314D01*
X143042481Y-26343314D02*
X142899624Y-26486171D01*
X142899624Y-26486171D02*
X142613909Y-26914742D01*
X142613909Y-26914742D02*
X142471052Y-27486171D01*
X142471052Y-27486171D02*
X142471052Y-28629028D01*
X142471052Y-28629028D02*
X142613909Y-28914742D01*
X142613909Y-28914742D02*
X142756766Y-29057600D01*
X142756766Y-29057600D02*
X143042481Y-29200457D01*
X143042481Y-29200457D02*
X143613909Y-29200457D01*
X143613909Y-29200457D02*
X143899624Y-29057600D01*
X143899624Y-29057600D02*
X144042481Y-28914742D01*
X144042481Y-28914742D02*
X144185338Y-28629028D01*
X144185338Y-28629028D02*
X144185338Y-27914742D01*
X144185338Y-27914742D02*
X144042481Y-27629028D01*
X144042481Y-27629028D02*
X143899624Y-27486171D01*
X143899624Y-27486171D02*
X143613909Y-27343314D01*
X143613909Y-27343314D02*
X143042481Y-27343314D01*
X143042481Y-27343314D02*
X142756766Y-27486171D01*
X142756766Y-27486171D02*
X142613909Y-27629028D01*
X142613909Y-27629028D02*
X142471052Y-27914742D01*
X145899624Y-27486171D02*
X145613909Y-27343314D01*
X145613909Y-27343314D02*
X145471052Y-27200457D01*
X145471052Y-27200457D02*
X145328195Y-26914742D01*
X145328195Y-26914742D02*
X145328195Y-26771885D01*
X145328195Y-26771885D02*
X145471052Y-26486171D01*
X145471052Y-26486171D02*
X145613909Y-26343314D01*
X145613909Y-26343314D02*
X145899624Y-26200457D01*
X145899624Y-26200457D02*
X146471052Y-26200457D01*
X146471052Y-26200457D02*
X146756767Y-26343314D01*
X146756767Y-26343314D02*
X146899624Y-26486171D01*
X146899624Y-26486171D02*
X147042481Y-26771885D01*
X147042481Y-26771885D02*
X147042481Y-26914742D01*
X147042481Y-26914742D02*
X146899624Y-27200457D01*
X146899624Y-27200457D02*
X146756767Y-27343314D01*
X146756767Y-27343314D02*
X146471052Y-27486171D01*
X146471052Y-27486171D02*
X145899624Y-27486171D01*
X145899624Y-27486171D02*
X145613909Y-27629028D01*
X145613909Y-27629028D02*
X145471052Y-27771885D01*
X145471052Y-27771885D02*
X145328195Y-28057600D01*
X145328195Y-28057600D02*
X145328195Y-28629028D01*
X145328195Y-28629028D02*
X145471052Y-28914742D01*
X145471052Y-28914742D02*
X145613909Y-29057600D01*
X145613909Y-29057600D02*
X145899624Y-29200457D01*
X145899624Y-29200457D02*
X146471052Y-29200457D01*
X146471052Y-29200457D02*
X146756767Y-29057600D01*
X146756767Y-29057600D02*
X146899624Y-28914742D01*
X146899624Y-28914742D02*
X147042481Y-28629028D01*
X147042481Y-28629028D02*
X147042481Y-28057600D01*
X147042481Y-28057600D02*
X146899624Y-27771885D01*
X146899624Y-27771885D02*
X146756767Y-27629028D01*
X146756767Y-27629028D02*
X146471052Y-27486171D01*
X148328195Y-28057600D02*
X150613910Y-28057600D01*
X152042481Y-27200457D02*
X152042481Y-30200457D01*
X152042481Y-27343314D02*
X152328196Y-27200457D01*
X152328196Y-27200457D02*
X152899624Y-27200457D01*
X152899624Y-27200457D02*
X153185338Y-27343314D01*
X153185338Y-27343314D02*
X153328196Y-27486171D01*
X153328196Y-27486171D02*
X153471053Y-27771885D01*
X153471053Y-27771885D02*
X153471053Y-28629028D01*
X153471053Y-28629028D02*
X153328196Y-28914742D01*
X153328196Y-28914742D02*
X153185338Y-29057600D01*
X153185338Y-29057600D02*
X152899624Y-29200457D01*
X152899624Y-29200457D02*
X152328196Y-29200457D01*
X152328196Y-29200457D02*
X152042481Y-29057600D01*
X154756767Y-29200457D02*
X154756767Y-27200457D01*
X154756767Y-26200457D02*
X154613910Y-26343314D01*
X154613910Y-26343314D02*
X154756767Y-26486171D01*
X154756767Y-26486171D02*
X154899624Y-26343314D01*
X154899624Y-26343314D02*
X154756767Y-26200457D01*
X154756767Y-26200457D02*
X154756767Y-26486171D01*
X156185338Y-27200457D02*
X156185338Y-29200457D01*
X156185338Y-27486171D02*
X156328195Y-27343314D01*
X156328195Y-27343314D02*
X156613910Y-27200457D01*
X156613910Y-27200457D02*
X157042481Y-27200457D01*
X157042481Y-27200457D02*
X157328195Y-27343314D01*
X157328195Y-27343314D02*
X157471053Y-27629028D01*
X157471053Y-27629028D02*
X157471053Y-29200457D01*
X162899624Y-29200457D02*
X161899624Y-27771885D01*
X161185338Y-29200457D02*
X161185338Y-26200457D01*
X161185338Y-26200457D02*
X162328195Y-26200457D01*
X162328195Y-26200457D02*
X162613910Y-26343314D01*
X162613910Y-26343314D02*
X162756767Y-26486171D01*
X162756767Y-26486171D02*
X162899624Y-26771885D01*
X162899624Y-26771885D02*
X162899624Y-27200457D01*
X162899624Y-27200457D02*
X162756767Y-27486171D01*
X162756767Y-27486171D02*
X162613910Y-27629028D01*
X162613910Y-27629028D02*
X162328195Y-27771885D01*
X162328195Y-27771885D02*
X161185338Y-27771885D01*
X164042481Y-28343314D02*
X165471053Y-28343314D01*
X163756767Y-29200457D02*
X164756767Y-26200457D01*
X164756767Y-26200457D02*
X165756767Y-29200457D01*
X166756767Y-29200457D02*
X166756767Y-26200457D01*
X166756767Y-26200457D02*
X167756767Y-28343314D01*
X167756767Y-28343314D02*
X168756767Y-26200457D01*
X168756767Y-26200457D02*
X168756767Y-29200457D01*
D11*
X28906164Y-29049800D02*
X29334736Y-29192657D01*
X29334736Y-29192657D02*
X30049021Y-29192657D01*
X30049021Y-29192657D02*
X30334736Y-29049800D01*
X30334736Y-29049800D02*
X30477593Y-28906942D01*
X30477593Y-28906942D02*
X30620450Y-28621228D01*
X30620450Y-28621228D02*
X30620450Y-28335514D01*
X30620450Y-28335514D02*
X30477593Y-28049800D01*
X30477593Y-28049800D02*
X30334736Y-27906942D01*
X30334736Y-27906942D02*
X30049021Y-27764085D01*
X30049021Y-27764085D02*
X29477593Y-27621228D01*
X29477593Y-27621228D02*
X29191878Y-27478371D01*
X29191878Y-27478371D02*
X29049021Y-27335514D01*
X29049021Y-27335514D02*
X28906164Y-27049800D01*
X28906164Y-27049800D02*
X28906164Y-26764085D01*
X28906164Y-26764085D02*
X29049021Y-26478371D01*
X29049021Y-26478371D02*
X29191878Y-26335514D01*
X29191878Y-26335514D02*
X29477593Y-26192657D01*
X29477593Y-26192657D02*
X30191878Y-26192657D01*
X30191878Y-26192657D02*
X30620450Y-26335514D01*
X31906164Y-29192657D02*
X31906164Y-26192657D01*
X31906164Y-26192657D02*
X33049021Y-26192657D01*
X33049021Y-26192657D02*
X33334736Y-26335514D01*
X33334736Y-26335514D02*
X33477593Y-26478371D01*
X33477593Y-26478371D02*
X33620450Y-26764085D01*
X33620450Y-26764085D02*
X33620450Y-27192657D01*
X33620450Y-27192657D02*
X33477593Y-27478371D01*
X33477593Y-27478371D02*
X33334736Y-27621228D01*
X33334736Y-27621228D02*
X33049021Y-27764085D01*
X33049021Y-27764085D02*
X31906164Y-27764085D01*
X34906164Y-29192657D02*
X34906164Y-26192657D01*
X34906164Y-26192657D02*
X35620450Y-26192657D01*
X35620450Y-26192657D02*
X36049021Y-26335514D01*
X36049021Y-26335514D02*
X36334736Y-26621228D01*
X36334736Y-26621228D02*
X36477593Y-26906942D01*
X36477593Y-26906942D02*
X36620450Y-27478371D01*
X36620450Y-27478371D02*
X36620450Y-27906942D01*
X36620450Y-27906942D02*
X36477593Y-28478371D01*
X36477593Y-28478371D02*
X36334736Y-28764085D01*
X36334736Y-28764085D02*
X36049021Y-29049800D01*
X36049021Y-29049800D02*
X35620450Y-29192657D01*
X35620450Y-29192657D02*
X34906164Y-29192657D01*
X40191878Y-29192657D02*
X40191878Y-26192657D01*
X40191878Y-26192657D02*
X40906164Y-26192657D01*
X40906164Y-26192657D02*
X41334735Y-26335514D01*
X41334735Y-26335514D02*
X41620450Y-26621228D01*
X41620450Y-26621228D02*
X41763307Y-26906942D01*
X41763307Y-26906942D02*
X41906164Y-27478371D01*
X41906164Y-27478371D02*
X41906164Y-27906942D01*
X41906164Y-27906942D02*
X41763307Y-28478371D01*
X41763307Y-28478371D02*
X41620450Y-28764085D01*
X41620450Y-28764085D02*
X41334735Y-29049800D01*
X41334735Y-29049800D02*
X40906164Y-29192657D01*
X40906164Y-29192657D02*
X40191878Y-29192657D01*
X44334735Y-29049800D02*
X44049021Y-29192657D01*
X44049021Y-29192657D02*
X43477593Y-29192657D01*
X43477593Y-29192657D02*
X43191878Y-29049800D01*
X43191878Y-29049800D02*
X43049021Y-28764085D01*
X43049021Y-28764085D02*
X43049021Y-27621228D01*
X43049021Y-27621228D02*
X43191878Y-27335514D01*
X43191878Y-27335514D02*
X43477593Y-27192657D01*
X43477593Y-27192657D02*
X44049021Y-27192657D01*
X44049021Y-27192657D02*
X44334735Y-27335514D01*
X44334735Y-27335514D02*
X44477593Y-27621228D01*
X44477593Y-27621228D02*
X44477593Y-27906942D01*
X44477593Y-27906942D02*
X43049021Y-28192657D01*
X45763307Y-29192657D02*
X45763307Y-27192657D01*
X45763307Y-27478371D02*
X45906164Y-27335514D01*
X45906164Y-27335514D02*
X46191879Y-27192657D01*
X46191879Y-27192657D02*
X46620450Y-27192657D01*
X46620450Y-27192657D02*
X46906164Y-27335514D01*
X46906164Y-27335514D02*
X47049022Y-27621228D01*
X47049022Y-27621228D02*
X47049022Y-29192657D01*
X47049022Y-27621228D02*
X47191879Y-27335514D01*
X47191879Y-27335514D02*
X47477593Y-27192657D01*
X47477593Y-27192657D02*
X47906164Y-27192657D01*
X47906164Y-27192657D02*
X48191879Y-27335514D01*
X48191879Y-27335514D02*
X48334736Y-27621228D01*
X48334736Y-27621228D02*
X48334736Y-29192657D01*
X50191879Y-29192657D02*
X49906164Y-29049800D01*
X49906164Y-29049800D02*
X49763307Y-28906942D01*
X49763307Y-28906942D02*
X49620450Y-28621228D01*
X49620450Y-28621228D02*
X49620450Y-27764085D01*
X49620450Y-27764085D02*
X49763307Y-27478371D01*
X49763307Y-27478371D02*
X49906164Y-27335514D01*
X49906164Y-27335514D02*
X50191879Y-27192657D01*
X50191879Y-27192657D02*
X50620450Y-27192657D01*
X50620450Y-27192657D02*
X50906164Y-27335514D01*
X50906164Y-27335514D02*
X51049022Y-27478371D01*
X51049022Y-27478371D02*
X51191879Y-27764085D01*
X51191879Y-27764085D02*
X51191879Y-28621228D01*
X51191879Y-28621228D02*
X51049022Y-28906942D01*
X51049022Y-28906942D02*
X50906164Y-29049800D01*
X50906164Y-29049800D02*
X50620450Y-29192657D01*
X50620450Y-29192657D02*
X50191879Y-29192657D01*
X52477593Y-27192657D02*
X52477593Y-29192657D01*
X52477593Y-27478371D02*
X52620450Y-27335514D01*
X52620450Y-27335514D02*
X52906165Y-27192657D01*
X52906165Y-27192657D02*
X53334736Y-27192657D01*
X53334736Y-27192657D02*
X53620450Y-27335514D01*
X53620450Y-27335514D02*
X53763308Y-27621228D01*
X53763308Y-27621228D02*
X53763308Y-29192657D01*
D12*
%TO.C,G\u002A\u002A\u002A*%
G36*
X166402071Y-39254620D02*
G01*
X166404565Y-39258544D01*
X166407409Y-39265629D01*
X166410749Y-39276571D01*
X166414729Y-39292071D01*
X166419495Y-39312827D01*
X166425194Y-39339537D01*
X166431970Y-39372900D01*
X166439970Y-39413615D01*
X166449339Y-39462382D01*
X166460222Y-39519897D01*
X166472766Y-39586861D01*
X166484797Y-39651485D01*
X166499724Y-39731497D01*
X166512879Y-39801259D01*
X166524362Y-39861265D01*
X166534276Y-39912013D01*
X166542722Y-39954000D01*
X166549802Y-39987723D01*
X166555619Y-40013677D01*
X166560272Y-40032361D01*
X166563866Y-40044271D01*
X166566359Y-40049724D01*
X166571324Y-40054041D01*
X166581395Y-40060094D01*
X166597223Y-40068171D01*
X166619461Y-40078564D01*
X166648761Y-40091564D01*
X166685775Y-40107461D01*
X166731155Y-40126547D01*
X166785553Y-40149112D01*
X166832361Y-40168370D01*
X166882837Y-40189037D01*
X166930724Y-40208558D01*
X166974982Y-40226516D01*
X167014572Y-40242492D01*
X167048454Y-40256068D01*
X167075587Y-40266826D01*
X167094933Y-40274350D01*
X167105451Y-40278219D01*
X167106442Y-40278529D01*
X167127067Y-40280834D01*
X167138052Y-40278589D01*
X167144700Y-40274704D01*
X167159564Y-40265129D01*
X167181887Y-40250377D01*
X167210910Y-40230959D01*
X167245874Y-40207390D01*
X167286021Y-40180180D01*
X167330590Y-40149843D01*
X167378825Y-40116891D01*
X167429965Y-40081837D01*
X167466272Y-40056883D01*
X167528607Y-40014040D01*
X167582623Y-39977032D01*
X167628946Y-39945453D01*
X167668204Y-39918896D01*
X167701024Y-39896952D01*
X167728035Y-39879214D01*
X167749863Y-39865275D01*
X167767137Y-39854727D01*
X167780483Y-39847163D01*
X167790530Y-39842176D01*
X167797904Y-39839357D01*
X167802896Y-39838327D01*
X167824717Y-39836376D01*
X168099757Y-40111735D01*
X168153242Y-40165330D01*
X168199480Y-40211783D01*
X168238978Y-40251631D01*
X168272242Y-40285410D01*
X168299777Y-40313655D01*
X168322091Y-40336904D01*
X168339688Y-40355692D01*
X168353076Y-40370554D01*
X168362760Y-40382028D01*
X168369246Y-40390648D01*
X168373041Y-40396952D01*
X168374650Y-40401475D01*
X168374796Y-40403028D01*
X168373246Y-40408553D01*
X168368383Y-40418474D01*
X168359891Y-40433273D01*
X168347454Y-40453437D01*
X168330755Y-40479449D01*
X168309477Y-40511795D01*
X168283305Y-40550957D01*
X168251920Y-40597422D01*
X168215007Y-40651673D01*
X168172250Y-40714196D01*
X168155674Y-40738372D01*
X168111327Y-40803116D01*
X168072899Y-40859453D01*
X168040045Y-40907909D01*
X168012421Y-40949011D01*
X167989685Y-40983287D01*
X167971492Y-41011263D01*
X167957498Y-41033467D01*
X167947359Y-41050424D01*
X167940732Y-41062663D01*
X167937274Y-41070711D01*
X167936552Y-41074268D01*
X167938661Y-41082148D01*
X167944669Y-41098880D01*
X167954090Y-41123322D01*
X167966442Y-41154334D01*
X167981242Y-41190774D01*
X167998007Y-41231502D01*
X168016252Y-41275376D01*
X168035495Y-41321255D01*
X168055253Y-41368000D01*
X168075042Y-41414467D01*
X168094380Y-41459517D01*
X168112782Y-41502008D01*
X168129765Y-41540800D01*
X168144847Y-41574751D01*
X168157544Y-41602720D01*
X168167372Y-41623567D01*
X168173849Y-41636150D01*
X168175780Y-41639103D01*
X168186427Y-41649061D01*
X168193350Y-41653813D01*
X168200058Y-41655570D01*
X168216604Y-41659129D01*
X168242098Y-41664318D01*
X168275646Y-41670963D01*
X168316359Y-41678892D01*
X168363344Y-41687931D01*
X168415709Y-41697909D01*
X168472563Y-41708651D01*
X168533015Y-41719985D01*
X168572556Y-41727354D01*
X168646356Y-41741110D01*
X168710139Y-41753085D01*
X168764628Y-41763431D01*
X168810543Y-41772299D01*
X168848607Y-41779841D01*
X168879542Y-41786208D01*
X168904069Y-41791551D01*
X168922910Y-41796023D01*
X168936786Y-41799775D01*
X168946420Y-41802958D01*
X168952533Y-41805723D01*
X168955334Y-41807700D01*
X168967608Y-41819161D01*
X168967608Y-42210043D01*
X168967608Y-42600925D01*
X168955334Y-42612376D01*
X168951429Y-42614957D01*
X168944558Y-42617826D01*
X168933986Y-42621138D01*
X168918977Y-42625047D01*
X168898793Y-42629707D01*
X168872701Y-42635272D01*
X168839962Y-42641897D01*
X168799842Y-42649736D01*
X168751605Y-42658944D01*
X168694514Y-42669674D01*
X168627833Y-42682081D01*
X168585735Y-42689874D01*
X168524322Y-42701290D01*
X168465745Y-42712305D01*
X168410939Y-42722734D01*
X168360843Y-42732392D01*
X168316393Y-42741097D01*
X168278526Y-42748663D01*
X168248179Y-42754907D01*
X168226289Y-42759644D01*
X168213793Y-42762689D01*
X168211539Y-42763434D01*
X168196799Y-42774279D01*
X168186092Y-42789174D01*
X168182472Y-42797620D01*
X168175218Y-42815194D01*
X168164737Y-42840892D01*
X168151436Y-42873707D01*
X168135721Y-42912633D01*
X168117998Y-42956665D01*
X168098674Y-43004797D01*
X168078156Y-43056022D01*
X168067945Y-43081555D01*
X168041255Y-43148708D01*
X168018068Y-43207826D01*
X167998501Y-43258597D01*
X167982672Y-43300707D01*
X167970696Y-43333845D01*
X167962690Y-43357697D01*
X167958772Y-43371951D01*
X167958373Y-43375071D01*
X167959082Y-43379984D01*
X167961487Y-43386827D01*
X167966002Y-43396242D01*
X167973042Y-43408874D01*
X167983024Y-43425365D01*
X167996361Y-43446360D01*
X168013470Y-43472502D01*
X168034764Y-43504434D01*
X168060660Y-43542800D01*
X168091573Y-43588243D01*
X168127917Y-43641407D01*
X168166585Y-43697802D01*
X168210348Y-43761686D01*
X168248152Y-43817144D01*
X168280321Y-43864672D01*
X168307175Y-43904764D01*
X168329039Y-43937914D01*
X168346234Y-43964619D01*
X168359085Y-43985372D01*
X168367912Y-44000669D01*
X168373040Y-44011005D01*
X168374791Y-44016874D01*
X168374796Y-44017080D01*
X168373978Y-44020994D01*
X168371186Y-44026464D01*
X168365915Y-44034026D01*
X168357659Y-44044217D01*
X168345912Y-44057571D01*
X168330168Y-44074624D01*
X168309922Y-44095912D01*
X168284667Y-44121971D01*
X168253898Y-44153336D01*
X168217109Y-44190543D01*
X168173794Y-44234127D01*
X168123447Y-44284625D01*
X168099757Y-44308351D01*
X167824717Y-44583710D01*
X167802896Y-44581799D01*
X167797286Y-44580620D01*
X167789619Y-44577642D01*
X167779241Y-44572440D01*
X167765496Y-44564588D01*
X167747728Y-44553663D01*
X167725281Y-44539239D01*
X167697500Y-44520892D01*
X167663728Y-44498196D01*
X167623310Y-44470728D01*
X167575590Y-44438062D01*
X167519912Y-44399774D01*
X167489215Y-44378617D01*
X167430424Y-44338104D01*
X167379906Y-44303379D01*
X167336974Y-44274002D01*
X167300943Y-44249533D01*
X167271126Y-44229533D01*
X167246837Y-44213562D01*
X167227390Y-44201179D01*
X167212099Y-44191946D01*
X167200278Y-44185422D01*
X167191239Y-44181169D01*
X167184299Y-44178745D01*
X167178769Y-44177711D01*
X167175534Y-44177577D01*
X167166700Y-44178685D01*
X167154935Y-44182197D01*
X167139095Y-44188644D01*
X167118037Y-44198554D01*
X167090620Y-44212457D01*
X167055700Y-44230885D01*
X167025512Y-44247119D01*
X166990721Y-44265761D01*
X166958476Y-44282721D01*
X166930196Y-44297278D01*
X166907301Y-44308710D01*
X166891212Y-44316295D01*
X166883548Y-44319276D01*
X166868078Y-44317757D01*
X166860807Y-44312142D01*
X166857640Y-44305941D01*
X166850573Y-44290264D01*
X166839864Y-44265721D01*
X166825769Y-44232923D01*
X166808547Y-44192481D01*
X166788455Y-44145005D01*
X166765749Y-44091108D01*
X166740687Y-44031398D01*
X166713527Y-43966488D01*
X166684526Y-43896989D01*
X166653941Y-43823510D01*
X166622029Y-43746664D01*
X166589048Y-43667060D01*
X166586091Y-43659916D01*
X166546597Y-43564545D01*
X166511035Y-43478759D01*
X166479238Y-43402033D01*
X166451037Y-43333843D01*
X166426263Y-43273663D01*
X166404748Y-43220968D01*
X166386324Y-43175233D01*
X166370821Y-43135934D01*
X166358072Y-43102545D01*
X166347908Y-43074541D01*
X166340160Y-43051397D01*
X166334659Y-43032589D01*
X166331239Y-43017590D01*
X166329729Y-43005876D01*
X166329961Y-42996923D01*
X166331767Y-42990204D01*
X166334979Y-42985195D01*
X166339427Y-42981371D01*
X166344944Y-42978207D01*
X166351361Y-42975178D01*
X166358509Y-42971759D01*
X166364232Y-42968632D01*
X166418733Y-42933750D01*
X166473869Y-42893431D01*
X166527638Y-42849440D01*
X166578038Y-42803540D01*
X166623067Y-42757493D01*
X166660722Y-42713063D01*
X166672616Y-42697062D01*
X166714611Y-42630712D01*
X166751867Y-42557285D01*
X166782982Y-42480090D01*
X166806556Y-42402435D01*
X166816435Y-42357337D01*
X166822162Y-42315250D01*
X166825494Y-42266293D01*
X166826464Y-42213784D01*
X166825105Y-42161042D01*
X166821451Y-42111386D01*
X166815535Y-42068134D01*
X166813408Y-42057294D01*
X166788949Y-41964263D01*
X166756588Y-41878322D01*
X166715859Y-41798575D01*
X166666294Y-41724125D01*
X166607425Y-41654075D01*
X166597793Y-41643923D01*
X166528007Y-41578281D01*
X166454619Y-41522734D01*
X166376912Y-41476856D01*
X166294170Y-41440220D01*
X166211519Y-41413923D01*
X166157329Y-41401049D01*
X166107190Y-41392555D01*
X166056980Y-41387993D01*
X166002574Y-41386914D01*
X165969936Y-41387624D01*
X165875878Y-41395986D01*
X165785181Y-41414413D01*
X165698411Y-41442422D01*
X165616136Y-41479531D01*
X165538922Y-41525258D01*
X165467339Y-41579121D01*
X165401951Y-41640636D01*
X165343327Y-41709323D01*
X165292034Y-41784698D01*
X165248639Y-41866279D01*
X165213709Y-41953583D01*
X165187811Y-42046130D01*
X165186047Y-42054214D01*
X165179095Y-42097645D01*
X165174762Y-42148415D01*
X165173047Y-42203272D01*
X165173951Y-42258962D01*
X165177476Y-42312234D01*
X165183622Y-42359833D01*
X165185955Y-42372409D01*
X165210038Y-42465490D01*
X165243735Y-42553412D01*
X165287029Y-42636149D01*
X165339907Y-42713669D01*
X165402350Y-42785945D01*
X165413113Y-42796905D01*
X165440546Y-42823656D01*
X165466833Y-42847548D01*
X165493977Y-42870157D01*
X165523980Y-42893059D01*
X165558844Y-42917828D01*
X165600573Y-42946040D01*
X165614082Y-42954983D01*
X165641341Y-42973994D01*
X165660721Y-42989766D01*
X165671397Y-43001605D01*
X165672789Y-43004313D01*
X165673187Y-43007363D01*
X165672575Y-43012452D01*
X165670751Y-43020087D01*
X165667514Y-43030776D01*
X165662663Y-43045028D01*
X165655997Y-43063351D01*
X165647314Y-43086252D01*
X165636413Y-43114239D01*
X165623094Y-43147821D01*
X165607154Y-43187505D01*
X165588393Y-43233800D01*
X165566610Y-43287213D01*
X165541603Y-43348253D01*
X165513171Y-43417427D01*
X165481113Y-43495243D01*
X165445227Y-43582210D01*
X165412967Y-43660314D01*
X165376780Y-43747760D01*
X165342319Y-43830776D01*
X165309790Y-43908871D01*
X165279401Y-43981556D01*
X165251362Y-44048339D01*
X165225878Y-44108731D01*
X165203159Y-44162241D01*
X165183412Y-44208378D01*
X165166845Y-44246652D01*
X165153666Y-44276572D01*
X165144083Y-44297649D01*
X165138304Y-44309392D01*
X165136806Y-44311708D01*
X165126155Y-44318934D01*
X165119080Y-44321254D01*
X165112691Y-44318773D01*
X165097976Y-44311762D01*
X165076208Y-44300870D01*
X165048666Y-44286745D01*
X165016623Y-44270038D01*
X164981357Y-44251396D01*
X164973754Y-44247346D01*
X164931880Y-44225140D01*
X164898452Y-44207755D01*
X164872388Y-44194695D01*
X164852609Y-44185464D01*
X164838032Y-44179564D01*
X164827576Y-44176500D01*
X164820160Y-44175775D01*
X164818248Y-44175957D01*
X164813543Y-44177495D01*
X164805782Y-44181321D01*
X164794509Y-44187740D01*
X164779269Y-44197057D01*
X164759605Y-44209576D01*
X164735060Y-44225603D01*
X164705180Y-44245440D01*
X164669507Y-44269394D01*
X164627586Y-44297768D01*
X164578960Y-44330868D01*
X164523173Y-44368997D01*
X164459770Y-44412461D01*
X164388294Y-44461564D01*
X164313413Y-44513082D01*
X164278440Y-44536934D01*
X164251096Y-44555006D01*
X164230217Y-44567976D01*
X164214639Y-44576524D01*
X164203197Y-44581329D01*
X164194728Y-44583070D01*
X164193376Y-44583110D01*
X164189408Y-44582672D01*
X164184699Y-44581007D01*
X164178690Y-44577590D01*
X164170822Y-44571894D01*
X164160534Y-44563395D01*
X164147267Y-44551567D01*
X164130463Y-44535883D01*
X164109562Y-44515819D01*
X164084003Y-44490848D01*
X164053229Y-44460445D01*
X164016680Y-44424085D01*
X163973795Y-44381241D01*
X163924016Y-44331387D01*
X163901664Y-44308980D01*
X163856375Y-44263482D01*
X163813337Y-44220079D01*
X163773177Y-44179410D01*
X163736518Y-44142116D01*
X163703986Y-44108838D01*
X163676203Y-44080215D01*
X163653796Y-44056889D01*
X163637387Y-44039499D01*
X163627603Y-44028685D01*
X163624980Y-44025256D01*
X163624256Y-44012744D01*
X163626508Y-44003001D01*
X163630413Y-43996283D01*
X163639950Y-43981423D01*
X163654556Y-43959263D01*
X163673665Y-43930641D01*
X163696712Y-43896397D01*
X163723134Y-43857371D01*
X163752364Y-43814401D01*
X163783840Y-43768328D01*
X163810861Y-43728919D01*
X163854070Y-43666008D01*
X163891522Y-43611465D01*
X163923627Y-43564660D01*
X163950797Y-43524961D01*
X163973442Y-43491738D01*
X163991975Y-43464359D01*
X164006805Y-43442192D01*
X164018343Y-43424608D01*
X164027002Y-43410974D01*
X164033190Y-43400661D01*
X164037321Y-43393035D01*
X164039804Y-43387467D01*
X164041051Y-43383326D01*
X164041472Y-43379979D01*
X164041478Y-43376797D01*
X164041454Y-43374813D01*
X164039421Y-43365785D01*
X164033620Y-43347881D01*
X164024505Y-43322224D01*
X164012529Y-43289938D01*
X163998144Y-43252148D01*
X163981805Y-43209978D01*
X163963964Y-43164553D01*
X163945074Y-43116995D01*
X163925588Y-43068429D01*
X163905960Y-43019980D01*
X163886643Y-42972772D01*
X163868089Y-42927928D01*
X163850752Y-42886573D01*
X163835085Y-42849830D01*
X163821542Y-42818825D01*
X163810574Y-42794681D01*
X163802636Y-42778522D01*
X163798298Y-42771576D01*
X163794434Y-42768704D01*
X163788463Y-42765761D01*
X163779563Y-42762569D01*
X163766910Y-42758949D01*
X163749683Y-42754724D01*
X163727060Y-42749713D01*
X163698218Y-42743739D01*
X163662335Y-42736623D01*
X163618588Y-42728186D01*
X163566156Y-42718250D01*
X163504216Y-42706636D01*
X163469899Y-42700232D01*
X163410976Y-42689256D01*
X163353866Y-42678627D01*
X163299721Y-42668561D01*
X163249691Y-42659270D01*
X163204929Y-42650968D01*
X163166584Y-42643868D01*
X163135809Y-42638185D01*
X163113755Y-42634132D01*
X163103711Y-42632304D01*
X163073811Y-42625894D01*
X163052815Y-42619129D01*
X163042338Y-42612952D01*
X163040405Y-42610629D01*
X163038735Y-42607296D01*
X163037308Y-42602192D01*
X163036106Y-42594556D01*
X163035109Y-42583629D01*
X163034297Y-42568650D01*
X163033653Y-42548858D01*
X163033157Y-42523493D01*
X163032789Y-42491796D01*
X163032531Y-42453005D01*
X163032363Y-42406360D01*
X163032267Y-42351102D01*
X163032224Y-42286469D01*
X163032213Y-42211701D01*
X163032213Y-42210043D01*
X163032219Y-42135159D01*
X163032252Y-42070422D01*
X163032332Y-42015070D01*
X163032480Y-41968338D01*
X163032716Y-41929465D01*
X163033061Y-41897686D01*
X163033535Y-41872239D01*
X163034160Y-41852360D01*
X163034955Y-41837286D01*
X163035942Y-41826254D01*
X163037142Y-41818501D01*
X163038573Y-41813263D01*
X163040259Y-41809778D01*
X163042218Y-41807282D01*
X163043124Y-41806349D01*
X163052684Y-41798357D01*
X163058920Y-41795438D01*
X163066174Y-41794446D01*
X163082994Y-41791603D01*
X163108314Y-41787112D01*
X163141066Y-41781174D01*
X163180186Y-41773991D01*
X163224606Y-41765764D01*
X163273262Y-41756697D01*
X163325085Y-41746989D01*
X163379011Y-41736844D01*
X163433973Y-41726463D01*
X163488904Y-41716048D01*
X163542739Y-41705800D01*
X163594411Y-41695921D01*
X163642855Y-41686614D01*
X163687003Y-41678079D01*
X163725790Y-41670520D01*
X163758150Y-41664136D01*
X163783015Y-41659131D01*
X163799321Y-41655706D01*
X163806001Y-41654063D01*
X163806045Y-41654041D01*
X163816993Y-41645928D01*
X163823782Y-41639103D01*
X163827914Y-41631787D01*
X163835695Y-41615608D01*
X163846645Y-41591697D01*
X163860279Y-41561190D01*
X163876116Y-41525218D01*
X163893674Y-41484916D01*
X163912470Y-41441418D01*
X163932022Y-41395855D01*
X163951847Y-41349363D01*
X163971464Y-41303074D01*
X163990389Y-41258121D01*
X164008140Y-41215639D01*
X164024236Y-41176760D01*
X164038193Y-41142618D01*
X164049530Y-41114346D01*
X164057763Y-41093078D01*
X164062412Y-41079947D01*
X164063282Y-41076340D01*
X164060663Y-41060975D01*
X164057401Y-41052740D01*
X164053383Y-41046478D01*
X164043706Y-41031989D01*
X164028889Y-41010037D01*
X164009453Y-40981386D01*
X163985918Y-40946801D01*
X163958804Y-40907045D01*
X163928632Y-40862884D01*
X163895923Y-40815081D01*
X163861196Y-40764400D01*
X163841271Y-40735351D01*
X163805664Y-40683381D01*
X163771819Y-40633830D01*
X163740254Y-40587467D01*
X163711487Y-40545058D01*
X163686034Y-40507371D01*
X163664415Y-40475175D01*
X163647146Y-40449236D01*
X163634745Y-40430322D01*
X163627730Y-40419201D01*
X163626353Y-40416677D01*
X163623946Y-40403006D01*
X163624980Y-40394831D01*
X163629293Y-40389463D01*
X163640707Y-40377030D01*
X163658596Y-40358173D01*
X163682336Y-40333531D01*
X163711303Y-40303745D01*
X163744872Y-40269455D01*
X163782418Y-40231302D01*
X163823318Y-40189926D01*
X163866946Y-40145968D01*
X163901664Y-40111106D01*
X163954427Y-40058233D01*
X164000067Y-40012584D01*
X164039145Y-39973634D01*
X164072219Y-39940858D01*
X164099846Y-39913730D01*
X164122587Y-39891726D01*
X164141000Y-39874319D01*
X164155643Y-39860986D01*
X164167075Y-39851200D01*
X164175855Y-39844437D01*
X164182542Y-39840170D01*
X164187693Y-39837876D01*
X164191869Y-39837028D01*
X164193250Y-39836976D01*
X164198676Y-39837925D01*
X164206676Y-39841065D01*
X164217940Y-39846836D01*
X164233153Y-39855678D01*
X164253005Y-39868031D01*
X164278183Y-39884334D01*
X164309375Y-39905027D01*
X164347268Y-39930549D01*
X164392551Y-39961342D01*
X164445910Y-39997844D01*
X164460581Y-40007905D01*
X164529515Y-40055202D01*
X164590020Y-40096712D01*
X164642671Y-40132812D01*
X164688042Y-40163878D01*
X164726708Y-40190285D01*
X164759244Y-40212411D01*
X164786224Y-40230630D01*
X164808223Y-40245319D01*
X164825815Y-40256855D01*
X164839576Y-40265613D01*
X164850079Y-40271969D01*
X164857900Y-40276299D01*
X164863613Y-40278981D01*
X164867793Y-40280388D01*
X164871014Y-40280899D01*
X164873851Y-40280889D01*
X164876879Y-40280733D01*
X164877408Y-40280720D01*
X164885957Y-40278606D01*
X164903626Y-40272640D01*
X164929474Y-40263185D01*
X164962557Y-40250605D01*
X165001933Y-40235264D01*
X165046660Y-40217526D01*
X165095795Y-40197756D01*
X165148396Y-40176317D01*
X165159208Y-40171878D01*
X165221615Y-40146135D01*
X165274520Y-40124105D01*
X165318573Y-40105497D01*
X165354422Y-40090023D01*
X165382716Y-40077393D01*
X165404103Y-40067318D01*
X165419234Y-40059509D01*
X165428756Y-40053676D01*
X165433180Y-40049725D01*
X165435921Y-40043386D01*
X165439735Y-40030181D01*
X165444713Y-40009661D01*
X165450946Y-39981381D01*
X165458527Y-39944893D01*
X165467547Y-39899748D01*
X165478097Y-39845501D01*
X165490270Y-39781703D01*
X165504155Y-39707907D01*
X165514630Y-39651751D01*
X165526472Y-39588309D01*
X165537836Y-39527883D01*
X165548552Y-39471349D01*
X165558450Y-39419582D01*
X165567359Y-39373459D01*
X165575110Y-39333855D01*
X165581533Y-39301646D01*
X165586458Y-39277708D01*
X165589714Y-39262917D01*
X165591011Y-39258245D01*
X165599702Y-39248591D01*
X165604694Y-39245715D01*
X165611482Y-39245158D01*
X165628289Y-39244631D01*
X165654223Y-39244139D01*
X165688394Y-39243691D01*
X165729908Y-39243295D01*
X165777876Y-39242957D01*
X165831405Y-39242686D01*
X165889604Y-39242489D01*
X165951581Y-39242374D01*
X166002134Y-39242345D01*
X166390792Y-39242345D01*
X166402071Y-39254620D01*
G37*
%TD*%
M02*
