M48
; DRILL file {KiCad 8.0.9} date 2025-05-08T22:04:55-0500
; FORMAT={-:-/ absolute / inch / decimal}
; #@! TF.CreationDate,2025-05-08T22:04:55-05:00
; #@! TF.GenerationSoftware,Kicad,Pcbnew,8.0.9
; #@! TF.FileFunction,Plated,1,2,PTH
FMAT,2
INCH
; #@! TA.AperFunction,Plated,PTH,ViaDrill
T1C0.0118
; #@! TA.AperFunction,Plated,PTH,ComponentDrill
T2C0.0315
; #@! TA.AperFunction,Plated,PTH,ComponentDrill
T3C0.0394
%
G90
G05
T1
X2.99Y-1.57
X3.14Y-1.18
X3.145Y-1.605
X3.285Y-1.045
X3.32Y-1.13
X3.71Y-1.57
X3.785Y-1.045
X3.815Y-1.65
X3.85Y-1.235
X3.88Y-1.47
X3.905Y-1.3
X3.93Y-1.19
X3.9736Y-1.51
X4.17Y-1.56
X4.205Y-1.11
X4.465Y-1.645
X4.465Y-1.705
X4.67Y-1.155
X4.67Y-1.58
X4.765Y-1.199
X4.885Y-1.645
X4.91Y-1.73
X4.915Y-1.055
X4.915Y-1.13
X5.825Y-1.135
X5.85Y-1.215
X5.86Y-1.055
X5.98Y-1.645
X5.99Y-1.58
X6.505Y-1.37
T2
X2.925Y-1.075
X2.925Y-1.675
X3.025Y-1.075
X3.025Y-1.675
X3.125Y-1.075
X3.125Y-1.675
X3.225Y-1.075
X3.225Y-1.675
X4.525Y-1.075
X4.525Y-1.675
X4.625Y-1.075
X4.625Y-1.675
X4.725Y-1.075
X4.725Y-1.675
X4.825Y-1.075
X4.825Y-1.675
T3
X1.6Y-1.2594
X1.6Y-1.4094
X1.65Y-1.3344
X1.65Y-1.4839
X1.7Y-1.2594
X1.7Y-1.4091
X1.75Y-1.3343
X1.75Y-1.4839
X1.8Y-1.2594
X1.8Y-1.4091
X1.85Y-1.3343
X1.85Y-1.4839
X1.9Y-1.2594
X1.9Y-1.4091
X1.95Y-1.3343
X1.95Y-1.4839
X2.0Y-1.2594
X2.0Y-1.4091
X2.05Y-1.3343
X2.05Y-1.4839
X2.3Y-1.2598
X2.3Y-1.4094
X2.35Y-1.3346
X2.35Y-1.4843
X2.4Y-1.2598
X2.4Y-1.4094
X2.45Y-1.3346
X2.45Y-1.4843
X2.5Y-1.2598
X2.5Y-1.4094
X2.55Y-1.3346
X2.55Y-1.4843
X2.6Y-1.2598
X2.6Y-1.4094
X2.65Y-1.3346
X2.65Y-1.4843
X2.7Y-1.2598
X2.7Y-1.4094
X2.75Y-1.3346
X2.75Y-1.4843
X2.8Y-1.2598
X2.8Y-1.4094
X2.85Y-1.3346
X2.85Y-1.4843
X2.9Y-1.2598
X2.9Y-1.4094
X2.95Y-1.3346
X2.95Y-1.4843
X3.0Y-1.2598
X3.0Y-1.4094
X3.05Y-1.3346
X3.05Y-1.4843
X3.1Y-1.2598
X3.1Y-1.4094
X3.15Y-1.3346
X3.15Y-1.4843
X3.2Y-1.2598
X3.2Y-1.4094
X3.25Y-1.3346
X3.25Y-1.4843
X3.3Y-1.2598
X3.3Y-1.4094
X3.35Y-1.3346
X3.35Y-1.4843
X3.4Y-1.2598
X3.4Y-1.4094
X3.45Y-1.3346
X3.45Y-1.4843
X3.5Y-1.2598
X3.5Y-1.4094
X3.55Y-1.3346
X3.55Y-1.4843
X3.6Y-1.2598
X3.6Y-1.4094
X3.65Y-1.3346
X3.65Y-1.4843
X3.7Y-1.2598
X3.7Y-1.4094
X3.75Y-1.3346
X3.75Y-1.4843
X4.0Y-1.2594
X4.0Y-1.4091
X4.05Y-1.3343
X4.05Y-1.4839
X4.1Y-1.2594
X4.1Y-1.4091
X4.15Y-1.3343
X4.15Y-1.4839
X4.2Y-1.2594
X4.2Y-1.4091
X4.25Y-1.3343
X4.25Y-1.4839
X4.3Y-1.2594
X4.3Y-1.4091
X4.35Y-1.3343
X4.35Y-1.4839
X4.4Y-1.2594
X4.4Y-1.4091
X4.45Y-1.3343
X4.45Y-1.4839
X4.5Y-1.2594
X4.5Y-1.4091
X4.55Y-1.3343
X4.55Y-1.4839
X4.6Y-1.2594
X4.6Y-1.4091
X4.65Y-1.3343
X4.65Y-1.4839
X4.7Y-1.2594
X4.7Y-1.4091
X4.75Y-1.3343
X4.75Y-1.4839
X4.8Y-1.2594
X4.8Y-1.4091
X4.85Y-1.3343
X4.85Y-1.4839
X4.9Y-1.2594
X4.9Y-1.4091
X4.95Y-1.3343
X4.95Y-1.4839
X5.0Y-1.2594
X5.0Y-1.4091
X5.05Y-1.3343
X5.05Y-1.4839
X5.1Y-1.2594
X5.1Y-1.4091
X5.15Y-1.3343
X5.15Y-1.4839
X5.2Y-1.2594
X5.2Y-1.4091
X5.25Y-1.3343
X5.25Y-1.4839
X5.3Y-1.2594
X5.3Y-1.4091
X5.35Y-1.3343
X5.35Y-1.4839
X5.4Y-1.2594
X5.4Y-1.4091
X5.45Y-1.3343
X5.45Y-1.4839
X5.5Y-1.26
X5.5Y-1.4096
X5.55Y-1.3348
X5.55Y-1.4844
X5.6Y-1.26
X5.6Y-1.4096
X5.65Y-1.3348
X5.65Y-1.4844
X5.7Y-1.26
X5.7Y-1.4096
X5.75Y-1.3348
X5.75Y-1.4844
X5.8Y-1.26
X5.8Y-1.4096
X5.85Y-1.3348
X5.85Y-1.4844
X5.9Y-1.26
X5.9Y-1.4096
X5.95Y-1.3348
X5.95Y-1.4844
X6.0Y-1.26
X6.0Y-1.4096
X6.05Y-1.3348
X6.05Y-1.4844
X6.1Y-1.26
X6.1Y-1.4096
X6.15Y-1.3348
X6.15Y-1.4844
M30
